<?xml version="1.0" standalone="no"?>
<!DOCTYPE svg PUBLIC "-//W3C//DTD SVG 1.1//EN" "http://www.w3.org/Graphics/SVG/1.1/DTD/svg11.dtd" >
<svg xmlns="http://www.w3.org/2000/svg" xmlns:xlink="http://www.w3.org/1999/xlink" version="1.1">
<metadata></metadata>
<defs>
<font id="crayoneregular" horiz-adv-x="819" >
<font-face units-per-em="2048" ascent="1638" descent="-410" />
<missing-glyph horiz-adv-x="688" />
<glyph horiz-adv-x="0" />
<glyph unicode="&#xd;" horiz-adv-x="688" />
<glyph unicode=" "  horiz-adv-x="688" />
<glyph unicode="&#x09;" horiz-adv-x="688" />
<glyph unicode="&#xa0;" horiz-adv-x="688" />
<glyph unicode="!" horiz-adv-x="454" d="M160 61q0 -31 33 -34q31 2 36 36q-3 33 -36 37q-14 -2 -22.5 -10t-10.5 -29zM160 397q10 -51 28 -51q12 0 24.5 19.5t12.5 29.5v1415q6 0 6 11q0 12 -9 26.5t-21 14.5q-23 0 -41 -52v-1413z" />
<glyph unicode="&#x22;" horiz-adv-x="579" d="M137 1393q0 -4 2 -4q15 -1 70 67q55 57 70.5 95t15.5 79q0 4 -2 21q0 23 -10.5 39t-49.5 32q-16 0 -31.5 -8t-15.5 -18q0 -8 13 -15q35 0 48 -15t13 -38q0 -16 -4 -33.5t-10 -25.5q-8 -31 -66 -96q-43 -63 -43 -80zM313 1393q0 -4 2 -4q15 -1 68 67q57 59 72.5 97 t15.5 77q-2 8 -2 21q-2 25 -12.5 40t-46.5 31q-18 -2 -35 -11t-17 -21q0 -6 7 -13q39 0 55 -15t16 -40q0 -23 -10 -45q-14 -41 -70 -104q-43 -63 -43 -80z" />
<glyph unicode="#" horiz-adv-x="811" d="M-47 14h149l-65 -180l67 2l60 178h293l-68 -182l62 -2l63 184h135l29 66l-143 -2l157 479h152l24 66h-153l59 180h-57l-58 -180h-294l61 184l-66 -4l-59 -180h-129l-27 -66h136l-166 -479l-133 2zM184 84l158 473h293l-164 -473h-287z" />
<glyph unicode="$" horiz-adv-x="958" d="M4 1237q8 -131 56.5 -214t148.5 -128q10 -8 58 -30.5t157 -53.5l2 -750q-104 10 -173 45t-104.5 79t-49 83t-21.5 86q0 4 -2 11h-68l4 -11q20 -72 41 -123t64 -98t118.5 -82t192.5 -49v-147h76l-2 145q96 12 169.5 39t128 75t87.5 123.5t39 182.5q-10 131 -57.5 214 t-149.5 126q-10 8 -58.5 30.5t-158.5 53.5v751q96 -12 159.5 -37.5t98.5 -60.5t52 -71.5t36 -96.5l10 -33l64 -6l-4 10q-20 74 -41 124.5t-64 99.5t-119 86t-192 53l2 131h-76v-131q-96 -16 -169 -44t-128 -76t-88 -124t-39 -182zM63 1243q0 70 28 132.5t77 111.5 t115.5 79.5t142.5 35.5v-744q-117 45 -185.5 85t-103.5 81t-49 89t-25 130zM508 61l2 713q113 -35 176.5 -62.5t100 -64.5t56 -89t31.5 -140q-14 -106 -48.5 -173t-79 -101.5t-86.5 -48t-105 -25.5q-33 -4 -47 -9z" />
<glyph unicode="%" horiz-adv-x="1169" d="M123 958q8 -115 64.5 -166t134.5 -51q80 0 135 54.5t63 181.5q-2 68 -21.5 113t-49 70.5t-60.5 36.5t-67 15q-35 -4 -67 -16t-61.5 -39t-49 -76t-21.5 -123zM180 967q8 94 43 129t101 39q61 -4 96 -38t47 -120q-10 -88 -43 -123t-102 -47q-70 12 -102 46t-40 114zM270 12 q0 -20 17 -20q12 0 25.5 13.5t19.5 33.5l530 1173q10 14 10 33q0 20 -12 21q-16 0 -47 -52l-530 -1163q-12 -25 -13 -39zM719 274q8 -115 64.5 -166t134.5 -51q80 0 135 54.5t65 181.5q-2 68 -21.5 113t-49 70.5t-61.5 36.5t-68 15q-35 -4 -67 -16t-61.5 -39t-49 -76 t-21.5 -123zM776 283q10 94 44 129t100 39q61 -4 96 -38t47 -120q-10 -88 -43 -123t-102 -47q-70 12 -102 46t-40 114z" />
<glyph unicode="&#x26;" horiz-adv-x="1093" d="M96 473q0 -61 12.5 -131t48.5 -143.5t107.5 -129t184.5 -71.5q20 0 64 7t101.5 32.5t107.5 83t69 149.5l90 -258q16 -10 30 -10q31 0 31 41v8q-2 6 -2 8l-117 297l113 338q10 43 10 68q0 31 -14 31q-12 0 -27.5 -17.5t-23.5 -40.5l-107 -303l-246 572q129 115 187.5 226 t58.5 243q4 0 4 51q0 47 -10 102t-38 106.5t-81 86t-135 34.5q-88 0 -144.5 -36.5t-87 -94t-41 -115t-10.5 -108.5q0 -29 5 -47q0 -43 38.5 -153.5t147.5 -268.5q-104 -82 -171 -165t-99.5 -152.5t-43 -116.5t-10.5 -74v-2q-2 -23 -2 -47zM168 459q0 39 8 78q10 63 39 127.5 t70 120t88 96.5t94 61l270 -594q-8 -78 -38.5 -132t-75.5 -87t-93.5 -47t-91.5 -14q-117 31 -193.5 143.5t-76.5 247.5zM301 1487q0 115 49 200t123 85q16 0 33 -5q66 0 106.5 -22.5t60 -59t24.5 -73.5t8 -90q0 -43 4 -58q-12 -129 -50 -197.5t-120 -160.5q-31 -33 -43 -47 q-16 20 -35 48t-45 73q-27 43 -60 94q-55 94 -55 213z" />
<glyph unicode="'" horiz-adv-x="354" d="M137 1393q0 -4 2 -4q15 -1 70 67q53 53 69.5 89t20.5 73l2 12v8q-2 27 -13.5 46.5t-54.5 37.5q-16 0 -31.5 -8t-15.5 -18q0 -8 13 -15q35 0 48 -15t13 -38q0 -16 -4 -33.5t-10 -25.5q-8 -31 -66 -96q-43 -63 -43 -80z" />
<glyph unicode="(" horiz-adv-x="798" d="M63 940q0 -10 3 -16q0 -57 12 -151.5t47 -212.5t105 -234.5t176 -200.5q76 -66 121.5 -96.5t64.5 -30.5q10 0 10 10q0 25 -50 78t-114 84q-123 109 -198.5 291t-114.5 459q25 250 99.5 432t191.5 313q106 72 158.5 116t52.5 58q0 6 -9 6q-23 0 -89 -40t-140 -103 q-100 -92 -166.5 -207t-100.5 -225.5t-46.5 -195.5t-12.5 -134z" />
<glyph unicode=")" horiz-adv-x="864" d="M158 1839q0 -14 52 -59t159 -115q119 -131 193.5 -313.5t96.5 -431.5q-37 -276 -112.5 -458.5t-198.5 -291.5q-63 -31 -113.5 -84t-50.5 -78q0 -10 11 -10q18 0 64 30.5t122 96.5q106 84 175 200.5t103.5 234.5t47 211t12.5 153q2 6 2 16q0 49 -12.5 134t-46 195.5 t-99 226.5t-166.5 206q-74 63 -141.5 103t-89.5 40q-8 0 -8 -6z" />
<glyph unicode="*" horiz-adv-x="593" d="M20 344l5 -84l194 2l-129 -162l45 -47l139 176v-221h64v217l156 -162l43 50l-162 149h207v74h-207l153 174l-47 53l-147 -172v225h-62v-219l-151 158l-43 -57l149 -152z" />
<glyph unicode="+" horiz-adv-x="784" d="M121 270h244v-264l81 2v262h246v88h-246v267l-86 -2v-263l-237 -2z" />
<glyph unicode="," horiz-adv-x="344" d="M72 -596q0 -12 12 -12q16 0 52 32t73 87q8 8 25.5 32.5t42 71.5t43 110.5t18.5 133.5q0 66 -13.5 112.5t-62.5 55.5q-39 -4 -39 -39q0 -27 25 -64l10 -45q6 -27 8 -39t2 -37q-12 -53 -29.5 -104t-50.5 -107q-59 -72 -87.5 -119.5t-28.5 -68.5z" />
<glyph unicode="-" horiz-adv-x="763" d="M219 248h268v74h-268v-74z" />
<glyph unicode="." horiz-adv-x="335" d="M121 55q2 -31 35 -35q33 4 37 37q-4 33 -37 37q-31 -4 -35 -39z" />
<glyph unicode="/" horiz-adv-x="577" d="M29 12h55l477 1196h-57z" />
<glyph unicode="0" horiz-adv-x="749" d="M-4 584q0 -94 11 -187.5t48 -183.5t114 -150.5t198 -62.5q125 0 204.5 67.5t118.5 167t51.5 196.5t12.5 181q-2 20 -4 43q-10 92 -25.5 176t-54.5 173.5t-112 152t-185 70.5q-123 -2 -201 -67.5t-116 -167t-49 -204t-11 -204.5zM43 608q8 96 24.5 188.5t50.5 175.5 t93 136t147 53q84 -4 148.5 -58t106.5 -137t62.5 -176.5t22.5 -177.5q0 -94 -18 -193.5t-57 -183t-101.5 -135t-146.5 -51.5q-104 2 -171 58.5t-101.5 143.5t-47 178t-12.5 179z" />
<glyph unicode="1" horiz-adv-x="700" d="M82 629q0 -16 20 -17q21 0 50 25q63 55 112 140t90 212v-981l78 2v1215l-67 2q-57 -215 -125 -360.5t-154 -225.5q-4 -6 -4 -12z" />
<glyph unicode="2" horiz-adv-x="700" d="M61 100q0 -35 21.5 -65.5t58.5 -30.5q66 0 150 107q2 0 8 -7q41 -37 93 -68.5t110 -31.5q61 0 106 53q41 57 57.5 87t16.5 40q0 4 -4 4q-10 0 -42 -30.5t-54 -63.5q-4 -18 -24.5 -30.5t-51.5 -12.5q-39 0 -87 24.5t-100 80.5q12 33 50 102q51 98 75 160q27 53 47.5 99 t34 85t24.5 82t30 113q18 82 18 159q0 111 -44 182.5t-146 71.5l-15 -2h-14q-92 -10 -141.5 -72.5t-49.5 -166.5q0 -47 20.5 -99.5t78.5 -87.5q4 14 4 27q0 29 -31 70q-25 31 -24 47q0 4 -3 14q-2 10 -2 14v4q2 4 2 7q2 55 14.5 88.5t31 52t38 27t45.5 16.5q12 2 19 4 q25 0 51.5 -7t52 -28.5t42 -63.5t16.5 -108q0 -37 -6 -78q-6 -47 -34 -138t-70 -196.5t-86 -195.5t-81 -135q-35 10 -62.5 16t-51.5 6q-41 0 -66 -22.5t-25 -77.5v-12v-13zM98 125q0 25 17.5 36t44.5 11t49 -9.5t24 -21.5q-20 -33 -44.5 -55.5t-47.5 -22.5q-27 0 -39 35 q-4 14 -4 27z" />
<glyph unicode="3" horiz-adv-x="700" d="M102 995q0 -76 45 -159q35 0 35 24q0 14 -20 51l-2 4q-6 33 -6 64q0 78 43 123t118 47q88 -12 112 -62.5t30 -152.5q2 -35 4 -62q-14 -92 -62.5 -149t-156.5 -80q-39 -14 -39 -37t39 -33q109 -23 156.5 -80t62.5 -149q-2 -27 -4 -61q-4 -102 -29 -152.5t-113 -62.5 q-76 2 -118.5 47t-42.5 123q0 31 6 63q2 8 14 33q14 33 14 45q0 10 -10 10q-11 0 -31 -8q-43 -82 -43 -156q0 -49 19.5 -92t49.5 -70.5t60.5 -43t53.5 -15.5q2 0 6 2h6q94 0 151.5 68.5t61.5 173.5q0 152 -31.5 222.5t-124.5 121.5q-20 10 -20 16q0 8 20 17q78 41 105.5 88 t46.5 133q2 4 4 14q6 41 6 80q0 70 -20.5 124t-52 88t-63.5 50.5t-56 16.5q-14 0 -21 -9q-4 0 -8 2h-10q-57 0 -121 -60t-64 -157z" />
<glyph unicode="4" horiz-adv-x="700" d="M100 522q0 -16 12.5 -22t32.5 -6h27q10 2 12 2t4 -2h199v-441q2 -25 16.5 -44t30.5 -19q29 0 41 53l2 449h133q35 6 35 36q0 25 -35 37h-131v53q-4 131 -45 132q-16 0 -29.5 -36t-13.5 -100l-2 -41h-176l223 611q-4 66 -24 65q-16 0 -47 -35l-240 -632q-25 -39 -25 -60z " />
<glyph unicode="5" horiz-adv-x="700" d="M61 616q6 -25 21 -24q16 0 37 24q45 70 96 98.5t125 28.5q47 -2 95 -32.5t89 -80.5t65.5 -113.5t24.5 -131.5q0 -74 -33.5 -145.5t-105.5 -133.5q0 -4 -52 -22t-108 -18q-57 0 -108 26.5t-86 89.5q-20 27 -31 27q-12 0 -12 -37q0 -18 4 -51q4 -4 16 -17 q41 -47 89.5 -77.5t121.5 -30.5q100 0 223 72q74 61 109 147t35 180t-32 177t-83 122q-37 55 -96 86t-127 31q-111 0 -205 -74v447h430q37 14 37 39q0 29 -39 37l-500 -3v-641z" />
<glyph unicode="6" horiz-adv-x="700" d="M70 512q8 -127 27.5 -214t47 -140.5t60.5 -83t78 -51.5q-10 0 -11 -5q0 -6 34 -14t75 -8q51 0 101 15.5t94.5 56.5t73 114.5t28.5 184.5q0 186 -82 295q-98 100 -211 100q-90 0 -160.5 -62.5t-85.5 -146.5q8 135 52.5 251t113 201t144 132t145.5 53q37 14 37 33 q0 16 -41 26q-106 -20 -192.5 -67t-155 -132t-112.5 -218.5t-60 -319.5zM168 373q6 16 10 57q6 72 25 109q35 72 81 102.5t99 30.5t102.5 -24.5t63.5 -41.5q27 -45 40 -101t13 -138v-15q2 -14 2 -24q0 -39 -7 -80t-28.5 -80t-64.5 -66.5t-109 -33.5q-70 10 -116 49t-69.5 90 t-32.5 95t-9 71z" />
<glyph unicode="7" horiz-adv-x="700" d="M68 1202q0 -8 10 -12q41 -100 41 -223q0 -78 -19 -154q0 -39 27 -39q18 0 31 21q20 121 20 202q0 39 -4 67t-10 56l-2 10q74 -31 200 -30q78 0 149 13t110 40l-160 -465h-96q-45 0 -65.5 -11t-20.5 -28q0 -16 15 -28.5t40 -12.5h104l-166 -536q-10 -16 -10 -35 q0 -37 29 -37t51 59l170 547h145q68 16 68 41q0 18 -41 35h-149l165 543q-47 0 -149 -27q-131 -35 -211 -35q-104 0 -209 43q0 29 -20 29q-14 0 -28.5 -11.5t-14.5 -21.5z" />
<glyph unicode="8" horiz-adv-x="704" d="M45 346q2 -106 34 -176t83 -106.5t112.5 -50t133.5 -13.5q55 8 102 24.5t92 54.5t75 106.5t34 170.5q-6 84 -34 144.5t-68 98.5t-85 57.5t-94 29.5q70 39 101.5 94.5t31.5 153.5q0 84 -22.5 141.5t-57 89t-71.5 45t-80 19.5q-43 -6 -80 -19.5t-71 -45t-57.5 -89 t-27.5 -143.5q8 -104 53.5 -164.5t120.5 -83.5q-23 -14 -44 -25.5t-25 -11.5q-70 -47 -113 -125t-43 -176zM123 362v19q0 109 70.5 171t171.5 85q84 -18 134 -42t75.5 -55.5t36 -69.5t22.5 -110q0 -4 4 -24q-14 -139 -73.5 -198.5t-157.5 -71.5q-57 6 -102.5 17t-86.5 40 t-66.5 82t-25.5 137q0 6 -2 20zM166 940q10 111 51 153t117 46q74 -4 116 -44t54 -143q-10 -98 -41 -141t-82 -68q-117 20 -162 60.5t-53 136.5z" />
<glyph unicode="9" horiz-adv-x="735" d="M55 866q0 -182 82 -295q94 -94 199 -94q88 0 159.5 61.5t98.5 141.5q-8 -137 -52 -253t-112 -199t-144.5 -131t-144.5 -54q-37 -16 -37 -33q0 -18 39 -26q106 20 192.5 67t155 132t112.5 218.5t61 319.5q-20 240 -65.5 346.5t-147.5 142.5q10 0 10 4q0 6 -34 14.5 t-75 8.5q-49 0 -99 -15.5t-95 -56.5t-73 -114.5t-30 -184.5zM131 911q0 41 8 80t29.5 77t65 64.5t106.5 32.5q72 -10 118 -52t69.5 -93t31.5 -94t8 -66q-6 -14 -10 -57q-8 -72 -27 -109q-33 -70 -77.5 -100.5t-98.5 -30.5q-53 0 -104 24.5t-66 39.5q-51 92 -51 207v16v16v19 q-2 16 -2 26z" />
<glyph unicode=":" horiz-adv-x="358" d="M143 537q2 -31 35 -35q31 2 37 37q-4 32 -37 36q-31 -4 -35 -38zM160 61q0 -31 33 -34q31 2 36 36q-3 33 -36 37q-14 -2 -22.5 -10t-10.5 -29z" />
<glyph unicode=";" horiz-adv-x="358" d="M72 -596q0 -12 12 -12q16 0 52 32t73 87q8 8 25.5 32.5t42 71.5t43 110.5t18.5 133.5q0 66 -13.5 112.5t-62.5 55.5q-39 -4 -39 -39q0 -27 25 -64l10 -45q6 -27 8 -39t2 -37q-12 -53 -29.5 -104t-50.5 -107q-59 -72 -87.5 -119.5t-28.5 -68.5zM193 199q2 -31 34 -35 q31 2 37 37q-4 33 -37 37q-31 -4 -34 -39z" />
<glyph unicode="&#x3c;" horiz-adv-x="655" d="M68 616l501 -786l62 66l-455 720l455 721l-62 66z" />
<glyph unicode="=" horiz-adv-x="737" d="M0 10h735l10 76h-737zM0 621h735l10 79h-741z" />
<glyph unicode="&#x3e;" horiz-adv-x="608" d="M29 -104l63 -66l502 786l-502 787l-63 -66l454 -721z" />
<glyph unicode="?" horiz-adv-x="849" d="M86 1499q0 -68 23 -129q16 -37 46.5 -69.5t49.5 -32.5q10 0 10 16q0 33 -41 115q-18 55 -18 104q0 23 4 49q4 59 34.5 102.5t77.5 69t100.5 37t104.5 13.5q119 -23 181.5 -83.5t74.5 -187.5q0 -102 -42 -189t-97 -145.5t-97 -89t-61 -41.5q-53 -41 -77.5 -110.5 t-24.5 -177.5q0 -53 6 -117v-299q14 -43 41 -43q21 0 29 35v311v39v35q0 78 6 128t22.5 82.5t45 54t75.5 42.5q80 70 129 139.5t72.5 129t30 101.5t8.5 91q2 14 2 22q-6 113 -46 183.5t-94.5 104.5t-103.5 43t-94 9q-57 -2 -112.5 -12t-117 -43t-103.5 -103.5t-44 -183.5z M348 150q2 -31 35 -35q31 2 37 37q-4 32 -37 36q-31 -4 -35 -38z" />
<glyph unicode="@" horiz-adv-x="1662" d="M174 358q0 -88 14.5 -179t48 -181t96 -168t154.5 -129q59 -41 172 -69.5t244 -28.5q111 0 224.5 23.5t222.5 74.5q45 45 45 53q-2 2 -4 2q-8 0 -52 -26q-111 -43 -218 -61.5t-210 -18.5q-133 0 -241.5 26.5t-171.5 63.5q-84 63 -138.5 131t-85 142.5t-45 160.5t-18.5 199 q16 233 87 395t153 229q63 47 147 68.5t176 21.5q98 0 191.5 -20t144.5 -45q86 -41 146.5 -106.5t93 -143.5t46 -155.5t13.5 -149.5q0 -57 -6 -100t-14 -60q-4 -12 -9 -26q-16 -57 -30.5 -96.5t-34.5 -57.5q-51 -70 -107 -70q-18 -6 -39 -6q-45 0 -96 34t-100 110v389 q0 2 2 6v6q0 23 -29 22q-33 0 -33 -38v-45q-37 45 -70.5 60t-76.5 23q-8 0 -14 3q-78 0 -117 -23t-70 -59q-10 -12 -14 -17q-43 -102 -43 -209q0 -66 16 -116q14 -98 83 -148.5t167 -50.5q57 0 102.5 24.5t73.5 86.5q49 -68 94.5 -87.5t139.5 -25.5q45 8 78.5 28.5 t72.5 57.5q63 78 86 186q33 117 33 228q0 109 -29.5 202t-79 166.5t-109.5 122.5t-126 74q-156 70 -330 69q-104 0 -192 -25.5t-142 -68.5q-66 -45 -114.5 -113.5t-80.5 -149.5t-48.5 -154.5t-22.5 -141.5q-6 -57 -6 -119zM571 307q0 37 4 86q4 72 48.5 113t138.5 55 q66 -10 106.5 -45t40.5 -80q-2 -45 -3 -107.5t-1 -105.5q-2 -84 -30.5 -122t-100.5 -38h-8q-68 2 -112 21.5t-68 89.5q-14 61 -15 133z" />
<glyph unicode="A" horiz-adv-x="1869" d="M2 197q0 -20 5 -42t20 -55q51 -66 149 -86q33 -6 55 -6q53 0 104.5 39t102.5 143q61 203 107.5 389.5t87.5 401.5h37q25 -2 39 -2q12 0 39 2h45q8 2 22 2q16 2 21 2q37 -303 88 -493.5t139 -346.5q37 -45 60.5 -68.5t48 -35.5t55 -20.5t94.5 -20.5q6 0 16 -2h23 q43 0 89 14.5t85 48.5q25 -27 46.5 -37t59.5 -20l25 -8q49 8 86 37.5t72 89.5q0 6 24 51q31 57 49 96l-24 37q-25 -47 -57 -112q-14 -29 -17 -31q-31 -55 -58.5 -82t-60.5 -35q-33 0 -60.5 12.5t-49.5 40.5q25 43 41 104.5t16 125.5q0 47 -10 86q-16 63 -57 122.5t-99 82.5 q-31 4 -59 4q-76 0 -117 -35t-51 -117q0 -14 16 -14q27 0 31 39q20 47 52 63.5t69 16.5h20h9h4q51 -35 82.5 -72t44.5 -90q8 -37 8 -88q0 -94 -29 -162q-35 -49 -65.5 -77t-63.5 -32h-16q-10 -2 -17 -2q-74 0 -140.5 24.5t-107.5 72.5q-29 39 -64.5 116.5t-71.5 187 t-62.5 248t-34.5 287.5q86 14 123 23.5t65 19.5q29 16 50.5 31.5t48.5 40.5q31 27 49 41q47 68 47 90q0 10 -8 10q-12 0 -35 -19.5t-29 -33.5q-86 -68 -146 -95.5t-177 -41.5q-6 61 -21 237q-14 176 -25.5 303t-23.5 205q-2 59 -45 60q-41 0 -55 -62q-2 -6 -23 -139 q-63 -403 -106 -625q-29 2 -37 2q-41 2 -80 5.5t-86 7.5q-111 -14 -150.5 -48t-52.5 -83q-10 -14 -10 -37q0 -18 8 -19q10 0 23 23q37 68 68.5 87t131.5 21q39 -2 91 -6q66 -6 86 -6q-90 -451 -189 -782q-43 -74 -74.5 -108t-81.5 -34q-25 0 -51 9q-135 23 -135 139 q0 37 12 86q0 -2 2 -4v-2q-4 12 -49 6q-2 -14 -6 -37q-4 -43 -4 -59zM643 1034q29 150 59.5 335t63.5 417q41 -539 63 -748q-16 0 -41 -4q-41 -2 -57 -4q-14 2 -43 2q-31 0 -45 2z" />
<glyph unicode="B" horiz-adv-x="2103" d="M283 1243q0 -49 6 -83t14 -56q27 -72 61.5 -113t79.5 -51q53 -14 95 -14q57 0 90 23.5t69 70.5l4 6q25 92 25 168q0 43 -6 86t-21 102q-8 10 -22 11q-14 0 -29 -11q16 -76 21.5 -113.5t5.5 -72.5q0 -39 -8 -92q-12 -51 -29.5 -75.5t-44.5 -35.5q-35 -8 -66 -8 q-63 0 -110 33q-27 27 -41.5 53.5t-30.5 75.5q-10 68 -10 110q0 55 12 136q18 74 50 136t69 107q29 39 66.5 69t103.5 62l14 7q25 12 52.5 19t95.5 11q59 -2 102 -2h-2q14 0 31 2h8v-59v-1366q-4 -133 -26.5 -205t-84.5 -104l-10 -4q-31 -10 -65.5 -17.5t-81.5 -7.5 q-63 0 -135 16q-43 25 -61.5 51.5t-33.5 67.5l-4 12q0 4 -4 25q-6 31 -8 45q-23 37 -37 37q-16 0 -22 -41q0 -4 6 -27q12 -51 22 -79.5t29 -69.5q41 -45 66.5 -59.5t89.5 -22.5q37 -4 71 -4q49 0 103 8q12 2 16 2q66 8 96.5 23.5t75.5 58.5q37 47 46 99.5t11 154.5v41v450 q20 -43 103 -43q63 0 143 25t127 55q8 -2 25 -8q25 -8 55.5 -19.5t71.5 -29.5l20 -16q45 -37 67.5 -58.5t45 -51.5t42 -73t42.5 -108q6 -70 6 -121q0 -74 -13.5 -122t-45.5 -99q-53 -55 -119 -83t-191 -28q-98 16 -158.5 56t-99.5 106q-12 41 -12 82q0 92 59 171t133 122 q10 8 21.5 21.5t11.5 21.5t-12 8q-16 0 -59 -19q-96 -63 -151.5 -141t-55.5 -174q0 -8 2 -14v-17q4 -61 22.5 -96t57.5 -78q23 -25 24 -26q59 -37 118.5 -53.5t147.5 -16.5q43 0 97 4q59 12 97 29.5t62 38.5q45 -41 93.5 -57.5t121.5 -16.5q51 6 87 34.5t71 88.5q0 6 25 49 q31 57 51 98l-27 37q-25 -47 -53 -106q-16 -35 -20 -37q-29 -49 -52.5 -71.5t-54.5 -35.5q-43 -16 -82 -16t-70.5 17.5t-54.5 56.5q84 117 84 266q0 70 -17.5 140.5t-47.5 135.5q-35 51 -65 86t-59.5 59.5t-62 44t-84.5 44.5q-31 12 -55 12q41 45 78 102.5t57 112.5 q31 109 31 223q0 70 -12 154l-2 8q-47 135 -96.5 188.5t-116.5 90.5q-25 12 -37 18q-143 47 -273 64q-68 0 -147 -2h-84q-78 -4 -137.5 -23.5t-65.5 -26.5q-55 -23 -94 -56.5t-98 -102.5q-35 -45 -67 -112.5t-50 -154.5q-12 -80 -12 -143zM991 1802q4 0 8 2h5h2l2 -2 q59 0 95 -3t68 -9l17 -4q57 -16 99 -32.5t83 -48.5t78 -90.5t63 -144.5q16 -53 17 -129q0 -88 -25 -170q-29 -82 -60.5 -135t-80.5 -108q-82 33 -168 33q-76 0 -130.5 -24t-68.5 -67l-2 869q0 41 -2 63zM1057 852v4q2 2 2 4t-2 4v4q0 16 39 25.5t98 9.5q68 0 121 -10 q-8 -4 -37 -13.5t-62.5 -18.5t-68.5 -15t-60 -6q-31 0 -30 12z" />
<glyph unicode="C" horiz-adv-x="1415" d="M10 1475q0 -92 33 -207q14 -49 35.5 -85t85.5 -112q16 -25 35.5 -41t38.5 -26q4 -2 4 -3h-2q-4 2 -9 3q0 -6 -2 -21q-14 -131 -14 -217q0 -106 17.5 -223t58.5 -246q33 -78 84 -148.5t112 -101.5q47 -23 78 -31t78 -14q29 -2 49 -6q135 10 195.5 29.5t120.5 62.5 q31 -47 76.5 -69.5t117.5 -22.5q51 10 87 38.5t71 88.5q0 8 26 53q33 61 50 94l-27 37q-25 -47 -57 -112q-14 -29 -17 -31q-57 -98 -108 -119q-35 -8 -62 -8q-39 0 -66.5 20.5t-58.5 65.5q47 74 61.5 121t16.5 112q-2 10 -4 35q-6 49 -15 86t-34 70q-4 4 -10 12 q-18 20 -43 36.5t-82 29.5q-20 4 -37 4q-74 0 -119 -86q6 -27 23 -27q16 0 34 31l5 2q14 12 29.5 19t39.5 7q33 0 74 -18q49 -47 67.5 -98t20.5 -148q-14 -96 -89 -167.5t-220 -84.5q-14 -6 -49 -6q-70 0 -149 26.5t-132 86.5q-63 92 -97 188.5t-52 249.5q-6 104 -7 195 q0 111 11 178q92 -39 165.5 -56.5t141.5 -17.5q57 0 127 12q70 20 127 62.5t99 94.5t69.5 103.5t42.5 94.5q41 129 41 213q0 88 -43 186q0 16 -34 62.5t-110 89.5l-30 8q-39 12 -68 18t-68 6q-33 0 -71 -6q-84 -18 -137.5 -51t-110.5 -115q-23 -29 -61.5 -111.5 t-63.5 -158.5q-2 -14 -10 -47q-16 -59 -28.5 -121.5t-24.5 -169.5q-53 51 -80 89t-70 116q-31 106 -31 186q0 53 11.5 99.5t33.5 115.5q10 37 17 56q14 14 14 51q0 29 -12 29q-20 0 -58 -82q-51 -145 -51 -258zM287 1044q8 53 14 107q12 78 21.5 125t35.5 139q12 47 28.5 85 t49.5 104q8 14 17 30q25 39 48 64.5t58 52.5q61 29 96 40t76 11q23 0 51 -4q76 -6 134.5 -49t91.5 -98q34 -106 34 -183q0 -82 -32 -182q-41 -102 -97.5 -167.5t-93.5 -88.5q-37 -31 -84 -46t-139 -23q-78 0 -162 22.5t-147 60.5z" />
<glyph unicode="D" horiz-adv-x="1378" d="M0 209q0 -80 42 -139.5t142 -69.5q4 0 15 -2h16q33 0 64.5 10t70.5 29q33 16 43 18q43 27 82 60q14 10 21 14q14 -8 41 -31q51 -43 90 -55q49 -27 68.5 -33t54.5 -10q59 0 96 10t78 29q29 12 49 18t47 6v-2q-2 0 -2 -2q0 -12 38 -30.5t118 -32.5q49 8 85.5 37.5 t71.5 89.5q0 6 25 51q31 57 49 96l-25 37q-25 -47 -57 -112q-14 -29 -16 -31q-61 -106 -107 -107q-12 0 -32.5 1t-45 6.5t-45 14.5t-30.5 25q82 123 113.5 308.5t33.5 478.5q-8 143 -36 289.5t-68 281.5q-92 195 -224.5 293t-353.5 98q-12 0 -27 -2h-28q-63 -8 -140 -45 t-150 -103.5t-120 -168.5t-47 -236q0 -4 2 -26v-27q0 -90 62.5 -147.5t140.5 -57.5q59 0 104 38t53 110v20q-2 49 -2 103q-12 8 -22 8q-16 0 -21.5 -17.5t-5.5 -44.5v-20v-8q0 -6 2 -17v-14q0 -55 -31.5 -83t-78.5 -28t-92 28t-62 73q-8 53 -8 106q0 96 26.5 174t71.5 137.5 t99.5 99.5t115.5 67q45 18 72 24t70 8h10q8 2 12 2q12 0 43 -4q10 0 25 -2q-12 -31 -17.5 -59.5t-5.5 -69.5q0 -176 2 -491q4 -270 4 -424q0 -229 -4 -404q-4 -39 -21.5 -89t-35.5 -50q-18 6 -74 53q-66 57 -121 91t-118 34q-90 0 -175 -86q-8 -12 -14 -38.5t-6 -57.5z M45 242q41 92 129 92q63 0 141 -45t154 -121q-31 -27 -61.5 -47.5t-51.5 -28.5q-70 -47 -147 -47q-72 0 -118 48.5t-46 148.5zM557 176q31 35 45 82t19 102v1317q4 41 8 65.5t12 49.5q4 -2 6 -2q27 -6 45 -8q217 -68 327.5 -293t127.5 -615v-10q-14 -266 -29.5 -400 t-55.5 -226.5t-121 -137.5t-226 -47l-27 15q-57 33 -88 55t-43 53z" />
<glyph unicode="E" horiz-adv-x="1073" d="M-6 449q33 -209 154.5 -325t291.5 -116q121 1 244 58q18 -4 45 -23q29 -16 56.5 -27.5t80.5 -19.5q51 10 87 38.5t71 88.5q0 8 27 53q33 61 49 94l-27 37q-25 -47 -57 -112q-14 -29 -17 -31q-61 -106 -106 -107q-18 -4 -43 -4q-35 0 -65.5 9.5t-51.5 33.5q27 4 52.5 32 t47 73t35 97t13.5 103q0 94 -48.5 157t-154.5 67q-68 -14 -87.5 -53.5t-19.5 -98.5q0 -82 23 -82q24 0 24 67v5v12l-2 10q0 90 74 90q57 0 117 -65q24 -65 24 -126q0 -118 -69.5 -195.5t-188.5 -100.5q-63 -20 -127 -20q-86 0 -158.5 34.5t-127 95t-84 138.5t-29.5 162 q0 106 50 206.5t153 178.5q29 14 63 43q29 23 49 30q60 -116 148 -116h2q61 0 102 65q12 23 13 58q0 49 -27 86.5t-78 37.5q-59 0 -141 -55q-35 37 -58.5 102.5t-31.5 118.5q43 -14 90 -14q39 0 102 14q16 4 21 4q106 20 171.5 125t65.5 230q0 121 -65 203q-64 38 -128 38 h-3q-66 0 -122 -38.5t-99 -110.5t-67 -168t-24 -211q-88 16 -134 79.5t-46 156.5q0 117 66 235q2 4 8 14q10 16 10 23q0 6 -4 10q-18 0 -26.5 -5t-20.5 -23q-41 -49 -64.5 -117t-23.5 -137q0 -102 51 -179t152 -102q12 -4 32 -10q12 -2 13 -2q0 -2 -8 -4 q16 -100 35.5 -154.5t58.5 -101.5q-18 -14 -66 -50q-70 -49 -111.5 -85.5t-79.5 -93t-59.5 -137.5t-21.5 -193zM283 1303q2 145 30.5 244.5t72.5 153.5t90 76.5t83 22.5q2 0 12 -2h9q61 -14 85.5 -63t24.5 -115q0 -27 -4 -57q-8 -47 -25.5 -92.5t-51.5 -85t-91 -65.5 t-139 -26q-45 0 -96 9zM403 991l41 23q9 6 27 12q6 0 14 2h13q37 0 56 -18.5t19 -46.5q0 -25 -15 -44.5t-42 -19.5q-23 0 -52.5 21.5t-60.5 70.5z" />
<glyph unicode="F" horiz-adv-x="1132" d="M74 356l18 -45q25 -63 46.5 -110t57 -91t89 -75t129.5 -41q43 2 75.5 13t63.5 30q29 23 61 76q2 4 4 6q35 -29 66 -46.5t86 -45.5q35 -16 53 -27q70 2 122 25.5t88 60.5t60.5 77t57.5 105q27 55 41 80q-10 6 -23 12q-2 2 -6 5l-22 -41l-23 -43q-72 -117 -121 -163 t-127 -69q-51 4 -82.5 19.5t-70.5 44.5q-43 31 -74 47q14 66 16 131q2 162 3 653q84 10 117.5 16.5t33.5 10.5h-2q18 0 39 -2q4 -14 6 -54q0 -27 3 -41t13 -14t27 14q0 14 -2 41q-4 47 -4 72l6 2q14 0 27.5 5t21.5 16q20 6 41 65q0 6 2 17v12q0 23 -9 36t-40 40 q-43 0 -65.5 -37t-22.5 -99l2 -14v-14q0 4 -6 4q-4 0 -33 -6q-80 -18 -158 -29q0 172 1.5 284.5t3.5 180.5t7 113t13 71q2 78 33 108t90 30q35 0 119 -13q123 -16 194 -16q82 0 154 16q150 31 217.5 48.5t67.5 25.5q0 10 -95 15q-221 -45 -391 -46q-76 0 -132 7.5t-120 19.5 q-61 12 -88 14q-23 6 -38 9t-42 6q-215 -12 -347 -102.5t-204 -285.5q-26 -89 -26 -170v-6q0 -125 53 -199.5t139 -74.5q88 0 183 82q18 27 18 41q0 12 -14 12q-10 0 -21.5 -5t-15.5 -11q-16 -27 -60.5 -50.5t-87.5 -23.5q-39 0 -71.5 22.5t-51.5 69.5q-20 74 -20 148 q0 106 42 198t114.5 159t162 103.5t179.5 36.5q41 0 80 -8q-31 -31 -50.5 -85t-30 -125t-13.5 -148.5t-3 -165.5v-105l2 -92q0 -25 -2 -47v-41q-18 -4 -47 -10q-31 -4 -65.5 -12.5t-83.5 -24.5q-8 -10 -9 -16q0 -12 33 -13q20 0 50 4.5t81 14.5q20 4 41 8q2 -205 2 -635 q-16 -137 -69 -209q-55 -45 -125 -45q-45 0 -92 21q-55 27 -116 110.5t-83 167.5q-4 18 -15.5 32.5t-19.5 14.5q-14 0 -16 -37zM897 1028q2 10 2 21q2 20 6 40.5t19 45.5q29 0 28 -33q0 -23 -10 -45l-4 -4q-25 -25 -41 -25z" />
<glyph unicode="G" horiz-adv-x="1292" d="M20 1473q0 -92 33 -205q14 -49 37 -85t86 -112q27 -25 66 -45l24 -12q0 -10 -6 -58q-18 -150 -18 -251q0 -100 14 -203t47 -205q43 -111 86 -172.5t105 -83.5q41 -23 96.5 -31t118.5 -8q80 4 129 14.5t80 22.5l8 2q-49 -68 -81 -115t-54.5 -94t-43 -99t-57.5 -157 l-16 -43q-68 -233 -68 -416q0 -174 56.5 -269t134.5 -95q84 0 147.5 108.5t63.5 300.5v891q117 0 166 24.5t83 86.5q0 4 15 29q33 66 53 118l-18 37q-18 -35 -45 -92q-25 -49 -29 -51q-31 -53 -65.5 -76t-112.5 -23q-6 0 -21 3h-26v454q0 20 -9.5 35.5t-21.5 15.5 q-20 0 -23 -47v-75v-369q-31 -25 -65.5 -37t-118.5 -27q-47 -6 -86 -6q-63 0 -121.5 20.5t-111.5 71.5q-68 94 -98.5 184.5t-45.5 196.5q-10 63 -10 158q0 76 7 152.5t20 136.5q72 -35 142.5 -49.5t133.5 -14.5t123 13q70 18 127 59t98 91t68.5 98.5t50.5 99.5 q41 127 41 211q0 88 -43 188q0 14 -35 61.5t-108 90.5q-39 18 -78 28.5t-92 10.5q-12 0 -31 -2q-23 -2 -37 -3q-59 -8 -123.5 -51t-114.5 -125q-12 -29 -26 -59q-23 -49 -39 -92t-35 -119q-14 -41 -26.5 -101.5t-45.5 -234.5q-72 49 -102.5 88t-73.5 117q-26 107 -26 189v6 q0 53 9 100t28 117l10 43q37 68 37 100q0 14 -11 14q-14 0 -35.5 -31.5t-35.5 -82.5q-53 -145 -54 -260zM330 1047q10 70 32.5 176t47.5 200q2 35 20.5 81t46.5 102q18 35 21 43l6 10q31 41 63.5 73.5t87.5 57.5q35 14 84 14q27 0 62 -4q61 -25 92 -39t53.5 -28.5t40 -33 t37.5 -50.5q33 -68 33 -156t-33 -211q-49 -96 -102.5 -155.5t-96.5 -94.5h-2q-43 -27 -85 -40t-126 -19h-22q-14 -2 -21 -2q-57 0 -113.5 16.5t-125.5 59.5zM662 -879q0 174 59 385q14 39 29.5 81t27.5 71q16 41 25 63l2 5q14 43 29.5 79.5t46.5 96.5q23 29 35.5 47t37.5 55 v-838q-6 -102 -13 -158.5t-19.5 -90t-28.5 -55t-51 -50.5q-18 -8 -37 -8q-61 0 -102 86t-41 231z" />
<glyph unicode="H" horiz-adv-x="1683" d="M-4 1214h6l4 -2q37 0 65.5 72t48 174.5t30 199.5t10.5 140q63 -43 113.5 -61.5t95.5 -18.5q35 0 68.5 10.5t80.5 28.5q61 23 96 33q-6 -27 -9 -89.5t-5 -168.5q-2 -119 -2 -381q0 -182 -2 -215q-2 -35 -6 -66v-10q-80 -53 -225 -127q-141 -70 -187 -112 q-84 -49 -129 -139.5t-45 -190.5q0 -88 35 -161t96 -107q35 -18 72 -25.5t72 -7.5q14 0 40 2h17q119 18 169 72.5t91 144.5q8 20 14 33q33 109 41 235.5t8 347.5q2 16 29 23h2q29 16 45 43q4 -16 5 -47t1 -109q0 -68 9 -100q2 0 10 2q14 2 16 2q14 0 15 -12l-3 -2v-7v308 q16 12 66 39l35 20v-45q2 -31 2 -49q0 -53 -4 -170q-2 -119 -2 -178q0 -160 19.5 -274.5t72.5 -184.5q33 -51 80 -71.5t100 -20.5q37 0 73 7t79 19q85 -24 141 -24h4q74 0 109.5 33.5t81.5 115.5q41 78 69 119q-2 35 -14 35q-8 0 -22.5 -19.5t-41.5 -62.5q-49 -80 -88 -127 t-80 -47q-31 0 -59 33q49 57 64.5 89t29.5 99q4 10 10.5 37t6.5 68q0 49 -11 98q-33 70 -68.5 111.5t-86.5 41.5q-18 0 -39 -8q-37 -8 -37 -24q0 -12 14.5 -21.5t26.5 -9.5q8 0 8 6q72 -6 106.5 -59t34.5 -135q0 -53 -14 -107.5t-42 -100.5t-65.5 -73t-80.5 -27h-13 q-8 2 -12 2q-39 -8 -74 -8q-100 0 -145 65.5t-57 168.5q-20 111 -21 325v97q2 71 2 112v189l2 2q109 109 174.5 180.5t114.5 153.5q41 37 72.5 120.5t31.5 167.5q0 80 -33.5 137.5t-109.5 77.5h-18q-10 2 -17 2q-74 0 -125 -30.5t-81.5 -78.5t-45 -99.5t-18.5 -102.5 q-4 -72 -4 -221v-133v-125q-27 -18 -44.5 -30.5t-49.5 -43.5q0 23 2 70q2 51 2 73q0 61 -7.5 101.5t-23.5 58.5q-10 -31 -13 -69.5t-3 -98.5v-88t-4 -59q-18 -27 -38 -44.5t-55 -37.5q0 27 -2 201v278q0 193 7.5 316.5t27.5 162.5q-8 12 -26 13q-18 0 -46 -11.5t-73 -33.5 q-45 -23 -72 -33t-45 -10q-12 0 -18 4q-29 -10 -54 -11q-29 0 -53.5 11.5t-58.5 31.5q-37 23 -66 35.5t-65 12.5q0 -164 -21.5 -311.5t-93.5 -334.5zM49 289q0 35 8 47q0 63 26 108t69 93q20 23 26 30q49 37 160 99q65 37 88 51q23 10 38 17t50 24q72 35 88 41 q0 -152 -3 -247t-11 -155q-27 -178 -103.5 -269t-193.5 -91q-53 0 -117 20q-66 37 -95.5 103.5t-29.5 128.5zM942 1323q0 119 9.5 202t33 145.5t68.5 96t118 33.5q4 0 13 -2h14q96 -66 96 -178q0 -59 -26.5 -128t-74.5 -139.5t-111.5 -141t-135.5 -134.5q0 47 -2 131 q-2 72 -2 115z" />
<glyph unicode="I" horiz-adv-x="950" d="M-4 1214q8 -4 16 -4q35 0 60.5 55.5t44 139.5t29 160.5t20.5 167.5q6 45 6 51q59 -39 107.5 -54.5t93.5 -15.5q39 0 112 19q70 16 113 20q-6 -195 -6 -371q0 -119 4 -297q2 -201 2 -323v-164q-2 -76 -2 -104q0 -18 2 -54v-57q0 -72 -16.5 -131t-55.5 -104.5t-103.5 -70 t-156.5 -24.5q-47 0 -104 6q-51 20 -73.5 54t-43.5 92q4 29 6 49q2 12 2 18v7q-2 8 -2 14q-6 8 -14 8q-25 0 -33 -51q0 -6 -2 -14v-17q0 -25 8 -63q20 -68 49 -93.5t68 -42.5q8 -2 16 -6q53 -14 125 -14q29 0 49 -2h17q68 8 119 30.5t92 55.5q29 -51 62.5 -64.5t115.5 -19.5 l18 -2q51 8 87 36.5t71 88.5q0 6 25 49q31 57 51 98l-27 37q-25 -47 -53 -106q-16 -35 -21 -37q-35 -59 -54 -84t-50 -41h-22q-20 -2 -33 -2q-45 0 -78 18.5t-49 69.5q14 16 24.5 39.5t30.5 75.5l6 18q6 94 8 313q0 119 2 197q-2 72 -2 143q0 29 2 72v90v189q-2 131 -2 196 q0 162 6.5 260.5t24.5 132.5q-8 12 -26 13q-18 0 -46 -11.5t-73 -33.5q-45 -23 -72 -33t-45 -10q-12 0 -18 4q-29 -10 -54 -11q-29 0 -53.5 11.5t-58.5 31.5q-37 23 -66 35.5t-65 12.5q0 -164 -21.5 -311.5t-93.5 -334.5z" />
<glyph unicode="J" horiz-adv-x="872" d="M-4 1214q8 -4 16 -4q33 0 57.5 49.5t43 126t30 149.5t23.5 167q8 68 10 78q55 -35 100.5 -50.5t85.5 -15.5q49 0 144 35q66 23 108 33q-8 -129 -12 -252t-4 -287q0 -115 2 -356q2 -494 2 -799q-55 -37 -94 -75t-65.5 -75.5t-47 -78.5t-51.5 -111q-35 -80 -63 -141 q-74 -252 -74 -447q0 -188 64.5 -288.5t154.5 -100.5q94 0 166 103.5t72 279.5v871q63 18 101 48.5t75 90.5q0 6 16 39q31 61 49 108l-16 37q-25 -47 -58 -112q-14 -29 -16 -31q-33 -57 -64.5 -83t-86.5 -28v473q0 170 -5 496q-4 250 -4 364q0 178 7.5 284t25.5 140 q-8 12 -26 13q-18 0 -46 -11.5t-73 -33.5q-45 -23 -72 -33t-45 -10q-12 0 -18 4q-20 -6 -41 -6q-39 0 -77 17t-87 48q-55 35 -74 35q-12 0 -18 -14q0 -164 -21.5 -311.5t-93.5 -334.5zM264 -827q0 162 47 370q10 31 25.5 66t54.5 110q6 20 22.5 55.5t41.5 80.5q20 37 24 47 q6 8 13 14q31 41 57 67.5t53 34.5v-868q0 -145 -45 -220t-119 -95h-8q-4 -2 -8 -2q-68 0 -113 88t-45 252z" />
<glyph unicode="K" horiz-adv-x="1808" d="M-4 1214q8 -4 16 -4q37 0 64.5 61.5t45 151.5t27 168t17.5 160q0 10 2 23q57 -33 102 -47.5t86 -14.5q53 0 148 35q70 25 108 33q-4 -291 -4 -518t4 -471v-62q-2 -37 -2 -53q0 -37 2 -92v-66q0 -66 -6 -104q0 -4 2 -23v-22q0 -143 -85 -227.5t-251 -84.5q-47 0 -100 9 q-106 25 -119 131q0 14 2 49q2 18 2 26q0 23 -10 27q-4 6 -12 6q-20 0 -31 -55q0 -25 1 -44.5t5 -49.5q20 -68 49 -93.5t68 -42.5q8 -2 16 -6q53 -14 125 -14q29 0 49 -2h17q76 10 122 30.5t89 55.5q10 0 43 41q41 47 55 100q6 51 9 105.5t5 128.5q2 117 2 413q4 -27 33 -41 t68 -14q35 0 65.5 11.5t46.5 31.5q39 -53 55.5 -91t30.5 -87q-4 -57 -14 -139q-8 -47 -11 -86t-3 -90q4 -57 9 -83t11 -53q0 -4 4 -18q8 -20 13 -31q29 -74 47 -102.5t69 -75.5q70 -29 127 -29q41 0 125 19q76 25 113 65q33 -33 62.5 -45t91.5 -18q51 10 86.5 38.5 t70.5 88.5q0 6 25 49q31 57 51 98l-27 37q-25 -47 -53 -106q-16 -35 -20 -37q-61 -106 -107 -107q-31 -8 -49 -8q-47 0 -98 55q31 55 47 152q0 49 -3 84t-12 86q-16 82 -58 130t-120 65q-51 0 -82.5 -25t-54.5 -96q-18 -43 -18 -64q0 -14 8 -14q10 0 21.5 16.5t15.5 38.5 q20 55 40.5 73.5t49.5 18.5l16 -2h17q39 -6 75.5 -56t55.5 -122q8 -55 8 -96q0 -72 -25.5 -130.5t-87.5 -96.5q-104 -29 -155 -29q-45 0 -86 18q-37 10 -76 63.5t-58 129.5q-8 74 -8 155q0 74 8 191q6 72 7 96v21q-2 8 -2 14q-29 78 -49.5 117t-51.5 69q41 55 57.5 89 t22.5 83q12 63 12 125q0 43 -8 121q-6 78 -6 119v29q2 16 2 30q16 88 45 156t94 117q47 22 93 22h4q31 0 92 -14q23 -4 37 -8q70 -27 102.5 -108t32.5 -173q0 -35 -4 -65q-39 -82 -66 -119t-59 -37q-41 16 -62 16q-16 0 -16 -10q0 -12 19.5 -26.5t43.5 -18.5q10 -4 25 -4 q43 0 85 51t58 115q23 92 23 139v16q-2 14 -2 19q-20 111 -61.5 172t-131.5 90q-84 18 -125 18q-57 0 -127 -28q-53 -47 -70.5 -77t-43.5 -99l-11 -29q0 -14 -8 -41q-8 -29 -12 -54.5t-8 -64.5q-4 -29 -4 -63q0 -39 8 -115q10 -68 10 -98q0 -31 -6 -53q0 -35 -20.5 -83.5 t-45.5 -76.5q-18 23 -49.5 36t-64.5 13q-35 0 -62.5 -15.5t-42.5 -48.5q4 104 4 408q0 213 5.5 329.5t25.5 155.5q-8 12 -26 13q-18 0 -46 -11.5t-73 -33.5q-45 -23 -72 -33t-45 -10q-12 0 -18 4q-29 -10 -54 -11q-29 0 -53.5 11.5t-58.5 31.5q-37 23 -66 35.5t-65 12.5 q0 -164 -21.5 -311.5t-93.5 -334.5zM659 920q20 16 49 27t58 11q61 0 84 -47q2 0 2 -2q0 -6 -36 -23.5t-71 -17.5q-59 0 -86 52z" />
<glyph unicode="L" horiz-adv-x="1529" d="M2 213q0 -31 12.5 -67.5t38.5 -71.5q39 -35 108.5 -54.5t121.5 -19.5q55 0 114 14q31 12 61.5 33t41.5 45q16 31 21 47.5t7 44.5q53 -29 129 -75q55 -33 86 -49.5t72 -36.5q10 -2 27 -7q37 -10 67.5 -16t77.5 -6q4 2 23 4q37 0 71.5 10t75.5 43q23 -29 61.5 -41t84.5 -12 l14 2h12q49 6 84 34.5t70 88.5q0 8 26 53q33 61 50 94l-27 37q-25 -47 -57 -112q-14 -29 -17 -31q-33 -57 -53.5 -83t-48.5 -38q-27 -8 -51 -8q-66 0 -121 43q29 43 43 83t22 101q0 111 -12 155t-53 107q-92 104 -191 105q-109 0 -168 -117q-14 -35 -14 -59q0 -25 14 -25 t23 21q23 59 61.5 92.5t108.5 33.5q80 -27 113.5 -64.5t60.5 -100.5l4 -9q8 -39 8 -77q0 -57 -22 -156q-43 -66 -72 -86.5t-98 -26.5q-31 -6 -54 -6q-35 0 -94 14q-31 8 -79 36t-140 85q-84 53 -117 72l2 625q2 25 2 45h5q80 -10 118 -11q35 0 56 7q63 16 114.5 51t90 80 t64.5 86t56 96q8 16 19 35q41 129 41 213q0 88 -43 186q0 14 -32 63.5t-99 94.5q-47 24 -110 24h-5q-33 0 -66 -6q-66 -20 -102.5 -55t-77.5 -113q-25 -72 -40 -122t-34 -140q-6 -31 -9 -63.5t-5 -77.5q-2 -61 -2 -279q-78 6 -141.5 37t-110.5 74t-77.5 86t-55.5 86 q-35 111 -35 195q0 49 9.5 91t29.5 113q10 33 16 56q2 0 13.5 46t11.5 66q0 10 -4 10q-6 0 -21.5 -28.5t-44.5 -93.5q-51 -145 -51 -258q0 -92 33 -207q14 -49 35.5 -85t85.5 -112q29 -43 109.5 -80t170.5 -51q8 -4 29 -4l-2 -655q-80 47 -143.5 72.5t-120.5 25.5 t-106.5 -30t-90.5 -95q-8 -12 -8 -41zM55 209q4 39 51.5 70.5t116.5 31.5q55 0 116 -22.5t124 -73.5q12 -4 12 -33q-6 -66 -63.5 -97.5t-130.5 -31.5q-94 6 -158 49t-68 107zM530 1028q0 166 2.5 232.5t12.5 134.5q12 68 35 147q8 27 12 45q4 8 12 33q23 66 51 102 q43 39 74 50.5t76 15.5q25 0 35 2q61 -14 86.5 -34.5t54.5 -67.5q16 -27 23 -35q38 -108 38 -183q0 -88 -38 -186q-43 -96 -92.5 -157.5t-90.5 -92.5q-29 -27 -87 -47t-120 -20q-43 0 -82 12v16q-2 10 -2 33z" />
<glyph unicode="M" horiz-adv-x="2529" d="M2 197q0 -20 5 -42t20 -55q51 -66 149 -86q33 -6 55 -6q53 0 104.5 39t102.5 143q51 168 92 331t79 347.5t75 400.5t82 517q16 27 31 26q27 0 30 -81l125 -1604q2 -10 4 -14q6 -37 21.5 -61.5t58.5 -47.5q29 -4 47 -4q45 0 84 35q27 51 34 79.5t7 37.5q20 127 53 349 t62 436t58.5 443.5t50.5 401.5q20 33 36 33t25.5 -32t9.5 -75q0 -360 12.5 -609t38 -421t66.5 -295t102 -233q63 -76 133 -111t123 -35h19q59 2 105 12.5t89 49.5q27 -27 47.5 -37.5t59.5 -22.5q10 -2 24 -6q51 10 87 39t71 88q0 6 25 49q31 57 51 98l-27 37 q-25 -47 -53 -106q-16 -35 -20 -37q-57 -102 -117 -117q-33 0 -60.5 12.5t-50.5 40.5q25 43 40.5 103.5t15.5 124.5q0 47 -11 88q-14 63 -55 122.5t-100 82.5q-39 16 -74 16q-104 0 -152 -164q10 -37 23 -37q10 0 29 49q12 31 18 41q18 33 43 45.5t49 12.5q16 0 35 -4l4 -2 q49 -35 81 -73t44 -89t12 -105q0 -84 -30 -153q-23 -45 -52.5 -66.5t-93.5 -32.5q-27 -4 -53 -4q-72 0 -133.5 35t-116.5 117q-66 123 -103.5 277.5t-55 319.5t-21 309.5t-6.5 352.5q0 158 -2 232q-2 35 -8.5 69.5t-18.5 57.5q-20 31 -57 31h-15q-12 -2 -18 -2 q-33 -12 -46.5 -29t-27.5 -66q-18 -135 -30.5 -232t-26.5 -202q-39 -307 -72 -555t-84 -606q-33 -106 -78 -107q-39 0 -73 84l-125 1586q-2 41 -9.5 67.5t-29.5 59.5q-20 12 -49 12q-27 0 -49.5 -16.5t-30.5 -53.5q-10 -63 -33 -203q-68 -428 -130.5 -742t-162.5 -654 q-29 -61 -72 -100.5t-94 -39.5q-20 0 -41 7q-70 20 -99.5 55t-29.5 82q0 18 4 39q6 8 6 20q0 20 -9 39t-19 19q-12 0 -23 -29q-2 -14 -6 -37q-4 -43 -4 -59z" />
<glyph unicode="N" horiz-adv-x="1955" d="M2 197q0 -20 5 -42t20 -55q51 -66 149 -86q33 -6 55 -6q53 0 104.5 39t102.5 143q51 168 92 331t79 347.5t75 400.5t82 517q12 27 29 26q27 0 32 -81l125 -1604q10 -45 26.5 -78t51.5 -47q6 0 25 -2q10 -2 18 -2q29 0 49.5 12.5t40.5 42.5q20 53 27 92q6 31 12 72 q8 -8 31 -35q35 -39 54.5 -59.5t43 -37.5t58 -33.5t90.5 -37.5q90 -22 165 -22h7q51 0 100 10q47 4 82 32.5t72 88.5q0 6 24 51q31 57 49 96l-24 37q-25 -47 -58 -112q-14 -29 -16 -31q-29 -49 -54.5 -73.5t-51.5 -33.5q-59 -18 -123 -18q-82 0 -191 35q-41 18 -69.5 33.5 t-55 37t-55.5 50t-70 77.5q23 117 64 416q25 180 44 304t42.5 245t52.5 218t64 155q37 90 93 141t118 55q70 -2 122 -38.5t66 -75.5q29 -61 29 -150q0 -66 -17 -117q-25 -57 -49 -86.5t-76 -60.5q-4 0 -12 -2q-10 -2 -16 -2q-31 0 -62 14.5t-53 44.5q-14 82 -39 82 q-14 0 -22 -35q25 -86 59.5 -119.5t97.5 -33.5q29 0 68 6q57 23 98 82t57 123q12 53 13 112q0 61 -14.5 115.5t-43.5 87.5q-2 6 -9 18.5t-27 20.5q-39 35 -85.5 49t-89.5 14h-22q-10 -2 -16 -2q-53 -10 -103.5 -59t-89.5 -129q-43 -84 -73.5 -175t-55.5 -203.5t-44 -232.5 t-56 -366q-45 -309 -78 -514q-16 -125 -72 -125q-45 0 -63 86l-138 1608q-2 43 -11 66.5t-25 43.5q-16 16 -45 17q-25 0 -46.5 -16.5t-29.5 -53.5q-10 -63 -33 -203q-68 -428 -130.5 -742t-162.5 -654q-29 -63 -72 -102.5t-92 -39.5q-23 0 -43 9q-70 20 -99.5 56t-29.5 83 q0 20 4 43q10 12 11 35q0 43 -21 43q-16 0 -35 -35q-2 -14 -6 -37q-4 -43 -4 -59z" />
<glyph unicode="O" horiz-adv-x="1323" d="M4 629q6 -55 13.5 -97.5t20.5 -84t34.5 -89t54.5 -108.5q4 -6 20 -31q37 -53 58.5 -77.5t79.5 -78.5q33 -33 68.5 -44t115.5 -23l37 -6q121 4 193.5 19.5t142.5 60.5q53 -49 105 -61.5t165 -12.5q51 10 87 38.5t71 88.5q0 8 26 53q33 61 50 94l-27 37q-25 -47 -57 -112 q-14 -29 -17 -31q-31 -55 -56.5 -81t-62.5 -38q-49 -12 -90 -12q-45 0 -82.5 15t-64.5 54q33 33 57.5 65t44 65.5t39 78.5t45.5 111q35 115 56.5 250t23.5 200q0 20 2 48v41q0 86 -9 158.5t-28 164.5q-14 80 -20 113q-84 260 -219 375q-35 18 -54.5 27t-48 19.5t-64.5 18.5 t-98 21q-113 -18 -179 -62.5t-122 -175.5q-27 -70 -43 -152t-16 -182q0 -45 4 -90q6 -70 28.5 -133.5t65.5 -108.5q33 -35 67 -55t77 -20q66 0 149 51q2 2 15 20q43 61 61 103.5t18 111.5q0 33 -4 70q-12 4 -20 4q-25 0 -25 -35q0 -10 2 -28q2 -20 2 -31q-10 -90 -51 -147.5 t-119 -71.5h-8h-8q-74 0 -133.5 78.5t-73.5 232.5q0 119 16.5 204t40.5 158l5 15q78 188 241 188q111 0 254 -86q72 -55 135.5 -202.5t96.5 -376.5q10 -92 10 -189q0 -154 -27.5 -311.5t-87.5 -304.5q-29 -55 -60.5 -101.5t-76.5 -85.5t-106.5 -64.5t-141.5 -31.5l-27 2 q-90 4 -131 9.5t-72.5 19.5t-63.5 44t-89 95q-59 82 -99 166t-57 193q-10 61 -10 135q0 78 9.5 156.5t27.5 183.5q20 115 22 147q0 27 -10 35q-12 -8 -26.5 -49t-25.5 -97.5t-18 -94.5t-14 -81v-8q-8 -78 -11 -133t-3 -143z" />
<glyph unicode="P" horiz-adv-x="1611" d="M283 1243q0 -49 6 -83t14 -56q27 -72 61.5 -113t79.5 -51q37 -4 70 -4q74 0 112 21.5t72 66.5q27 109 27 197q0 61 -14 163q-2 0 -9 2q-12 6 -20 7q-12 0 -23 -11q18 -109 19 -168q0 -53 -10 -118q-14 -51 -33 -74t-66 -39q-61 0 -89.5 5t-67.5 26v2q-27 35 -40.5 58.5 t-27.5 70.5q-12 68 -12 123q0 66 16 121q41 174 123 262q2 2 29 28q37 37 60.5 55.5t66.5 37.5l4 2q33 14 66.5 22t105.5 12q25 4 55 4h29q16 -2 22 -2t13 2h10v-2h2l2 2q4 0 4 -14t-4 -49v-1380q0 -137 -14.5 -196.5t-63.5 -86.5q-14 -16 -75.5 -30.5t-135.5 -14.5 q-80 0 -141 18q-39 25 -53.5 50.5t-22.5 70.5q-4 20 -6 29v12q2 6 2 12q0 41 -18 43q-16 8 -23 9q-14 0 -16 -27q0 -49 12 -100.5t33 -85.5q39 -37 65.5 -49.5t87.5 -24.5l15 -2q37 -4 69 -4q47 0 101 8q12 2 16 2q66 8 96.5 23.5t75.5 58.5q76 -45 123 -60.5t137 -19.5 q78 -6 209 -6q53 8 86 35.5t68 89.5q0 6 24 49q31 57 51 98l-26 37q-25 -47 -53 -106q-16 -35 -21 -37q-59 -102 -108 -113q-68 -8 -105 -8q-35 0 -125 8q-78 8 -125 20.5t-108 53.5q18 37 23 86t5 162v1368q0 6 2 24q0 18 1 30.5t6 12.5q63 0 99 -4t71 -14q123 -47 176 -88 q41 -31 69.5 -75t42.5 -107q6 -37 6 -60q0 -33 -9 -61.5t-32 -67.5q-12 -16 -39.5 -27.5t-58.5 -11.5q-55 0 -96 35q-6 20 -27 21q-31 0 -30 -27q0 -29 49 -55q61 -29 114 -29h17q10 2 16 2q41 10 61.5 26.5t39.5 39.5q8 12 14 18q18 33 24.5 57.5t6.5 59.5q0 8 -2 28v41 q-18 74 -45 125.5t-54.5 81t-52.5 45t-51 27.5q-8 2 -10 4q-72 33 -125.5 49.5t-139.5 22.5q-68 0 -147 -2h-84q-78 -4 -137.5 -23.5t-65.5 -26.5q-55 -23 -94 -56.5t-98 -102.5q-35 -45 -67 -112.5t-50 -154.5q-12 -80 -12 -143z" />
<glyph unicode="Q" horiz-adv-x="1503" d="M0 741q0 -45 4 -112q6 -55 13.5 -97.5t20.5 -84t34.5 -89t54.5 -108.5q4 -6 20 -31q37 -53 58.5 -77.5t79.5 -78.5q33 -33 68.5 -44t115.5 -23l37 -6q121 4 193.5 19.5t142.5 60.5q0 4 20 14q20 12 27 18q33 33 56.5 64t43.5 67q35 61 80 191q41 168 51 231v-1814 q10 -76 35 -76q23 0 29 70v1157q74 6 94 6q6 0 12 -2h8q51 10 86 38.5t70 88.5q0 4 19 39q35 61 57 108l-27 37q-18 -35 -45 -92q-25 -49 -28 -51q-61 -106 -107 -107q-4 0 -8 -2q-20 -6 -49 -10t-88 -4v1771q-10 49 -29 50q-20 0 -31 -54v-505q-2 14 -4 24q-6 49 -14 70 q-39 92 -66.5 151.5t-51.5 96t-48.5 63.5t-59.5 59q-31 20 -51 30.5t-45.5 20t-61.5 18.5t-100 22q-113 -18 -179 -62.5t-122 -175.5q-20 -49 -38.5 -145.5t-18.5 -202.5v-37q2 -31 2 -39q6 -70 28.5 -133.5t65.5 -108.5q33 -35 67 -55t77 -20q66 0 149 51q47 41 70.5 94 t23.5 135q0 37 -4 76q-12 4 -20 4q-25 0 -25 -35q0 -10 2 -28q2 -20 2 -31q-10 -88 -50 -142.5t-122 -74.5q-80 0 -142.5 76.5t-72.5 236.5q0 135 20.5 230.5t41.5 148.5q39 86 95 130t140 44q104 0 258 -76q45 -53 79 -105t60.5 -116.5t48 -152t40.5 -207.5q10 -80 10 -154 q0 -125 -27.5 -265t-91.5 -372q-43 -74 -74.5 -121t-72.5 -84t-98.5 -60.5t-135.5 -31.5l-27 2q-90 4 -131 9.5t-72.5 19.5t-63.5 44t-89 95q-49 68 -86 153t-70 206q-8 45 -8 106q0 72 9.5 150.5t25.5 183.5q20 137 21 178q0 31 -9 39q-23 -12 -36 -66.5t-35 -179.5 q-8 -55 -13 -76q-10 -51 -14 -86.5t-4 -85.5z" />
<glyph unicode="R" horiz-adv-x="2408" d="M283 1243q0 -49 6 -83t14 -56q27 -72 61.5 -113t79.5 -51q37 -4 70 -4q74 0 112 21.5t72 66.5q31 98 31 176q0 39 -7 78t-22 104q0 4 -9 13.5t-19 9.5q-14 0 -25 -25q16 -61 23.5 -100t7.5 -74q0 -41 -10 -119q-14 -47 -37 -70.5t-53 -27.5q-39 -8 -64 -8t-46.5 8 t-57.5 29q-25 29 -37.5 52.5t-30.5 76.5q-8 51 -8 100q0 68 14 142q16 82 46 140t77 122q45 51 73.5 73.5t80.5 44.5q35 16 85 28.5t91 12.5q25 4 55.5 5.5t99.5 1.5q-4 -16 -6 -35t-4 -39l-80 -1362q0 -57 -14 -147.5t-39 -143.5q-14 -20 -54 -33.5t-104 -13.5 q-63 0 -143 16q-33 25 -50.5 50.5t-35.5 68.5q-6 25 -14 66q-2 23 -4 26q-8 29 -25 29q-14 0 -18 -25v-12q-2 -10 -3 -10q0 -37 12.5 -68.5t37.5 -85.5q4 -6 10 -20q41 -45 66.5 -59.5t89.5 -22.5q37 -4 71 -4q49 0 103 8q12 2 16 2q41 10 55.5 21.5t34.5 46.5 q18 33 27.5 79t29.5 193l27 483q23 -29 60.5 -42t87.5 -13q72 0 150.5 24.5t119.5 53.5q10 -6 12 -8q43 -29 78 -60q72 -88 110.5 -200.5t38.5 -255.5q0 -68 -8 -138q6 -68 38 -114.5t95 -61.5q49 -8 103 -8q51 0 97 9.5t79 27.5q88 -39 145 -39q25 0 56 6q49 2 84.5 29.5 t70.5 87.5q0 8 27 53q33 61 49 94l-27 37q-25 -47 -57 -112q-14 -29 -16 -31q-57 -100 -109 -113q-41 -4 -67 -4q-76 0 -113 31q33 45 53.5 100t20.5 129q0 6 -2 21v20q-12 135 -51 192.5t-132 90.5h-16l-14 2q-53 0 -82 -23q-12 -8 -25.5 -28.5t-13.5 -38.5q0 -16 12 -27 q18 0 31 27q6 16 15 26.5t26 18.5q16 6 33 6q16 0 32 -4q66 -25 98.5 -77t45.5 -157v-18q2 -14 2 -21q0 -92 -37 -165.5t-98 -94.5q-82 -12 -117 -12q-43 0 -103 12q-45 29 -60 53.5t-19 75.5q0 33 2 74v64q0 98 -11.5 176t-44.5 162q-41 66 -71.5 105.5t-61.5 70.5l-6 6 q-10 10 -20.5 19t-28.5 22q55 61 89 116.5t52 116.5q31 109 31 223q0 70 -12 154l-2 8q-47 135 -96.5 188.5t-116.5 90.5q-25 12 -37 18q-76 31 -137.5 45.5t-135.5 18.5q-68 0 -147 -2h-84q-78 -4 -137.5 -23.5t-65.5 -26.5q-55 -23 -94 -56.5t-98 -102.5 q-35 -45 -67 -112.5t-50 -154.5q-12 -80 -12 -143zM942 874l45 865v8q2 31 6 50.5t15 19.5q57 -2 133 -17q43 -6 45 -6q4 -2 14 -4q55 -20 93 -37.5t80 -48.5t78 -79t60 -120q18 -80 19 -157q0 -84 -23 -189q-12 -45 -56 -116.5t-87 -112.5q-94 35 -190 35q-74 0 -134.5 -23 t-97.5 -68zM999 840q18 35 72.5 51t122.5 16t115 -14q-10 -20 -88 -44t-146 -24q-49 0 -76 15z" />
<glyph unicode="S" horiz-adv-x="1136" d="M10 334l2 -17q6 -66 18.5 -105.5t53.5 -105.5q70 -61 114 -83.5t85 -22.5q59 0 112 23q43 14 109 145q14 -12 31 -33q25 -27 43 -39q33 -45 85 -68.5t148 -27.5q135 12 188.5 41t90.5 92q0 8 26 53q33 61 49 95l-26 36q-25 -47 -58 -112q-14 -29 -16 -31q-33 -59 -81 -87 t-175 -50q-78 6 -117 23.5t-80 72.5l-6 8q-37 37 -78 84q-16 10 -16 72v649q45 -10 73.5 -14t57.5 -4q12 0 29 2h39q70 16 127 56t98 90t67.5 97.5t51.5 96.5q41 129 41 213q0 88 -43 186q0 14 -32 63.5t-99 94.5q-47 24 -110 24h-5q-33 0 -66 -6q-68 -20 -103.5 -56 t-72.5 -114q-27 -66 -43 -118t-35 -142l-4 -33q-10 -76 -14 -145.5t-6 -224.5q-76 0 -138.5 23.5t-107.5 62.5t-75.5 84t-47.5 90q-39 104 -39 198q0 125 68 252q14 20 23.5 50t9.5 53q0 29 -13 28q-12 0 -32.5 -28.5t-49.5 -91.5q-51 -145 -51 -258q0 -92 33 -207 q14 -49 35.5 -85t85.5 -112q29 -45 115 -80t186 -45v-649q0 -76 -12 -104q-37 -72 -70 -108t-92 -36h-8h-11q-80 18 -142 90t-62 162q0 25 -14.5 54.5t-26.5 29.5q-16 0 -17 -51zM514 995v95v36q2 43 4 88.5t10 116.5q4 55 16.5 117.5t39.5 132.5q6 16 16 45 q10 31 21.5 56.5t29.5 54.5q51 39 89 54t77 15q8 0 14 -2h15q59 -23 94 -54.5t70 -88.5q37 -86 37 -168q0 -92 -48 -221q-35 -86 -89 -149.5t-95 -88.5q-18 -20 -72.5 -35.5t-119.5 -15.5q-57 0 -109 12z" />
<glyph unicode="T" horiz-adv-x="1409" d="M-334 1380q0 -80 15 -178q4 -41 27.5 -96t58 -108.5t78.5 -90.5t89 -43q81 -30 173 -30h6q74 0 131 22q-10 -92 -11 -178q0 -92 13.5 -188.5t44.5 -192.5l14 -25q55 -104 90 -152t86 -79q63 -31 104.5 -38t106.5 -7q143 10 201.5 28.5t114.5 63.5q31 -47 76.5 -69.5 t117.5 -22.5q51 10 87 38.5t71 88.5q0 8 26 53q33 61 50 94l-27 37q-25 -47 -57 -112q-14 -29 -17 -31q-57 -98 -108 -119q-35 -8 -62 -8q-39 0 -64.5 19.5t-49.5 64.5q35 68 45 107.5t16 101.5l2 20q-4 49 -15.5 97.5t-37.5 95.5l-6 8q-14 27 -39 44t-86 30q-20 4 -37 4 q-74 0 -119 -86q-14 -43 -14 -66t12 -22q12 0 27.5 19.5t21.5 39.5q10 29 27.5 46.5t48.5 17.5q35 0 90 -27q45 -29 59.5 -86t16.5 -158q-4 -16 -6 -22q-10 -49 -22.5 -80t-42 -62.5t-85 -55.5t-143.5 -36q-12 0 -43 -2h-37q-80 0 -132 20.5t-106 75.5q-76 86 -102.5 175.5 t-44.5 232.5l-4 39v33q-2 33 -2 57q0 88 10 180q86 18 139.5 42t90 57.5t64 86t58.5 138.5q8 31 9 47q0 16 -11 16q-10 0 -27.5 -21.5t-23.5 -39.5q-29 -119 -101.5 -183.5t-195.5 -95.5q6 29 8 74q2 10 2 18q4 29 9 60q10 86 24 167t41 169q6 16 14 43q6 31 17.5 65.5 t34.5 83.5q92 -76 184 -109.5t178 -33.5q82 0 142.5 25.5t66.5 50.5q27 55 27 108q0 23 -4 47q-2 6 -7 15q-12 33 -37.5 61.5t-95.5 67.5q-8 2 -30 8q-39 12 -70 18t-72 6q-33 0 -67 -4q-86 -23 -136.5 -55.5t-99.5 -114.5q-51 49 -83 77t-62.5 45.5t-67.5 28.5t-100 23 q-141 0 -231.5 -59t-161.5 -170l-4 -8q-25 -39 -41.5 -91t-16.5 -145zM-287 1386q0 80 18.5 133.5t65.5 127.5q8 6 33 28q59 57 116.5 92t133.5 35h18q16 -2 21 -2q106 -14 163.5 -60t120.5 -132q-18 -37 -33.5 -79t-35.5 -120q-12 -39 -23.5 -92t-27.5 -150 q-14 -96 -19.5 -131t-5.5 -37q0 -31 -8 -94q-59 -18 -127 -18q-78 0 -189 26q-76 49 -121.5 110.5t-88.5 213.5q-10 90 -11 149zM485 1649q12 27 40 62.5t63 53.5q8 2 33 13q73 26 117 26h3q29 0 56 -8q74 -14 127 -42t69 -60q10 -31 11 -62q0 -55 -29 -92 q-20 -14 -57 -27.5t-89 -13.5q-72 0 -158 34t-186 116z" />
<glyph unicode="U" horiz-adv-x="2209" d="M8 1264q6 -55 15.5 -103.5t27 -93.5t48 -78t75.5 -47h6l10 2q2 0 29 -2q25 -2 43 -2q39 0 73 8t63.5 32t48 70t18.5 119h-47q-10 -100 -42 -137t-85 -37q-23 0 -70 9q-18 2 -31 4q-37 8 -59 34.5t-34.5 61.5t-17.5 68.5t-9 78.5q0 117 30.5 218.5t59.5 146.5 q59 88 182 139q51 23 102.5 33t92.5 10q154 -10 220 -97t66 -257v-1165q10 -123 85 -186.5t184 -82.5q62 -12 123.5 -12t121.5 12q49 8 114 49t120 97q29 -66 55.5 -91.5t81.5 -46.5q55 -10 115.5 -13t177.5 -3q8 0 30.5 5t56.5 29.5t73.5 82t70.5 151.5l-24 37 q-37 -88 -72 -141t-64.5 -78t-53 -31t-50.5 -6h-37q-20 -2 -30 -2q-172 0 -230.5 56.5t-68.5 195.5l-7 1548l-53 13v-1565q-10 -63 -41 -110.5t-70.5 -76t-77.5 -41t-65 -12.5q-12 0 -35 -2h-30q-100 0 -167 21.5t-102.5 54.5t-50 61.5t-22.5 61.5q-2 2 -2 4v1202 q0 137 -39 221t-96.5 122t-108.5 47.5t-98 9.5q-125 0 -221.5 -41t-186.5 -150q-4 -6 -16 -29q-41 -70 -68 -150.5t-37 -225.5z" />
<glyph unicode="V" horiz-adv-x="2203" d="M8 1264q4 -123 42 -209t124 -113q2 0 8 -2q45 -8 80 -8q37 0 72 10t64.5 36t48 73t18.5 118l-35 -6q-10 -96 -55 -136t-105 -40q-45 0 -84 17q-63 25 -93 89t-30 140q0 127 28 219t69 170q39 57 90 94t104.5 56.5t98.5 26.5t90 11q135 -18 207.5 -108t72.5 -258v-1165 q10 -123 85 -186.5t184 -82.5q62 -12 123.5 -12t121.5 12q53 8 114.5 52t100.5 102q31 -53 58.5 -79t68.5 -48q20 -12 29 -19q55 -10 115.5 -13t177.5 -3q8 0 30.5 5t56.5 29.5t74 82t70 151.5l-24 37q-35 -84 -66 -135t-53.5 -75.5t-35.5 -31t-23 -8.5h-2q-66 -10 -123 -10 q-96 0 -164 25.5t-108 63.5t-58.5 77t-22.5 72q23 195 23 389q0 371 -75 676t-200 467q20 -20 68.5 -55.5t121.5 -73t160 -63.5t175 -26q94 0 184 34t172 110q68 78 68 106q0 6 -6 6q-20 0 -70 -59q-90 -76 -181 -108.5t-180 -32.5q-76 0 -148.5 20.5t-133 52t-104.5 62.5 t-83 63q-4 10 -26 11q-25 0 -45.5 -13.5t-20.5 -38.5q0 -23 23 -51q61 -86 109.5 -207.5t81 -270t48 -312.5t15.5 -334q0 -174 -17 -342q-4 -59 -23.5 -101t-44 -68t-47 -38t-50.5 -25q-8 -4 -15 -6q-72 -8 -131 -9q-88 0 -146.5 18t-92 44.5t-48 53t-26.5 61.5q-6 14 -8 21 v1200q0 139 -40 225t-97.5 126t-109.5 51.5t-95 11.5q-125 0 -221.5 -41t-186.5 -150q-4 -6 -16 -29q-41 -70 -68 -150.5t-37 -225.5z" />
<glyph unicode="W" horiz-adv-x="2873" d="M6 1264q6 -55 15.5 -103.5t28 -93.5t48 -78t74.5 -47h6l10 2q10 0 29 -2q31 -2 43 -2q41 0 75 8t62.5 32t47 71t18.5 118l-41 7q0 -109 -37 -146t-98 -37h-41q-23 2 -31 2h-14q-6 -2 -11 -2q-66 43 -87 90t-29 113q-6 45 -15 61q10 162 38 242t67 135q82 92 181 134 t185 42q147 -37 221 -113.5t74 -209.5q0 -8 -2 -21v-22v-1165q0 -49 12.5 -94.5t48.5 -85.5t106.5 -66.5t178.5 -28.5q86 2 138.5 12.5t84 28.5t51 46t44.5 77l20 -21q51 -49 81 -72.5t72 -39t107.5 -23.5t176.5 -12q10 0 35.5 5t65.5 21.5t84 48t77 83.5q41 -63 72.5 -89 t86.5 -51q55 -10 116 -13t177 -3q8 0 31 5t56.5 29.5t73.5 82t71 151.5l-27 37q-35 -84 -64.5 -136t-53 -75.5t-37 -30t-23.5 -8.5h-2q-76 -12 -137 -12q-90 0 -152.5 22.5t-97.5 59.5t-49.5 80t-16.5 88q14 178 15 348q0 369 -65.5 661.5t-190.5 481.5q12 -12 55 -41 t109.5 -61.5t150.5 -57t172 -24.5q98 0 194.5 36.5t184.5 116.5q72 90 72 103q0 2 -2 2q-14 0 -95 -64q-90 -76 -181 -108.5t-181 -32.5q-76 0 -147.5 20.5t-132 52t-104.5 62.5t-83 63q-4 10 -27 11q-25 0 -45 -13.5t-20 -35.5q0 -23 24 -52q61 -90 109.5 -217t80 -278.5 t47 -318.5t15.5 -341q0 -154 -12 -301q-4 -23 -4 -28q-16 -94 -53 -143.5t-164 -88.5h-25h-20q-96 0 -166 17.5t-115 46t-69.5 56.5t-51.5 69q-2 2 -12 16v1591l-55 2v-1597q-8 -66 -34 -106t-58.5 -59.5t-65.5 -24.5t-68 -5q-156 4 -234.5 42t-98.5 157v1194q0 127 -40 211 t-98.5 128t-113 59.5t-90.5 15.5q-127 0 -223.5 -41t-186.5 -150q-4 -6 -16 -29q-41 -70 -68 -150.5t-37 -225.5z" />
<glyph unicode="X" horiz-adv-x="2076" d="M25 1376q0 -113 17 -181.5t52 -131.5l6 -8q14 -25 39 -43.5t86 -30.5q2 0 13 -2h14q59 0 110.5 52t73.5 177q-10 41 -22 41q-10 0 -17.5 -20.5t-7.5 -40.5q-18 -92 -58 -129t-87 -37q-39 0 -54 14q-61 35 -81.5 100.5t-38.5 237.5q20 203 95 301.5t267 126.5h23l20 2 q111 0 185.5 -32.5t107.5 -85.5q41 -59 66.5 -116t38 -115t16.5 -126.5t4 -171.5q-6 -45 -10 -129q-2 -41 -4 -53q-84 -10 -220 -23q-141 -14 -192 -26q-70 -18 -127 -58.5t-99 -90.5t-70 -100t-48 -99q-41 -129 -41 -211q0 -90 43 -189l12 -24q14 -33 40 -62t91 -65 q49 -14 99.5 -20.5t138.5 -6.5q16 6 18 6q82 27 128 57.5t89 104.5q20 35 31.5 57.5t23 50t21.5 61.5t31 103q10 43 22.5 102.5t32.5 168.5q0 -113 13.5 -213.5t46.5 -200.5q12 -20 32 -61q45 -90 76 -133.5t80 -61.5q63 -31 104 -38t107 -7q143 10 201.5 28.5t113.5 63.5 q31 -47 77 -69.5t118 -22.5q51 10 87 38.5t71 88.5q0 6 24 49q31 57 51 98l-26 37q-25 -47 -54 -106q-16 -35 -20 -37q-57 -98 -109 -119q-35 -8 -61 -8q-39 0 -66.5 20.5t-58.5 65.5q41 66 53.5 106.5t18.5 104.5l2 16q-2 45 -14.5 94.5t-38.5 98.5q-14 25 -51.5 52.5 t-80.5 29.5q-20 4 -36 4q-74 0 -119 -86q-4 -25 -4 -43q0 -47 20 -47q27 0 27 65q12 27 34.5 43.5t55.5 16.5q35 0 76 -23q47 -37 63.5 -99.5t16.5 -146.5q-39 -121 -98.5 -179t-202.5 -73q-51 -6 -93 -6q-92 0 -157.5 34t-102.5 112q-66 104 -91 223t-25 260q0 27 6 86 q8 88 10 154q170 -4 235 -5q88 0 166 7q84 27 145.5 68.5t100.5 89.5t61.5 95.5t36.5 94.5q41 129 41 213q0 90 -41 186q-4 20 -35.5 64.5t-109.5 87.5q-49 14 -99 20t-139 6q-8 -2 -22 -8q-78 -27 -124 -56.5t-89 -103.5q-8 -18 -23 -51q-25 -49 -41 -93t-38 -126 q-12 -37 -23 -88t-31 -178q-4 131 -15 231.5t-40 186.5l-4 8q-57 106 -97 161.5t-92 79.5q-68 29 -109.5 35t-105.5 6q-74 -6 -124 -13t-81.5 -18.5t-56 -27.5t-55.5 -45l-12 -10q-18 -14 -21 -15q-51 -80 -77.5 -157.5t-34.5 -188.5zM131 377q0 88 37 196q37 80 83 135.5 t109 114.5l15 15q47 29 96 43t125 18q55 6 80.5 9t111.5 10l93 8l-2 -13q-27 -205 -41.5 -294t-34.5 -152q-20 -78 -35.5 -121t-34.5 -86q-16 -33 -24 -57q-20 -37 -44 -65.5t-69 -53.5q-90 -37 -154 -37q-20 0 -45 4q-92 10 -141 47t-92 111q-33 88 -33 168zM979 975 q6 55 16.5 119.5t23.5 131t25.5 117t20.5 78.5q10 23 31 86q16 49 28.5 82t26.5 53q10 41 33.5 64t72.5 53l3 2q37 18 66.5 25.5t62.5 7.5h30q23 -2 33 -2q96 -14 135 -44t82 -99q12 -16 19 -27q28 -59 28 -128q0 -75 -37 -202q-2 -6 -2 -8q-29 -90 -88.5 -162.5 t-118.5 -101.5q-61 -47 -167 -47l-17 2h-20h-287z" />
<glyph unicode="Y" horiz-adv-x="1953" d="M8 1264q6 -55 15.5 -103.5t27 -93.5t48 -78t75.5 -47l8 -2q53 -8 88 -8q37 0 71 9t61.5 34.5t45 74t17.5 119.5l-37 -2q-8 -115 -58.5 -147.5t-166.5 -32.5q-74 29 -105.5 101.5t-40.5 160.5q0 137 35 233.5t82 176.5q0 2 2 4q41 47 91 76.5t104 48.5q80 27 168 27 q154 -37 221 -113t67 -197q0 -29 -4 -61v-1165q10 -123 85 -186.5t184 -82.5q62 -12 123.5 -12t121.5 12q43 6 95.5 38t101.5 81v-68q-47 -29 -88 -87t-73 -124.5t-49 -115.5t-38 -109l-6 -18q-76 -264 -76 -469q0 -184 57.5 -284.5t137.5 -100.5q78 0 137 98t59 266 q0 12 -2 27v27v964q20 -49 82 -91t97 -42q16 0 36.5 7t48 33t60.5 82t63 146l-26 37q-35 -84 -64.5 -136t-53.5 -75.5t-37 -30t-23 -8.5h-2q-86 27 -133.5 93.5t-47.5 156.5v1555h-57l-2 -1565q-14 -68 -37.5 -113t-52.5 -71.5t-57.5 -38t-59.5 -15.5q-55 -6 -106 -6 q-102 0 -169 22.5t-103 56.5t-49 71t-17 78l-4 1167q0 133 -40 218t-98.5 126t-112 54.5t-91.5 13.5q-141 0 -231.5 -33t-176.5 -158q-4 -6 -16 -29q-41 -70 -68 -150.5t-37 -225.5zM1245 -860q0 156 47 356q41 156 76 225q6 12 16 43q14 39 28.5 71t41.5 73q8 10 16 22 q35 45 66 76v-833q-2 -27 -2 -54q-4 -90 -8 -137t-15.5 -83t-35 -62.5t-64.5 -50.5q-72 14 -119 103t-47 251z" />
<glyph unicode="Z" horiz-adv-x="1658" d="M-6 6h14q12 -2 19 -2q29 0 59.5 4t60.5 10q6 2 9 2q141 59 232 88t206 50h29q16 2 22 2q57 0 86 -17q33 -8 62.5 -21t83.5 -42q43 -25 69 -39q12 -4 39 -12q33 -12 60.5 -19.5t68.5 -11.5q4 4 29 4q35 2 69.5 10t71.5 39q23 -29 61.5 -41t84.5 -12l14 2h12q49 6 84 34.5 t70 88.5q0 4 18 39q35 61 58 108l-27 37q-18 -35 -45 -92q-25 -49 -29 -51q-29 -51 -53.5 -74.5t-52.5 -32.5q-43 -12 -72 -12q-51 0 -96 33l14 28q23 45 34 77t17 79q0 113 -12 157t-53 105q-92 104 -191 105q-109 0 -166 -117q-16 -47 -20 -80v-10q-2 -4 -2 -8 q0 -35 20 -35q25 0 25 35q0 10 -4 20q8 78 57 115t125 37q82 -37 121 -76t61 -113q2 -23 4 -45q2 -43 2 -61q0 -31 -6 -58.5t-22 -62.5q-29 -59 -58.5 -84t-113.5 -47q-31 0 -45.5 2t-71.5 14q-41 10 -99.5 41t-123.5 70q-61 33 -133 33q-39 0 -80 -9q-4 0 -8 3h-13 q-45 0 -129 -27t-207 -72q-80 -31 -116.5 -43t-57.5 -16q168 203 302.5 364.5t241 290.5t114.5 139q87 -69 219 -69h4q88 0 185.5 32.5t193.5 96.5q20 8 34.5 23.5t14.5 25.5t-14 10q-20 0 -62 -24q-186 -123 -350 -123q-109 0 -197 53q117 170 271.5 406.5t378.5 590.5 q-205 -90 -317.5 -126.5t-207.5 -36.5q-111 0 -230.5 52t-342.5 185q0 -143 -10.5 -230t-35 -147.5t-67.5 -111t-125 -125.5q-27 -35 -26 -49q0 -8 8 -9q20 0 63 50q66 57 106 100t67.5 95t42 121t14.5 165v37q-2 23 -2 41q190 -121 310 -171.5t224 -50.5q74 0 152 20.5 t217 70.5l25 8q-193 -309 -316 -502t-242 -358q-59 33 -141 82q-86 51 -130 71.5t-85 20.5q-20 0 -41 -6q-90 -20 -131 -67.5t-68 -127.5q-4 -23 -4 -37q0 -20 11 -20q8 0 19 16t18 39q20 63 60 99t112 59q63 0 115 -25t175 -106l64 -41l-31 -35q-240 -279 -381 -449 t-270 -346z" />
<glyph unicode="[" horiz-adv-x="454" d="M129 -12h322q2 0 8 -2h10q25 0 50.5 9t25.5 21q0 10 -23.5 19.5t-75.5 15.5h-262v1759h269q4 0 10 -2h8q25 0 43 11.5t18 23.5q0 8 -18 14.5t-63 6.5h-322v-1876z" />
<glyph unicode="\" horiz-adv-x="776" d="M12 1223l658 -1221l49 2l-662 1217z" />
<glyph unicode="]" horiz-adv-x="454" d="M-39 16q0 -10 20.5 -16t63.5 -6l301 8v1847l-293 4q-29 6 -49 7q-43 0 -43 -21q0 -12 18.5 -25.5t43.5 -13.5l6 2h8h256v-1765h-248q-4 0 -12 2h-13q-25 0 -42 -7t-17 -16z" />
<glyph unicode="^" horiz-adv-x="618" d="M49 846q0 -8 12 -8q20 0 60 20q74 23 125 60.5t61 66.5q12 -31 64.5 -66.5t126.5 -56.5q39 -18 57 -18q14 0 14 10q0 20 -47 45q-80 37 -114.5 73t-79.5 111q-7 12 -23 37q-2 -4 -20 -39q-43 -76 -77 -112.5t-112 -73.5q-47 -27 -47 -49z" />
<glyph unicode="_" horiz-adv-x="669" d="M0 -518v-90h670l6 90h-676z" />
<glyph unicode="`" horiz-adv-x="663" d="M35 1124q0 -102 201 -200q217 -109 313 -129q4 0 14 -2q6 -2 8 -2q16 0 17 10q-2 31 -172 102q-84 35 -114.5 51.5t-53.5 36.5q-84 37 -115 71t-31 68q0 14 7 41q6 35 6 58q-4 0 -13 2h-8q-33 0 -45 -27.5t-12 -56.5q0 -4 -2 -10v-13z" />
<glyph unicode="a" horiz-adv-x="882" d="M-66 160l21 -13l51 113q6 -37 6 -70q14 -100 85 -146t171 -46q55 0 100.5 31.5t69.5 89.5q35 -76 79 -95.5t130 -25.5q20 -2 31 -2q51 10 87 38.5t71 88.5q0 8 26 53q33 61 49 94l-26 37q-25 -47 -58 -112q-14 -29 -16 -31q-61 -106 -106 -107q-16 -4 -39 -4 q-68 0 -129.5 43t-67.5 133v349v6q2 2 2 4q0 18 -11 31.5t-24 13.5q-29 0 -28 -53v-45q-35 45 -69 60t-77 23q-8 0 -14 3q-82 -6 -122 -32t-73 -65l-8 -10q-39 -84 -43 -180zM66 315q0 43 10 88q14 70 53 107t129 45q61 -20 94 -55t49 -92v-185q0 -53 -37.5 -106.5 t-95.5 -53.5h-10q-6 -2 -10 -2q-53 0 -104.5 30t-65.5 91q0 20 -6 60q-6 45 -6 73z" />
<glyph unicode="b" horiz-adv-x="503" d="M-96 117l18 -21l82 160q10 -100 52 -172t112 -82h37q18 -2 24 -2q41 0 60.5 4t32.5 8q45 23 77.5 55.5t65.5 88.5q12 12 21.5 53t11.5 92q4 2 18 8q25 10 31 13q-2 12 -2 28q-2 18 -2 25l-17 -8q-16 -8 -28 -15q-2 45 -11 85t-28 63q-6 2 -17 14q-14 16 -22 21 q-23 10 -39 10q-2 0 -8 -2h-8l-7 -4q-23 -18 -34 -37q0 -6 -5 -21q-4 -20 -4 -30q0 -25 4 -48q10 -35 30 -60.5t63 -51.5h14q8 -2 12 -2t13 2h10q-8 -68 -21 -94q-18 -51 -42.5 -76t-51.5 -43q-2 0 -4 -2q-29 -31 -109 -31q-84 0 -134 71.5t-50 151.5q0 27 6 45 q82 160 126 257.5t89 207.5q33 76 56.5 129.5t60.5 122.5q74 252 74 447q0 188 -64.5 288.5t-154.5 100.5q-94 0 -167 -105.5t-73 -281.5l-2 -1153zM53 391v1086q4 90 18.5 149.5t37 94t51 52t69.5 29.5q2 0 11 2h10q72 0 116 -82t44 -233q0 -154 -48 -352 q-20 -61 -33.5 -100.5t-25.5 -69.5q-12 -31 -20 -52q-8 -23 -29 -65q-29 -61 -51 -117q-4 -12 -11.5 -31.5t-35.5 -78.5q-52 -115 -103 -232zM348 428v21q6 29 13.5 38t27.5 13q16 -2 29 -13q6 -4 10 -6q16 -18 25.5 -59t9.5 -88q-12 -4 -21 -4q-18 0 -36 12q-20 10 -39 46 t-19 69v-29z" />
<glyph unicode="c" horiz-adv-x="528" d="M-102 111l24 -15l78 152q14 -88 52 -146.5t87 -81.5q27 -12 64 -17t73 -5q4 0 23 2h14q57 6 94 34.5t72 88.5q0 4 19 39q35 61 57 108l-27 37q-18 -35 -45 -92q-25 -49 -28 -51q-27 -47 -58.5 -80t-44.5 -35q-4 0 -12 -2q-23 -4 -41 -4h-16q-14 2 -25 2 q-76 0 -140.5 54.5t-66.5 154.5q0 14 -2 33v30q0 106 33.5 171t101.5 75q20 6 35 6q25 0 35 -13t18 -44q4 -25 21 -25q25 0 24 25l-2 2v4q-12 55 -30.5 80t-69.5 25h-14q-8 -2 -17 -2q-29 0 -70.5 -30t-62.5 -65q-45 -53 -47 -196z" />
<glyph unicode="d" horiz-adv-x="831" d="M-96 117l22 -15l86 154q6 -37 15 -57q12 -98 80.5 -148.5t166.5 -50.5q72 0 110 35t71 98q33 -47 60.5 -69.5t64.5 -43.5q20 -10 28 -16q57 4 94 33t72 88q0 4 19 39q35 61 57 108l-27 37q-18 -35 -45 -92q-25 -49 -28 -51q-61 -106 -107 -107q0 -4 -10 -4q-25 0 -39 15 l-4 2q-35 20 -59.5 45.5t-34.5 77.5q-12 33 -16.5 66t-6.5 142v762v9q2 4 2 8q0 23 -11 39t-24 16q-27 0 -26 -63v-637q-35 45 -69 60t-77 24q-8 0 -14 2q-78 0 -117 -22.5t-69 -59.5q-10 -12 -15 -17q-39 -88 -43 -190zM63 299q0 39 7 92v4q8 35 16 61.5t28.5 51t57.5 40 t94 15.5q61 -25 94 -60.5t48 -92.5v-197q-2 -59 -30 -105.5t-104 -58.5q-63 0 -102 22.5t-86 98.5q-12 37 -17.5 64.5t-5.5 64.5z" />
<glyph unicode="e" horiz-adv-x="528" d="M-92 117l16 -15l72 140q14 -80 54 -139.5t89 -82.5q12 -2 35 -8q47 -12 64 -12h90q47 10 81.5 39t69.5 88q0 4 19 39q35 61 57 108l-27 37q-18 -35 -45 -92q-25 -49 -28 -51q-61 -106 -107 -107q-6 -2 -34.5 -6t-63.5 -6q-76 6 -124 39t-81 148q0 49 1 66t3 28 q33 -25 90.5 -32t161.5 -7q23 4 45.5 13t61.5 36q25 29 37 55.5t12 59.5q0 2 -2 8v10q0 63 -56.5 107.5t-136.5 44.5q-78 0 -132 -29t-79 -70q-41 -49 -53 -198zM45 379q18 98 56 138t87 46q20 10 50 10q20 0 45 -6q53 0 88 -27.5t35 -72.5v-10q2 -4 2 -8q0 -23 -9.5 -41.5 t-29.5 -47.5q-27 -16 -48.5 -21t-62.5 -5q-70 0 -115 7t-98 38z" />
<glyph unicode="f" horiz-adv-x="514" d="M-45 184l16 -32l107 204v-20v-207q0 -12 -6 -12t-25 18q-14 14 -20 19q-25 -6 -33 -12.5t-17 -22.5q0 -4 -2 -13v-12q0 -27 27 -49q16 -2 29.5 -3t50.5 -1l-2 -887q4 -172 77.5 -275.5t166.5 -103.5q88 0 149.5 95.5t61.5 275.5q0 197 -80 459q-23 51 -54 123 q-57 139 -95 206.5t-99 114.5q72 -41 121 -41q43 0 66.5 26.5t47.5 78.5q18 39 31 53q0 6 25 49q31 57 51 98l-27 37q-25 -47 -53 -106q-16 -35 -20 -37q-4 -8 -19 -33q-29 -53 -59.5 -85t-87.5 -32q-68 0 -166 58v194l2 117q59 84 100 146.5t69.5 114.5t50 95t46.5 97 q45 98 80 165q74 252 74 447q0 188 -64.5 288.5t-155.5 100.5q-94 0 -166.5 -105.5t-72.5 -281.5v-1018zM4 88v6q0 12 10 15q8 0 25 -9q19 -10 35 -16q0 -12 -25 -12q-29 0 -43 10q0 2 -2 6zM123 494v1005q0 135 51 216t133 122q88 0 143.5 -92t55.5 -264q0 -147 -43 -332 q-37 -94 -55.5 -133t-40.5 -80l-5 -6q-4 -20 -12 -36.5t-22 -43.5q-31 -55 -52 -96q-4 -10 -14 -27.5t-24 -42.5q-27 -41 -48.5 -77.5t-66.5 -112.5zM125 33q8 4 18 4q18 0 40 -14.5t41.5 -37t33.5 -45t18 -34.5q25 -51 52 -101q27 -49 34 -75q6 -16 19 -52 q16 -39 27.5 -72.5t31.5 -97.5q47 -201 47 -352q0 -160 -49 -245t-133 -85q-78 33 -119 92.5t-61 215.5v899z" />
<glyph unicode="g" horiz-adv-x="806" d="M-94 121l20 -12l78 139q23 -125 80 -182.5t133 -61.5q49 -8 88 -8t86 12q4 0 15 2q4 0 27.5 19.5t43.5 48.5q0 -37 -6 -53.5t-27 -32.5q-39 -43 -68.5 -84t-51 -80t-39 -76t-52.5 -112l-16 -39q-80 -270 -80 -478q0 -184 57.5 -283.5t135.5 -99.5q80 0 139 98.5t59 270.5 l2 868q113 47 161 84t83 97q0 4 19 39q35 59 55 104l-25 41q-18 -35 -45 -92q-25 -49 -28 -51q-33 -57 -74.5 -91t-145.5 -77v532v8q2 4 2 9q0 23 -10 38t-20 15q-27 0 -27 -62v-12q-23 33 -37 46t-32 18q-51 12 -115 12q-66 0 -117 -10q-72 -27 -114 -93.5t-60 -201.5z M45 301q10 76 26.5 125t36 75.5t36 38t34.5 19.5l6 2q4 0 19 4q53 14 98 15q4 0 14 -2h15q82 -23 111.5 -87.5t29.5 -191.5q0 -92 -31.5 -164t-77.5 -80q-49 -10 -96 -10q-70 0 -94 16q-4 4 -18 13q-43 25 -71 69.5t-38 157.5zM190 -860q0 158 43 356q18 49 34 88t26 62 q18 45 26 69q8 25 19.5 45.5t40.5 61.5q25 39 27 43q8 18 23 33.5t46 44.5v-777q-2 -203 -33.5 -285.5t-113.5 -90.5q-57 8 -97.5 99t-40.5 251z" />
<glyph unicode="h" horiz-adv-x="749" d="M-96 117l20 -19l76 140v-185q0 -39 7 -51t26 -12h10q12 2 16 2v69v310q102 174 222 192q23 8 45 8q112 0 112 -200v-86q-2 -33 -2 -64q0 -57 8.5 -105t30.5 -104q33 -16 64 -16q4 0 10 2h4q47 8 82 38t67 87q0 6 25 49q31 57 51 98l-26 37q-25 -47 -54 -106 q-16 -35 -20 -37q-61 -106 -107 -107q-4 2 -8 2q-25 0 -49 11q-10 18 -14 57t-4 125v65.5t-4 120.5q-27 106 -60 144.5t-86 42.5q-72 0 -123 -19.5t-51 -48.5q23 51 47 113q39 92 74 168.5t94 191.5q74 252 74 447q0 188 -64.5 288.5t-154.5 100.5q-94 0 -167 -105.5 t-73 -281.5l-2 -1133zM59 473v1008q0 154 46.5 226.5t123.5 94.5q2 0 11 2h10q72 0 116 -82t44 -233q0 -154 -48 -352q-20 -61 -33.5 -100.5t-25.5 -69.5q-12 -31 -20 -52q-6 -18 -13.5 -34.5t-23.5 -49.5q-27 -49 -47 -92q-4 -10 -12.5 -28.5t-21.5 -45t-38 -71.5t-68 -121 z" />
<glyph unicode="i" horiz-adv-x="536" d="M-104 102l36 -4l129 248l-2 -199q0 -76 70 -111.5t180 -35.5q66 6 105 33.5t73 89.5q0 4 19 39q35 61 57 108l-26 37q-18 -35 -45 -92q-25 -49 -29 -51q-33 -57 -61.5 -83t-71.5 -30q-35 0 -68 3t-63.5 11.5t-52 27t-27.5 48.5v432q0 23 -11.5 41.5t-25.5 18.5 q-23 0 -23 -58l2 -149zM59 858q2 -33 35 -35q33 4 35 37q-2 20 -10.5 27.5t-24.5 9.5q-16 -2 -24.5 -10t-10.5 -29z" />
<glyph unicode="j" horiz-adv-x="425" d="M-238 -860q0 -184 58.5 -282.5t138.5 -98.5q78 0 136.5 89t58.5 241q0 8 -2 24v27l-2 885q115 18 162.5 47.5t84.5 91.5q0 4 15 29q33 66 53 118l-19 37q-18 -35 -45 -92q-25 -49 -28 -51q-35 -59 -77 -84t-144 -29v471v8q2 4 2 9q0 20 -10.5 36.5t-22.5 16.5 q-27 0 -27 -66v-75q-20 -49 -65 -130q-6 -10 -13 -20l-69 -166l24 -4l41 86q10 18 29 55q31 59 53 107v-340q-68 -86 -108 -160q-18 -31 -30.5 -59.5t-41.5 -91.5q-41 -94 -74 -162q-78 -266 -78 -467zM-184 -866q0 160 49 366q20 63 34.5 103.5t24.5 66.5q12 35 19 51l2 5 q14 43 29.5 79.5t45.5 96.5q20 25 33.5 43t42.5 61l-2 -833q0 -176 -16.5 -250t-83.5 -103q-4 0 -12 -2h-11q-72 0 -113.5 83t-41.5 233zM94 858q2 -31 35 -35q31 2 37 37q-4 33 -37 37q-31 -4 -35 -39z" />
<glyph unicode="k" horiz-adv-x="655" d="M-86 123l20 -12l70 129l-2 -166q0 -70 33 -70t33 59v35v215l141 9h12h-4q16 4 29 4q47 0 62.5 -50.5t19.5 -189.5q8 -39 46 -59.5t87 -20.5q45 10 82 46t75 102q0 6 25 51q31 57 49 96l-24 37q-25 -47 -58 -113q-14 -29 -16 -30q-33 -57 -65.5 -91t-73.5 -47 q-39 6 -52.5 30t-13.5 73q-2 23 -4 51q-4 61 -13.5 88t-47.5 57q31 20 43 42t20 53q2 12 4 18q4 20 4 39q0 45 -15 69.5t-34 38.5q-6 6 -6 7q0 2 6 2q-72 0 -123 -19.5t-51 -48.5q35 61 54.5 105.5t43.5 109.5q27 68 51.5 124t65.5 134q74 252 74 447q0 188 -64.5 288.5 t-154.5 100.5q-94 0 -167 -105.5t-73 -281.5v-1153zM61 502v973q0 147 46.5 226t121.5 101q2 0 11 2h10q72 0 116 -82t44 -233q0 -154 -48 -352q-20 -61 -33.5 -100.5t-25.5 -69.5q-12 -31 -20 -52q-6 -18 -13.5 -34.5t-23.5 -49.5q-27 -49 -47 -92q-6 -16 -13.5 -31.5 t-20.5 -39t-40 -66.5t-64 -100zM68 373q0 35 21.5 70.5t56 65.5t76.5 48t81 18q43 -39 43 -79q0 -31 -20.5 -55.5t-34.5 -32.5q-29 -16 -86.5 -23.5t-136.5 -11.5z" />
<glyph unicode="l" horiz-adv-x="471" d="M-82 121l12 -10l66 131v-15q2 -49 5 -72.5t11 -37.5q16 -47 37 -67.5t55 -43.5l15 -8h114q55 6 82 16t58 37q20 27 39.5 63t46.5 95q0 8 26 53q33 61 50 94l-27 37q-25 -47 -57 -112q-14 -29 -17 -31q-6 -10 -20 -37q-27 -45 -44.5 -73.5t-41.5 -61.5q-33 -27 -80 -27 h-19q-8 2 -12 2q-6 0 -16 -2h-17q-78 0 -100 49q-14 23 -20.5 56.5t-6.5 79.5v104q74 135 123 231.5t83 166t54.5 119.5t63.5 157l6 16q74 254 74 447q0 188 -64.5 288.5t-154.5 100.5q-96 0 -169 -105.5t-73 -281.5v-1157zM55 436l2 1051q8 143 52.5 219t119.5 96q2 0 11 2 h10q72 0 116 -82t44 -233q0 -154 -48 -352q-20 -61 -33.5 -100.5t-25.5 -69.5q-12 -31 -20 -52l-4 -10q-12 -35 -25.5 -67.5t-44.5 -100.5q-14 -20 -29.5 -49t-68.5 -137z" />
<glyph unicode="m" horiz-adv-x="1439" d="M-20 264l40 -2l29 107q4 8 10 30q18 53 43 95q14 23 18.5 29.5t10.5 15.5l4 4q12 10 24.5 15t43.5 13q25 8 41 9q18 0 45 -15l2 -2q23 -12 31 -34.5t8 -49.5q0 -4 -2 -20v-13v-409q0 -37 26 -37q31 0 31 33v409q33 53 50.5 74t47.5 33l6 2q18 6 28.5 9t33.5 7q33 4 46 4 h30q31 -18 43 -46.5t12 -65.5v-418q8 -47 29 -47q10 0 19 16.5t9 38.5v418q8 8 13 14q31 35 47 49.5t43 26.5q10 4 24.5 9t40.5 16q37 0 55.5 -2t32.5 -11q16 -2 35 -25.5t19 -45.5v-9q-2 -2 -2 -6v-301q4 -70 49 -119t149 -49q45 16 80 48t68 90q0 8 28 57q27 45 39 70 l-14 36q-29 -49 -51.5 -84.5t-26.5 -37.5q-51 -90 -94 -119q-27 -12 -57 -13q-18 0 -35 5q-51 10 -64 43q-12 16 -12 43q0 8 2 14v14v303l2 2q0 6 -12.5 37t-24.5 49q-27 35 -43 44.5t-51 15.5q-25 4 -29 4q-25 -2 -43 -5t-65 -14q-41 -23 -84 -61q-14 -12 -25 -20 q-39 53 -60.5 67t-60.5 21q-16 4 -20 4q-25 -2 -43.5 -5.5t-65.5 -13.5q-39 -14 -54 -25.5t-36 -31.5l-18 -21q-33 55 -53.5 70.5t-59.5 22.5l-20 4q-27 -2 -43.5 -4t-42.5 -11q-6 -4 -15 -8q-25 -14 -43 -30.5t-37 -51.5q-18 -31 -26 -52t-23 -67l-6 -22z" />
<glyph unicode="n" horiz-adv-x="1089" d="M-18 260l22 -16l53 110q6 10 21 45q16 45 33 82q6 10 12 27q8 18 18 37q17 30 69 30h3q37 -2 58.5 -7t43.5 -21q37 -43 37 -78q0 -2 -2 -6v-8v-408q0 -51 29 -51q23 0 29 51v420q23 25 44 44t52 40q18 6 30.5 9t38.5 5q12 4 27 4q14 0 45 -4l14 -2q29 -16 41.5 -33.5 t12.5 -60.5v-309q8 -68 56 -110t138 -42q45 16 80 48t68 89q0 6 24 50q31 57 51 98l-26 37q-25 -47 -53 -107q-16 -35 -21 -37q-59 -102 -104 -112q-31 -8 -49 -8q-16 0 -35 6q-29 12 -49 41q-2 0 -5 4q-6 12 -12 30q-4 20 -10 27v285v14q2 6 2 14q0 37 -18 80 q-39 37 -60.5 46.5t-60.5 13.5q-2 0 -17 2q-25 -2 -43 -5t-65 -14q-47 -27 -84 -63q-6 -8 -8 -10q-47 47 -72 60t-61 19q-18 2 -25 5q-8 0 -25 2q-16 2 -24 2q-18 0 -45 -7q-16 -2 -24.5 -8t-20.5 -22q-10 -14 -21 -25q-4 -12 -12 -31q-8 -16 -10 -24q-8 -18 -23 -59 q-16 -49 -29 -82z" />
<glyph unicode="o" horiz-adv-x="512" d="M-90 135l35 -20l69 131q18 -96 81 -170t153 -76q117 2 187.5 87t76.5 187q23 12 37 21l2 2l-4 27l2 2q-2 0 -37 -21q0 129 -68.5 225.5t-179.5 96.5q-109 0 -181.5 -86t-72.5 -215zM66 326q4 123 66.5 183t131.5 60h15v2h-3q-16 -41 -16 -94q0 -27 4 -49q6 -43 47 -102 q35 -33 66 -46.5t59 -13.5q8 0 19 2q8 2 12 2v-2q-10 -43 -21.5 -73.5t-35 -61.5t-64.5 -52.5t-102 -29.5q-70 16 -124 85t-54 190zM309 467q0 31 7.5 61.5t13.5 30.5q37 -18 63.5 -51t43 -69t24.5 -68.5t8 -55.5h-20q-33 2 -51.5 7.5t-32.5 23.5q-29 23 -42.5 58.5 t-13.5 62.5z" />
<glyph unicode="p" horiz-adv-x="847" d="M-49 197l20 -19l37 64q14 27 43 77q31 57 53.5 98.5t40.5 69.5l2 -1622q0 -75 24 -75h1q10 0 19.5 19.5t9.5 47.5v1487q20 27 53 74q35 53 58.5 81.5t47.5 45.5q35 20 70 20q29 0 59 -14q10 -2 24.5 -32t14.5 -81q0 -29 -6 -63v-307q2 -18 16.5 -41t24.5 -29q8 0 29 -2 h18q39 0 60 10q43 20 75.5 52t65.5 87q0 6 25 52q31 57 47 90l-23 43q-25 -47 -55 -111q-16 -33 -19 -33q-51 -90 -106 -127q-47 -16 -66 -16q-31 0 -36 53v346q0 84 -35 119q-16 31 -48 45.5t-69 14.5q-4 0 -14 -3h-13q-25 -4 -40 -11t-33 -19l-21 -15q-10 -12 -35 -49 q-35 -51 -67 -94v158q0 20 -10.5 34.5t-20.5 14.5q-23 0 -27 -49q-14 -23 -34.5 -63t-47.5 -95q-37 -78 -53 -106z" />
<glyph unicode="q" horiz-adv-x="780" d="M-86 123l23 -8l69 131q18 -98 79.5 -171t152.5 -75q84 2 151.5 41t89.5 92v-342v-924q0 -49 6.5 -70.5t16.5 -21.5q8 0 16 20.5t8 47.5v932v241q96 16 140.5 45t76.5 86q0 6 25 50q31 57 51 98l-26 37q-25 -47 -54 -107q-16 -35 -20 -37q-33 -59 -72 -83.5t-123 -30.5 v487q0 33 -10 52.5t-22 19.5q-27 0 -27 -70v-45q-41 45 -94.5 77t-116.5 32q-109 0 -180.5 -86t-71.5 -222zM61 328q0 106 63.5 173.5t129.5 67.5t111 -31.5t67.5 -77.5t31.5 -89t9 -70q0 -25 -10 -63.5t-33.5 -79.5t-67 -70t-106.5 -29l-12 2h-13q-68 6 -119 72t-51 195z " />
<glyph unicode="r" horiz-adv-x="808" d="M-4 299l4 -63q33 55 51.5 89.5t36.5 75.5q23 47 39 72q8 12 12 23.5t4 31.5q0 -10 47 -10h21q20 2 29 2q6 2 24 10q47 20 68 21q25 0 35 -19q-14 -76 -20.5 -132t-6.5 -111q0 -63 8 -137q0 -55 34 -104.5t99 -49.5q51 0 76 2t45 6q12 2 25 4q45 20 78.5 51t68.5 89 q0 6 25 51q31 57 49 96l-25 37q-25 -47 -57 -113q-14 -29 -16 -31q-55 -96 -101 -118l-12 -4q-29 -8 -57 -9l-15 2h-20h-25q-12 -2 -24 -2q-47 0 -72 34t-27 140v23q-2 16 -2 27q0 63 8.5 119.5t12.5 82.5q2 6 4 11q6 23 6 36q0 29 -18 62q-27 31 -62 31l-6 -2h-8 q-16 -2 -60 -17q-46 -16 -79 -24q-14 6 -19.5 18t-7.5 35q-2 4 -2 12q0 12 -6 25.5t-29 36.5q-8 16 -31 16q-20 0 -32 -14q0 -2 -3 -6q-6 -10 -6 -17q0 -14 17 -31q20 -35 20 -90q-6 -61 -24.5 -109t-46.5 -106q-20 -39 -27 -53z" />
<glyph unicode="s" horiz-adv-x="677" d="M-92 109l22 -11l80 144q43 68 99 164q33 57 49 86q23 43 30 57t7 18h-2q92 -18 160.5 -71.5t101.5 -104.5q12 -39 20 -75.5t8 -67.5q0 -20 -4 -35q-6 -43 -22.5 -83t-46.5 -54q-49 2 -77 13t-63 38q-12 16 -14 55q-2 27 -8 39q-2 0 -6 2h-4q-16 0 -26.5 -16.5 t-10.5 -30.5q0 -4 -2 -12v-10q0 -41 18 -41q0 -18 41 -48.5t135 -50.5q27 0 72 19q63 2 102 28.5t76 88.5q0 6 25 51q31 57 49 96l-25 37q-25 -47 -57 -113q-14 -29 -17 -31q-59 -104 -114 -104q10 29 16 55.5t15 67.5q0 8 2 22v19q0 20 -5 47q-2 14 -2 20q-2 8 -4 17 q-4 20 -10 38.5t-18 47.5q-41 70 -95.5 110.5t-169.5 90.5q31 20 42.5 38.5t11.5 36.5q0 6 -2 17q-2 10 -2 14q-16 18 -35 18q-20 0 -29 -18q0 -4 -8 -22q-8 -16 -10 -23q-25 -49 -43.5 -85t-34.5 -71l-12 -24q-25 -49 -43.5 -82t-47.5 -84z" />
<glyph unicode="t" horiz-adv-x="569" d="M-92 123l18 -14l164 294q0 -180 2 -225t12 -61q16 -47 37 -67.5t56 -43.5l14 -8h113q57 6 83.5 17.5t55.5 35.5q20 25 39.5 58.5t48.5 93.5l8 16q31 68 53 123l-6 35q-27 -47 -57 -98q-16 -27 -17 -29q-14 -25 -32 -62q-41 -80 -80 -110q-23 -18 -45.5 -23.5t-52.5 -7.5 h-15h-12l-12 -2q-33 0 -56.5 13.5t-50.5 41.5v2q-10 20 -14 31.5t-6 32.5q-4 31 -4 153v367v186h327v66h-329v236q0 27 -11.5 50t-23.5 23q-23 0 -23 -76l-2 -684z" />
<glyph unicode="u" horiz-adv-x="1019" d="M-92 123l18 -12l144 223l2 -182q0 -78 68.5 -115t178.5 -37q66 6 105 33.5t74 89.5q0 4 16 31q20 39 33 63l2 -65q0 -78 68.5 -115t179.5 -37q66 6 104.5 33.5t73.5 89.5q0 8 26 53q33 61 50 94l-27 37q-25 -47 -57 -112q-14 -29 -17 -31q-33 -55 -62.5 -82t-72.5 -31 q-80 0 -136 17.5t-77 74.5v394q0 92 -29 92q-25 0 -26 -92v-230q-25 -47 -53 -106q-16 -35 -21 -37q-33 -55 -62.5 -82t-70.5 -31q-76 0 -137.5 19.5t-75.5 70.5v404q0 88 -27 88q-30 0 -30 -81v-5v-133z" />
<glyph unicode="v" horiz-adv-x="716" d="M-27 260l31 -35l45 129q6 10 21 45q16 45 32 82q10 18 17.5 29.5t19.5 26.5q12 8 24.5 13t47.5 15q33 0 50.5 -2t35.5 -10q16 -6 20.5 -29.5t4.5 -66.5v-260v-23q2 -43 6 -73.5t16 -47.5q8 -18 27 -28q2 -2 6 -5l12 -4q31 -12 49 -14h43q37 0 62 14q43 8 77.5 40 t67.5 100q14 12 22.5 53t10.5 94q6 2 18 10l15 9v4l-2 4q0 4 2 10q2 10 2 14q0 10 -6 21l-5 -4q-16 -10 -24 -17q-4 47 -13.5 85t-25.5 61q-16 25 -39 35t-39 10q-2 0 -8 -2h-8l-6 -4q-23 -18 -35 -37q0 -4 -2 -17q-6 -20 -6 -34q0 -25 4 -48q12 -35 29.5 -60.5t62.5 -51.5 h41q0 -59 -17 -92q-63 -106 -96 -117l-14 -6q-31 -10 -47 -10q-14 0 -31 4q-4 0 -10 -2h-10q-72 0 -72 100v289q-2 113 -25.5 140.5t-81.5 33.5h-12q-68 0 -90 -2q-25 -8 -41 -21.5t-43 -44.5q-4 -12 -12 -31q-8 -16 -11 -24q-8 -18 -22 -59q-16 -49 -29 -82zM584 449 q0 20 4 30t16 10h8q2 2 4 3q14 0 25 -13l2 -2q27 -32 31 -147q-29 0 -45 12q-6 0 -25.5 32t-19.5 75z" />
<glyph unicode="w" horiz-adv-x="1075" d="M-18 260l30 -35l45 129q6 10 21 45q16 45 33 82q10 18 17 29.5t19 26.5v2q12 20 23.5 29.5t38.5 11.5q23 4 41 4q31 0 67 -19q16 -14 20.5 -38.5t4.5 -73.5v-260q0 -63 17.5 -101.5t43 -58t46 -24.5t40.5 -7q41 0 64 8q27 8 57 23l6 2q18 12 50 39q8 8 26 22 q8 -31 27.5 -50t44 -28.5t44 -11.5t36.5 -4h6q37 0 61 14q45 20 79 51t67 89q12 12 21 55t9 92q12 4 33 16l4 3q0 2 2 8v6v14q-2 10 -2 25q-8 -4 -20 -15l-14 -8q-4 47 -13.5 86t-25.5 62q-8 4 -19 16q-12 14 -20 19q-23 10 -39 10q-2 0 -8 -2h-9l-6 -4q-23 -18 -35 -37 q0 -4 -2 -17q-6 -20 -6 -34q0 -25 4 -48q12 -35 29.5 -60.5t63.5 -51.5h14q6 -2 10 -2t12 2h11q-6 -55 -23 -94q-53 -102 -100 -113q-33 -18 -101 -18q-43 4 -60 22t-17 72v409q0 66 -29 66t-29 -66v-354q0 -12 -6 -29q-4 -14 -4 -20q-4 -16 -37 -39q-18 -14 -24 -18 q-23 -18 -50 -31q-37 -10 -92 -10q-35 6 -56.5 28.5t-23.5 75.5v281q0 59 -9 95t-26.5 52t-36 21.5t-51.5 9.5h-8q-68 0 -90 -2q-25 -8 -41 -21.5t-43 -44.5q-4 -12 -12 -31q-8 -16 -10 -24q-8 -18 -23 -59q-16 -49 -29 -82zM946 449q0 43 33 51q14 -4 20.5 -9.5t12.5 -15.5 q18 -16 29.5 -55t11.5 -86h-6q-6 -2 -9 -2q-18 0 -39 16q-25 16 -36 40t-17 61z" />
<glyph unicode="x" horiz-adv-x="987" d="M-63 137l14 -10l69 137q0 2 14.5 28.5t32 59.5t39 65t37.5 48q55 102 172 102q35 0 55.5 -6t37.5 -18q59 -41 81.5 -78t22.5 -127v-25q-2 -25 -2 -30q-4 -100 -54 -165t-116 -71q-41 0 -59.5 2t-28.5 6h-2q-10 0 -37 24.5t-43 49.5q-4 10 -16.5 20.5t-22.5 10.5t-10 -15 q0 -18 22 -63q16 -31 52 -53.5t90 -28.5h14q14 -2 20 -2q37 0 73 7t61 22q12 10 30.5 33.5t48.5 70.5q23 -43 37.5 -64.5t30.5 -39.5l4 -4q25 -12 60.5 -18.5t72.5 -6.5q8 0 21 2h16q57 6 94 34.5t72 88.5q0 6 25 49q31 57 51 98l-27 37q-25 -47 -53 -106q-16 -35 -21 -37 q-31 -53 -52 -77t-50 -38q-2 0 -14 -2q-20 -4 -41 -4h-17q-14 2 -24 2q-66 8 -107 57.5t-41 139.5v41q-2 27 -2 41q0 63 15 114q14 33 27.5 56.5t41.5 48.5q18 14 38 19t54 5q53 0 89 -27.5t40 -74.5q14 -31 25 -31q6 0 18 23q4 8 7 12q-4 66 -61.5 111t-137.5 45 q-63 0 -105.5 -32t-68.5 -91q-57 70 -102.5 96.5t-110.5 26.5q-74 0 -135.5 -39t-85.5 -86q-12 -12 -27.5 -34t-29 -48.5t-22.5 -45t-11 -24.5z" />
<glyph unicode="y" horiz-adv-x="1026" d="M-29 260l33 -35l43 129q6 8 19 41q16 45 36 86q8 16 21 39q2 4 12 23q14 25 74 30q10 -2 35 -2q31 0 47 -6q41 -20 41 -94v-291q4 -80 48 -128t99 -50q16 0 43 6q16 2 23 2q45 27 84 70t100 145v-131q-61 -53 -103 -103t-69 -95.5t-45 -90.5t-47 -120q-20 -55 -29 -78 q-76 -260 -76 -459q0 -188 61.5 -288.5t149.5 -100.5q86 0 150.5 98.5t64.5 263.5v902q86 18 129 48.5t80 92.5q0 6 17 39q31 61 49 108l-17 37q-25 -47 -57 -112q-14 -29 -16 -31q-33 -57 -71 -84t-118 -35v502q0 47 -30 47q-25 0 -27 -49v-260q-72 -139 -107.5 -188.5 t-60.5 -57.5q-45 -16 -88 -17q-33 8 -53.5 32t-28.5 71v309q0 96 -28.5 123t-90.5 33h-10q-68 0 -90 -2q-25 -8 -41 -21.5t-43 -44.5q-4 -14 -14 -35q-6 -16 -9 -20q-8 -18 -22 -59q-16 -49 -29 -82zM414 -854q0 156 47 354q20 63 34.5 103.5t24.5 66.5q12 35 19 51l2 5 q14 45 30.5 81.5t46.5 94.5q2 0 13 16q23 35 47 61.5t55 34.5v-882q0 -147 -33.5 -214t-105.5 -102q-82 0 -131 85t-49 245z" />
<glyph unicode="z" horiz-adv-x="849" d="M-4 299l4 -63q33 55 51.5 89.5t36.5 75.5q23 47 39 72q8 12 12 23.5t4 31.5q0 -10 47 -10h21q20 2 29 2q2 0 18 6q20 8 37.5 13.5t32.5 5.5q29 0 28 -25q0 -12 -6 -31q-10 -57 -23.5 -98t-33 -78t-51 -80t-82.5 -106q-35 -29 -82 -68q-23 -18 -38 -30.5t-38 -28.5 q4 0 45 2q68 4 86 10q35 12 86 33q8 2 25 8q14 10 39.5 18.5t66.5 8.5q33 0 72 -8q25 -12 50.5 -29.5t49 -35t43 -36t25.5 -32.5q-92 -72 -156.5 -132.5t-100.5 -104.5t-53.5 -72.5t-33.5 -65.5q-8 -14 -10 -19q-88 -258 -89 -446q0 -164 61.5 -250t156.5 -86 q106 0 205.5 107.5t136.5 291.5q12 33 27.5 152t15.5 295q-4 123 -18.5 188.5t-31.5 104.5q-6 10 -6 14q-2 2 -4 10q-6 20 -22 29q35 37 61.5 67.5t48 61.5t40 60.5t48.5 80.5l-20 43q-55 -88 -97 -142t-110 -130q-135 135 -254 147q-20 6 -41 7q-55 0 -139 -50 q33 27 55.5 51.5t73.5 96.5q31 55 46 101t32 100q10 41 14 40q0 2 -2 3v4q0 4 2 10q4 16 4 26q0 27 -22 62q-27 31 -62 31l-6 -2h-8q-16 -2 -60 -17q-47 -16 -79 -24q-14 6 -19.5 18t-7.5 35q-2 4 -2 12q0 12 -6 25.5t-29 36.5q-8 16 -31 16q-20 0 -32 -14q0 -2 -3 -6 q-6 -10 -6 -17q0 -14 17 -31q20 -35 20 -90q-6 -61 -24.5 -109t-46.5 -106q-20 -39 -27 -53zM207 -879q0 180 67 367q16 53 42 94t67 88q25 33 52.5 65t80.5 85q6 4 21 12q45 33 92 57q0 -6 8 -22q23 -43 39 -113.5t16 -218.5q0 -141 -22.5 -251.5t-59.5 -221.5 q-27 -74 -59.5 -121t-66 -71.5t-63.5 -34t-63 -13.5q-72 0 -111.5 83t-39.5 216z" />
<glyph unicode="{" horiz-adv-x="546" d="M-47 629q0 -31 21.5 -54.5t37.5 -27.5q8 0 25.5 -5t43 -20.5t48.5 -45.5t33 -77l14 -450q0 -27 5 -61.5t21.5 -72.5t48.5 -72t81 -54q49 -16 94 -17q20 0 49 4l8 2q35 2 51.5 10.5t16.5 20.5t-13.5 22.5t-29.5 10.5q-10 0 -19 -4l-145 4q-66 41 -90.5 101.5t-24.5 144.5 l-6 370q0 59 -14 102.5t-38 69t-47.5 39t-53.5 27.5q-43 16 -43 31v4q2 4 2 6q0 12 41 31q53 25 93 60.5t60 113.5l10 393q0 131 30 202.5t97 96.5h134q14 -4 24 -4q41 0 41 24q0 12 -19.5 22.5t-56.5 10.5l-8 2q-25 4 -49 4q-45 0 -94 -16q-49 -20 -81 -54t-48.5 -72 t-21.5 -73t-5 -61l-14 -449q-8 -47 -32 -77.5t-49.5 -46t-43 -20.5t-25.5 -5q-59 -45 -59 -90z" />
<glyph unicode="|" d="M104 0l64 -2v1849l-64 2v-1849z" />
<glyph unicode="}" horiz-adv-x="606" d="M-10 1544q0 -23 37 -22q14 0 28 4h133q70 -20 99.5 -92t29.5 -203l15 -393q20 -76 61 -112t94 -58q41 -18 41 -31q0 -2 2 -6v-4q0 -14 -45 -33q-29 -12 -51 -25.5t-44.5 -36t-36 -59.5t-13.5 -90v-14v-15l-4 -370q0 -86 -23.5 -146.5t-87.5 -103.5l-147 -4h-6q-6 2 -9 2 q-18 0 -31.5 -10.5t-13.5 -22.5t16.5 -20.5t51.5 -8.5q20 -6 55 -6q47 0 95 17q49 20 80.5 54t47 72.5t20.5 72.5t5 65l10 452q8 45 31 76t47.5 46.5t44 21.5t25.5 6q16 4 37.5 27.5t21.5 54.5q0 45 -59 90q-6 0 -25.5 4t-45 19.5t-49.5 46t-34 77.5l-16 447q0 27 -5 59.5 t-21.5 70.5t-49.5 72.5t-84 53.5q-49 16 -94 16q-25 0 -49 -4l-8 -2q-37 -2 -56.5 -12.5t-19.5 -22.5z" />
<glyph unicode="~" horiz-adv-x="841" d="M84 823q0 -14 10 -14q8 0 27 10q10 16 26 53q25 51 46.5 75t64.5 24h4l4 2q16 0 39 -15.5t64 -48.5q55 -43 80 -55q35 -27 86 -27q43 0 76.5 18.5t43.5 49.5q37 72 53.5 114t16.5 60q0 12 -8 12q-12 0 -31.5 -18.5t-30.5 -34.5q-18 -57 -44.5 -96t-73.5 -39q-39 0 -88 33 q-61 57 -103.5 86.5t-75.5 29.5l-6 -2h-6h-6q-4 2 -8 2q-29 0 -63 -21.5t-60 -70.5q-6 -23 -19 -61q-18 -53 -18 -66z" />
<glyph unicode="&#xa1;" d="M319 47q18 -51 41 -51q12 0 21.5 15.5t9.5 27.5q0 8 -4 8v1415q0 8 -12.5 28.5t-24.5 20.5q-20 0 -31 -51v-1413zM319 1796q4 -35 35 -39q16 2 24.5 9.5t10.5 27.5q-2 33 -35 37q-33 -2 -35 -35z" />
<glyph unicode="&#xa2;" d="M74 111l22 -15l80 152q12 -88 50 -146.5t89 -81.5q14 -8 29 -10l-43 -198h47l41 190q33 -4 64 -4q8 0 20 2h14q59 6 96.5 34.5t71.5 88.5q0 8 27 53q33 61 49 94l-26 37q-25 -47 -58 -112q-14 -29 -16 -31q-27 -47 -58.5 -80t-44.5 -35q-2 0 -14 -2q-20 -4 -41 -4h-16 q-14 2 -25 2q-25 0 -35 2l107 516q39 -8 63.5 -33.5t26.5 -66.5q10 -31 20 -31q8 0 23 37q-2 49 -36 88t-87 55l37 176l-45 -4l-35 -161q-10 2 -33 2q-78 0 -132 -29t-81 -70q-23 -27 -33 -72.5t-14 -123.5zM223 287v28q0 109 36 173.5t108 74.5q35 6 59 6q4 0 14 -2h19 l-105 -508q-53 23 -90 72t-39 123q0 8 -2 33z" />
<glyph unicode="&#xa3;" d="M332 727h59v154h70v65h-70v105h141v67h-200v-391z" />
<glyph unicode="&#xa4;" horiz-adv-x="868" d="M-4 299l4 -63q33 55 51.5 89.5t36.5 75.5q23 47 39 72q8 12 12 23.5t4 31.5q0 -10 47 -10h21q20 2 29 2q4 2 16 6q25 8 42 12.5t34 4.5q41 0 41 -37q-18 -66 -37 -114t-43.5 -89t-54 -79t-80.5 -101q-37 -29 -86 -70q-25 -18 -37 -28.5t-33 -24.5q16 0 45 2t35 2 q10 0 33 -2q16 -2 20 -2q25 6 68 23q33 12 47 14q4 10 33.5 24.5t68.5 14.5q27 0 54 -8q53 0 99 -29t87 -68q6 -12 20.5 -21t28.5 -9q25 0 33 20q35 37 59.5 66.5t47 61.5t43 65.5t57.5 95.5l-11 45q-37 -53 -66.5 -95t-57 -75t-53 -59.5t-56.5 -57.5q-141 125 -256 125 q-37 0 -85 -13.5t-120 -49.5l6 4q23 25 39.5 40t31.5 32.5t34.5 41t46.5 60.5q31 55 46 101t32 100q10 41 14 40q0 2 -2 3v4q0 4 2 10q4 16 4 26q0 27 -22 62q-27 31 -62 31l-6 -2h-8q-16 -2 -60 -17q-47 -16 -79 -24q-14 6 -19.5 18t-7.5 35q-2 4 -2 12q0 12 -6 25.5 t-29 36.5q-8 16 -31 16q-20 0 -32 -14q0 -2 -3 -6q-6 -10 -6 -17q0 -14 17 -31q20 -35 20 -90q-6 -61 -24.5 -109t-46.5 -106q-20 -39 -27 -53z" />
<glyph unicode="&#xa5;" d="M119 238h209v-232v4h55v-4v232h209v43h-209l-2 131h211v43h-209v147l188 316l-79 -7l-109 -198h-55l-109 198l-80 7l189 -316v-147h-209v-43h211l-2 -131h-209v-43z" />
<glyph unicode="&#xa6;" horiz-adv-x="438" d="M160 -326l57 2v791l-57 2v-795zM160 813h57v789l-57 -3v-786z" />
<glyph unicode="&#xa7;" horiz-adv-x="1107" d="M305 1034q2 -117 68 -178l176 -164q78 -55 120 -90t60.5 -60.5t24.5 -48t6 -63.5q-12 -68 -53 -94.5t-95 -26.5q-6 0 -14 2h-12h2q0 2 -13 4q-31 4 -47 11q-80 29 -105.5 58.5t-37.5 72.5q-6 18 -10 28l-53 11l2 -4q16 -76 53 -126.5t149 -86.5q47 -12 58 -13h22 q18 -2 21 -2q82 0 129 36t57 122q0 125 -96 186q-12 14 -53 41q66 4 104.5 41t46.5 117q0 111 -70 199l-231 200q-53 33 -83 55.5t-44 44t-19.5 44t-7.5 61.5q12 66 53.5 92.5t92.5 26.5h16q12 -2 15 -2q57 -6 57 -15q80 -27 106.5 -57.5t38.5 -73.5q4 -20 9 -28l53 -13v2 q-18 80 -56 132.5t-151 91.5q-2 0 -6 2q-23 8 -47 8q-113 0 -167.5 -34t-66.5 -126q0 -61 22.5 -106t76.5 -80q4 -2 16 -11.5t41 -27.5q-68 -4 -109 -42t-49 -116zM358 1026q12 61 46 89t77 28q19 0 37 -6q88 -70 138.5 -117t72 -80t26.5 -57.5t7 -65.5v-4 q-10 -55 -39 -81.5t-68 -26.5q-35 0 -69 20l-183 166q-27 27 -35 55.5t-10 79.5z" />
<glyph unicode="&#xa8;" horiz-adv-x="307" d="M23 938q3 -35 34 -39q33 4 37 37q-4 35 -37 37q-33 -4 -34 -35zM213 934q4 -35 35 -39q16 2 24.5 9t10.5 28q-2 33 -35 37q-33 -2 -35 -35z" />
<glyph unicode="&#xa9;" horiz-adv-x="700" d="M354 8l78 2v1215l-78 2v-1219z" />
<glyph unicode="&#xaa;" horiz-adv-x="1316" d="M219 231q0 -23 6 -47q20 -84 93 -130t188 -64q123 6 202.5 24.5t184.5 81.5q10 -8 33 -28q47 -41 80.5 -56.5t105.5 -15.5q51 10 87 38.5t71 88.5q0 8 26 53q33 61 50 94l-27 37q-25 -47 -57 -112q-14 -29 -17 -31q-31 -55 -57.5 -81t-63.5 -34q-14 -4 -28 -4 q-66 0 -150 92q23 27 80 109t86 121q10 27 33 77q33 76 45 108t23.5 74t20.5 100t19 148q0 184 -16 318.5t-49 253.5q-35 94 -68 155.5t-63.5 98.5t-59 58.5t-77.5 49.5l-5 2q-59 25 -101 33t-148 19q-27 4 -54 6q-115 -29 -179 -74t-118 -174q-35 -70 -55 -144.5 t-20 -168.5q0 -53 8 -117q18 -78 41.5 -135.5t64.5 -100.5q31 -37 65 -56t77 -19q66 0 151 51q2 2 15 20q43 61 61 103.5t18 111.5q0 33 -4 70q-16 10 -24 10q-20 0 -21 -41q0 -14 2 -43q2 -20 2 -24q-23 -94 -56.5 -136.5t-111.5 -56.5q-14 -4 -28 -4q-39 0 -72 25.5 t-56.5 65.5t-38 84t-24.5 89q-12 51 -12 105q0 70 17.5 137t41.5 123q51 125 117 179t170 54q78 0 203 -30q84 -33 141 -92.5t93 -139.5t58.5 -173t45.5 -224q8 -90 8 -176q0 -406 -180 -639q-39 -68 -67.5 -107t-53.5 -51q-143 113 -236.5 162t-191.5 49q-53 0 -115 -14 q-59 -12 -94 -48t-35 -88zM264 238q0 25 20.5 39t71.5 32q33 10 74 10q80 0 184.5 -44t223.5 -148q-68 -35 -122 -52.5t-130 -25.5q-125 0 -202 38t-105 99q-14 31 -15 52z" />
<glyph unicode="&#xab;" horiz-adv-x="911" d="M170 1530l213 -234q16 -10 29 -10q18 0 18 17q0 14 -16 36l-181 191l197 246q10 20 10 32q0 14 -10 15q-16 0 -43 -25zM430 1526l213 -234q14 -10 29 -10q16 0 16 16q0 14 -16 37l-180 191l196 246q12 20 12 32q0 14 -12 15q-16 0 -43 -25z" />
<glyph unicode="&#xac;" horiz-adv-x="1665" d="M211 690h1151v-530l59 -2v610h-1210v-78z" />
<glyph unicode="&#xad;" horiz-adv-x="763" d="M219 248h268v74h-268v-74z" />
<glyph unicode="&#xae;" horiz-adv-x="755" d="M53 1251q0 -25 25 -61q35 -90 35 -189q0 -96 -35 -178q6 -45 22 -45q14 0 29 37q37 109 37 201q0 94 -31 135q59 -39 174 -39q63 0 129 10.5t142 24.5q41 8 51 10l-176 -551l-164 -543q-12 -16 -12 -36q0 -27 18 -27q23 0 45 59l170 547l188 619q-47 0 -149 -27 q-131 -35 -211 -35q-104 0 -209 43q-2 33 -18.5 52.5t-36.5 19.5q-23 0 -23 -27z" />
<glyph unicode="&#xaf;" d="M123 1614h577v57h-577v-57z" />
<glyph unicode="&#xb0;" horiz-adv-x="481" d="M127 950q4 -55 32.5 -80.5t67.5 -25.5q41 0 70 26.5t31 87.5q-2 61 -32 86t-69 29q-39 -4 -68.5 -29.5t-31.5 -93.5zM158 952q2 47 19 64.5t52 21.5q31 -4 49.5 -20.5t22.5 -59.5q-4 -43 -20.5 -60t-53.5 -24q-35 6 -51 23.5t-18 54.5z" />
<glyph unicode="&#xb1;" d="M59 0h781l-2 70h-779v-70zM106 426h322v-305h57v307h318v68h-320l2 350l-61 -4v-346h-318v-70z" />
<glyph unicode="&#xb2;" d="M147 664q0 -10 5 -15h450l2 62h-356q14 23 47 43t98 51q115 55 178.5 105.5t63.5 125.5q0 43 -22.5 72t-57.5 43t-73 20.5t-74 6.5q-74 0 -131.5 -31t-106.5 -123h55q18 51 75.5 80t123.5 29q59 0 103 -27t51 -76q0 -29 -28 -60.5t-66 -57t-75.5 -44t-56.5 -24.5 q-115 -39 -160 -90.5t-45 -89.5z" />
<glyph unicode="&#xb3;" d="M117 797q2 -51 8 -74t25.5 -38t61.5 -23.5t128 -12.5q82 10 129 39t47 92v15q-2 8 -2 16q-8 39 -32.5 67.5t-90.5 47.5q-39 10 -39 16q0 4 37 8q66 23 86.5 51.5t28.5 69.5q0 76 -42 114t-122 46q-82 -4 -124 -10.5t-61.5 -19.5t-25.5 -34.5t-10 -72.5q0 -4 -2 -25h43 q0 78 34.5 95.5t153.5 17.5q66 0 86.5 -30t24.5 -89q-10 -37 -28.5 -56.5t-63.5 -19.5q-27 0 -64 8q-68 -12 -67 -47q-1 -35 77 -39q14 -6 49 -16q61 -20 84 -35.5t25 -52.5q0 -63 -30.5 -83t-80.5 -26q-16 -2 -20 -4h-8q-109 6 -140.5 24.5t-31.5 94.5h-43v-14z" />
<glyph unicode="&#xb4;" d="M94 801q0 -10 17 -10q2 0 8 2q10 2 14 2q92 18 313 129q201 98 201 202v11q-2 8 -2 10q0 29 -12 56.5t-45 27.5h-8q-8 -2 -13 -2q0 -18 6 -51q4 -29 5 -43q0 -39 -30 -72t-114 -72q-23 -20 -53.5 -36.5t-114.5 -51.5q-172 -74 -172 -102z" />
<glyph unicode="&#xb5;" horiz-adv-x="962" d="M76 -520q0 -27 8 -46.5t18 -19.5q18 0 29 58v708q70 -121 155 -182t175 -61q92 0 181 62t161 181v-196q0 -31 11 -57.5t24 -26.5q20 -1 20 73v1190q0 70 -22 70q-12 0 -22.5 -21.5t-10.5 -52.5v-891q-72 -137 -159 -205.5t-177 -68.5q-92 0 -177 68.5t-153 199.5v891 q0 88 -24 88q-25 0 -35 -88v-1649v-12q-2 -10 -2 -12z" />
<glyph unicode="&#xb6;" horiz-adv-x="872" d="M2 1438q0 -63 21.5 -129t68.5 -125q31 -45 87.5 -72.5t160.5 -62.5v-947q0 -45 9 -72.5t22 -27.5q27 0 26 102v1702h332v-1710q0 -94 29 -94q27 0 28 94l-2 1710h140q43 12 43 35t-41 35h-535h-10q-8 2 -12 2q-63 0 -140 -33t-118 -90q-57 -55 -82 -128t-25 -146 q0 -6 -2 -21v-22z" />
<glyph unicode="&#xb7;" d="M315 514h158v197h-158v-197z" />
<glyph unicode="&#xb8;" d="M193 -240v-71q57 -35 112 -35h17q10 2 18 2q29 14 51.5 47t22.5 66q4 20 4 36q0 53 -34 77t-89 24l-16 92l-46 2l7 -154q16 14 47 15q35 0 62.5 -17.5t27.5 -44.5q0 -12 -6 -24v-6q-6 -33 -22.5 -48.5t-72.5 -15.5q-20 6 -47.5 24.5t-35.5 30.5z" />
<glyph unicode="&#xb9;" d="M207 1061v2h2l4 -41q37 10 59.5 18.5t41 20.5t38 29.5t58.5 56.5q10 8 18 16v-522h59v567h-90q-59 -76 -116.5 -111.5t-73.5 -35.5z" />
<glyph unicode="&#xba;" horiz-adv-x="905" d="M76 1278q2 -33 16 -33q12 0 39 23l6 8q68 102 109 192.5t41 198.5q0 66 -19 131q115 -78 252 -78q117 0 262 58q6 2 31 8q29 10 41 10q35 0 41 -55l-797 -1688q-4 -16 -4 -26q0 -27 21 -27q20 0 53 20q51 45 107.5 65.5t113.5 20.5q84 0 160 -34.5t125 -73.5 q-100 -82 -168 -147.5t-106 -112.5t-56 -78t-35 -66q-6 -10 -10 -18q-88 -258 -88 -446q0 -164 61.5 -250t153.5 -86q109 0 207 107.5t135 291.5q12 37 28.5 154.5t16.5 292.5q-6 121 -19.5 185t-29.5 105q-6 14 -6 17q-4 4 -8 16q-6 18 -15 29q68 72 105 123t90 141l-23 43 q-18 -51 -58 -106.5t-97 -124.5q-16 -20 -29 -37q-86 72 -168 102.5t-158 30.5q-66 0 -122 -19.5t-101 -50.5l782 1649q-2 53 -14 73.5t-45 20.5q-18 0 -49 -6q-242 -51 -348 -51q-74 0 -125 20.5t-90 65.5q-25 14 -37 14q-23 0 -23 -49q8 -78 8 -135q0 -129 -35.5 -215 t-121.5 -203zM254 -874q0 168 76 395q20 53 50 103t58 81q4 6 8 8q31 39 60 70t80 76q10 10 22.5 20t36.5 31l57 45q25 -63 42.5 -143t17.5 -170q0 -41 -4 -82q0 -90 -5 -156t-13.5 -115t-20.5 -92t-33 -110l-6 -21q-51 -102 -108.5 -157.5t-129.5 -71.5q-86 0 -137 74.5 t-51 214.5z" />
<glyph unicode="&#xbb;" horiz-adv-x="911" d="M211 1804q0 -12 12 -32l197 -246l-180 -191q-18 -23 -19 -39q0 -14 19 -14q12 0 28 10l213 234l-215 268q-27 25 -43 25q-12 0 -12 -15zM471 1808q0 -12 10 -32l197 -246l-180 -191q-16 -23 -17 -36q0 -16 19 -17q12 0 28 10l213 234l-217 268q-27 25 -43 25 q-10 0 -10 -15z" />
<glyph unicode="&#xbc;" horiz-adv-x="1409" d="M6 1065v2h2l4 -41q66 16 101 39q18 12 36.5 29.5t59.5 56.5q4 6 16 16v-522h60v567h-88q-59 -76 -116.5 -111.5t-74.5 -35.5zM209 0h57l860 1192h-57zM856 139l340 -2v-112h49v114l76 -2v56h-76v409h-74l-315 -393v-70zM905 193l287 358v-358h-287z" />
<glyph unicode="&#xbd;" horiz-adv-x="1478" d="M6 1065v2h2l4 -41q66 16 101 39q18 12 36.5 29.5t59.5 56.5q4 6 16 16v-522h60v567h-88q-59 -76 -116.5 -111.5t-74.5 -35.5zM209 0h57l860 1192h-57zM950 45q0 -10 4 -14h451l2 61h-356q14 23 46.5 43.5t98.5 50.5q115 55 178.5 105.5t63.5 126.5q0 43 -22.5 71.5 t-57.5 43t-73 20.5t-75 6q-74 0 -131 -30.5t-106 -122.5h55q18 51 75.5 79.5t123.5 28.5q59 0 103 -26.5t50 -75.5q0 -29 -27.5 -61t-65.5 -57.5t-75.5 -44t-56.5 -24.5q-115 -39 -160 -90t-45 -90z" />
<glyph unicode="&#xbe;" horiz-adv-x="1423" d="M41 1067l2 2l2 -41q37 10 60.5 19.5t43 21.5t41 31.5t60.5 60.5q6 6 10 8v-522h59v567h-88q-59 -76 -117.5 -111.5t-72.5 -35.5zM209 0h57l860 1192h-57zM856 139l340 -2v-112h49v114l76 -2v56h-76v409h-74l-315 -393v-70zM905 193l287 358v-358h-287z" />
<glyph unicode="&#xbf;" d="M94 393q2 -98 35 -165.5t83 -105.5t102.5 -53.5t97.5 -15.5q27 0 43 4q39 0 92 14.5t108.5 50.5t93 102.5t37.5 164.5q0 63 -7 115.5t-31.5 111t-78 120t-137.5 120.5q-68 51 -96 102.5t-28 155.5q0 53 8 129v316q-18 45 -35 45q-16 0 -33 -45v-299q-4 -57 -4 -109 q0 -113 24.5 -183.5t77.5 -113.5q18 -10 60.5 -41t97.5 -89t97 -145t42 -190q-12 -127 -74.5 -187.5t-181.5 -82.5q-43 -12 -86 -13q-90 0 -158.5 56.5t-90.5 175.5q-8 20 -9 49q0 47 21 111q53 90 53 116q0 10 -6 11q-14 0 -45 -33t-47 -70q-25 -57 -25 -129zM358 1743 q4 -35 35 -39q33 4 37 37q-4 35 -37 37q-33 -4 -35 -35z" />
<glyph unicode="&#xc0;" horiz-adv-x="1871" d="M2 197q0 -20 5 -42t20 -55q51 -66 149 -86q33 -6 55 -6q53 0 104.5 39t102.5 143q61 203 107.5 389.5t87.5 401.5h37q25 -2 39 -2q12 0 39 2h45q8 2 22 2q16 2 21 2q37 -303 88 -493.5t139 -346.5q37 -45 60.5 -68.5t48 -35.5t55 -20.5t94.5 -20.5q6 0 16 -2h23 q43 0 89 14.5t85 48.5q25 -27 46.5 -37t59.5 -20l25 -8q49 8 86 37.5t72 89.5q0 6 24 51q31 57 49 96l-24 37q-25 -47 -57 -112q-14 -29 -17 -31q-31 -55 -58.5 -82t-60.5 -35q-33 0 -60.5 12.5t-49.5 40.5q25 43 41 104.5t16 125.5q0 47 -10 86q-16 63 -57 122.5t-99 82.5 q-31 4 -59 4q-76 0 -117 -35t-51 -117q0 -14 16 -14q27 0 31 39q20 47 52 63.5t69 16.5h20h9h4q51 -35 82.5 -72t44.5 -90q8 -37 8 -88q0 -94 -29 -162q-35 -49 -65.5 -77t-63.5 -32h-16q-10 -2 -17 -2q-74 0 -140.5 24.5t-107.5 72.5q-29 39 -64.5 116.5t-71.5 187 t-62.5 248t-34.5 287.5q86 14 123 23.5t65 19.5q29 16 50.5 31.5t48.5 40.5q31 27 49 41q47 68 47 90q0 10 -8 10q-12 0 -35 -19.5t-29 -33.5q-86 -68 -146 -95.5t-177 -41.5q-6 61 -21 237q-14 176 -25.5 303t-23.5 205q-2 59 -45 60q-41 0 -55 -62q-2 -6 -23 -139 q-63 -403 -106 -625q-29 2 -37 2q-41 2 -80 5.5t-86 7.5q-111 -14 -150.5 -48t-52.5 -83q-10 -14 -10 -37q0 -18 8 -19q10 0 23 23q37 68 68.5 87t131.5 21q39 -2 91 -6q66 -6 86 -6q-90 -451 -189 -782q-43 -74 -74.5 -108t-81.5 -34q-25 0 -51 9q-135 23 -135 139 q0 37 12 86q0 -2 2 -4v-2q-4 12 -49 6q-2 -14 -6 -37q-4 -43 -4 -59zM510 2277q0 -104 203 -202q219 -111 313 -129q4 0 14 -2q6 -2 9 -2q16 0 16 10q-2 31 -172 102q-84 35 -116 52.5t-52 35.5q-84 37 -114.5 71t-30.5 68q0 14 6 41q6 35 6 58q-4 0 -12 2h-9 q-35 0 -47 -26.5t-12 -57.5v-10q-2 -8 -2 -11zM643 1034q29 150 59.5 335t63.5 417q41 -539 63 -748q-16 0 -41 -4q-41 -2 -57 -4q-14 2 -43 2q-31 0 -45 2z" />
<glyph unicode="&#xc1;" horiz-adv-x="1871" d="M2 197q0 -20 5 -42t20 -55q51 -66 149 -86q33 -6 55 -6q53 0 104.5 39t102.5 143q61 203 107.5 389.5t87.5 401.5h37q25 -2 39 -2q12 0 39 2h45q8 2 22 2q16 2 21 2q37 -303 88 -493.5t139 -346.5q37 -45 60.5 -68.5t48 -35.5t55 -20.5t94.5 -20.5q6 0 16 -2h23 q43 0 89 14.5t85 48.5q25 -27 46.5 -37t59.5 -20l25 -8q49 8 86 37.5t72 89.5q0 6 24 51q31 57 49 96l-24 37q-25 -47 -57 -112q-14 -29 -17 -31q-31 -55 -58.5 -82t-60.5 -35q-33 0 -60.5 12.5t-49.5 40.5q25 43 41 104.5t16 125.5q0 47 -10 86q-16 63 -57 122.5t-99 82.5 q-31 4 -59 4q-76 0 -117 -35t-51 -117q0 -14 16 -14q27 0 31 39q20 47 52 63.5t69 16.5h20h9h4q51 -35 82.5 -72t44.5 -90q8 -37 8 -88q0 -94 -29 -162q-35 -49 -65.5 -77t-63.5 -32h-16q-10 -2 -17 -2q-74 0 -140.5 24.5t-107.5 72.5q-29 39 -64.5 116.5t-71.5 187 t-62.5 248t-34.5 287.5q86 14 123 23.5t65 19.5q29 16 50.5 31.5t48.5 40.5q31 27 49 41q47 68 47 90q0 10 -8 10q-12 0 -35 -19.5t-29 -33.5q-86 -68 -146 -95.5t-177 -41.5q-6 61 -21 237q-14 176 -25.5 303t-23.5 205q-2 59 -45 60q-41 0 -55 -62q-2 -6 -23 -139 q-63 -403 -106 -625q-29 2 -37 2q-41 2 -80 5.5t-86 7.5q-111 -14 -150.5 -48t-52.5 -83q-10 -14 -10 -37q0 -18 8 -19q10 0 23 23q37 68 68.5 87t131.5 21q39 -2 91 -6q66 -6 86 -6q-90 -451 -189 -782q-43 -74 -74.5 -108t-81.5 -34q-25 0 -51 9q-135 23 -135 139 q0 37 12 86q0 -2 2 -4v-2q-4 12 -49 6q-2 -14 -6 -37q-4 -43 -4 -59zM502 2017q0 -10 16 -10q2 0 8 2q10 2 15 2q98 20 313 129q201 98 201 201v12q-2 6 -2 10q0 29 -12.5 56.5t-45.5 27.5h-8q-8 -2 -12 -2q0 -18 6 -51q6 -29 6 -45q0 -37 -30.5 -70.5t-114.5 -70.5 q-23 -20 -53.5 -37t-114.5 -51q-168 -72 -172 -103zM643 1034q29 150 59.5 335t63.5 417q41 -539 63 -748q-16 0 -41 -4q-41 -2 -57 -4q-14 2 -43 2q-31 0 -45 2z" />
<glyph unicode="&#xc2;" horiz-adv-x="1871" d="M2 197q0 -20 5 -42t20 -55q51 -66 149 -86q33 -6 55 -6q53 0 104.5 39t102.5 143q61 203 107.5 389.5t87.5 401.5h37q25 -2 39 -2q12 0 39 2h45q8 2 22 2q16 2 21 2q37 -303 88 -493.5t139 -346.5q37 -45 60.5 -68.5t48 -35.5t55 -20.5t94.5 -20.5q6 0 16 -2h23 q43 0 89 14.5t85 48.5q25 -27 46.5 -37t59.5 -20l25 -8q49 8 86 37.5t72 89.5q0 6 24 51q31 57 49 96l-24 37q-25 -47 -57 -112q-14 -29 -17 -31q-31 -55 -58.5 -82t-60.5 -35q-33 0 -60.5 12.5t-49.5 40.5q25 43 41 104.5t16 125.5q0 47 -10 86q-16 63 -57 122.5t-99 82.5 q-31 4 -59 4q-76 0 -117 -35t-51 -117q0 -14 16 -14q27 0 31 39q20 47 52 63.5t69 16.5h20h9h4q51 -35 82.5 -72t44.5 -90q8 -37 8 -88q0 -94 -29 -162q-35 -49 -65.5 -77t-63.5 -32h-16q-10 -2 -17 -2q-74 0 -140.5 24.5t-107.5 72.5q-29 39 -64.5 116.5t-71.5 187 t-62.5 248t-34.5 287.5q86 14 123 23.5t65 19.5q29 16 50.5 31.5t48.5 40.5q31 27 49 41q47 68 47 90q0 10 -8 10q-12 0 -35 -19.5t-29 -33.5q-86 -68 -146 -95.5t-177 -41.5q-6 61 -21 237q-14 176 -25.5 303t-23.5 205q-2 59 -45 60q-41 0 -55 -62q-2 -6 -23 -139 q-63 -403 -106 -625q-29 2 -37 2q-41 2 -80 5.5t-86 7.5q-111 -14 -150.5 -48t-52.5 -83q-10 -14 -10 -37q0 -18 8 -19q10 0 23 23q37 68 68.5 87t131.5 21q39 -2 91 -6q66 -6 86 -6q-90 -451 -189 -782q-43 -74 -74.5 -108t-81.5 -34q-25 0 -51 9q-135 23 -135 139 q0 37 12 86q0 -2 2 -4v-2q-4 12 -49 6q-2 -14 -6 -37q-4 -43 -4 -59zM553 2089q0 -8 14 -8q18 0 60 20q74 23 124 61t62 66q10 -29 63.5 -65.5t127.5 -57.5q39 -18 57 -18q14 0 14 10q0 20 -47 45q-80 37 -114.5 73t-79.5 109q-19 29 -25 39l-21 -34q-41 -78 -74.5 -116 t-111.5 -75q-49 -27 -49 -49zM643 1034q29 150 59.5 335t63.5 417q41 -539 63 -748q-16 0 -41 -4q-41 -2 -57 -4q-14 2 -43 2q-31 0 -45 2z" />
<glyph unicode="&#xc3;" horiz-adv-x="1871" d="M2 197q0 -20 5 -42t20 -55q51 -66 149 -86q33 -6 55 -6q53 0 104.5 39t102.5 143q61 203 107.5 389.5t87.5 401.5h37q25 -2 39 -2q12 0 39 2h45q8 2 22 2q16 2 21 2q37 -303 88 -493.5t139 -346.5q37 -45 60.5 -68.5t48 -35.5t55 -20.5t94.5 -20.5q6 0 16 -2h23 q43 0 89 14.5t85 48.5q25 -27 46.5 -37t59.5 -20l25 -8q49 8 86 37.5t72 89.5q0 6 24 51q31 57 49 96l-24 37q-25 -47 -57 -112q-14 -29 -17 -31q-31 -55 -58.5 -82t-60.5 -35q-33 0 -60.5 12.5t-49.5 40.5q25 43 41 104.5t16 125.5q0 47 -10 86q-16 63 -57 122.5t-99 82.5 q-31 4 -59 4q-76 0 -117 -35t-51 -117q0 -14 16 -14q27 0 31 39q20 47 52 63.5t69 16.5h20h9h4q51 -35 82.5 -72t44.5 -90q8 -37 8 -88q0 -94 -29 -162q-35 -49 -65.5 -77t-63.5 -32h-16q-10 -2 -17 -2q-74 0 -140.5 24.5t-107.5 72.5q-29 39 -64.5 116.5t-71.5 187 t-62.5 248t-34.5 287.5q86 14 123 23.5t65 19.5q29 16 50.5 31.5t48.5 40.5q31 27 49 41q47 68 47 90q0 10 -8 10q-12 0 -35 -19.5t-29 -33.5q-86 -68 -146 -95.5t-177 -41.5q-6 61 -21 237q-14 176 -25.5 303t-23.5 205q-2 59 -45 60q-41 0 -55 -62q-2 -6 -23 -139 q-63 -403 -106 -625q-29 2 -37 2q-41 2 -80 5.5t-86 7.5q-111 -14 -150.5 -48t-52.5 -83q-10 -14 -10 -37q0 -18 8 -19q10 0 23 23q37 68 68.5 87t131.5 21q39 -2 91 -6q66 -6 86 -6q-90 -451 -189 -782q-43 -74 -74.5 -108t-81.5 -34q-25 0 -51 9q-135 23 -135 139 q0 37 12 86q0 -2 2 -4v-2q-4 12 -49 6q-2 -14 -6 -37q-4 -43 -4 -59zM471 2060q0 -14 10 -14q8 0 27 10q10 16 27 53q25 51 46 75t64 24h4q2 2 4 2q16 0 40 -15.5t63 -46.5q55 -45 80 -57q35 -27 86 -27q41 0 75.5 18.5t44.5 49.5q37 72 53.5 114t16.5 60q0 12 -8 12 q-12 0 -31.5 -18.5t-30.5 -34.5q-18 -57 -44.5 -96t-73.5 -39q-39 0 -88 33q-63 57 -104.5 86.5t-76.5 29.5l-6 -2h-6h-6q-4 2 -6 2q-31 0 -63.5 -22.5t-59.5 -69.5q-6 -20 -16 -55q-20 -57 -21 -72zM643 1034q29 150 59.5 335t63.5 417q41 -539 63 -748q-16 0 -41 -4 q-41 -2 -57 -4q-14 2 -43 2q-31 0 -45 2z" />
<glyph unicode="&#xc4;" horiz-adv-x="1871" d="M2 197q0 -20 5 -42t20 -55q51 -66 149 -86q33 -6 55 -6q53 0 104.5 39t102.5 143q61 203 107.5 389.5t87.5 401.5h37q25 -2 39 -2q12 0 39 2h45q8 2 22 2q16 2 21 2q37 -303 88 -493.5t139 -346.5q37 -45 60.5 -68.5t48 -35.5t55 -20.5t94.5 -20.5q6 0 16 -2h23 q43 0 89 14.5t85 48.5q25 -27 46.5 -37t59.5 -20l25 -8q49 8 86 37.5t72 89.5q0 6 24 51q31 57 49 96l-24 37q-25 -47 -57 -112q-14 -29 -17 -31q-31 -55 -58.5 -82t-60.5 -35q-33 0 -60.5 12.5t-49.5 40.5q25 43 41 104.5t16 125.5q0 47 -10 86q-16 63 -57 122.5t-99 82.5 q-31 4 -59 4q-76 0 -117 -35t-51 -117q0 -14 16 -14q27 0 31 39q20 47 52 63.5t69 16.5h20h9h4q51 -35 82.5 -72t44.5 -90q8 -37 8 -88q0 -94 -29 -162q-35 -49 -65.5 -77t-63.5 -32h-16q-10 -2 -17 -2q-74 0 -140.5 24.5t-107.5 72.5q-29 39 -64.5 116.5t-71.5 187 t-62.5 248t-34.5 287.5q86 14 123 23.5t65 19.5q29 16 50.5 31.5t48.5 40.5q31 27 49 41q47 68 47 90q0 10 -8 10q-12 0 -35 -19.5t-29 -33.5q-86 -68 -146 -95.5t-177 -41.5q-6 61 -21 237q-14 176 -25.5 303t-23.5 205q-2 59 -45 60q-41 0 -55 -62q-2 -6 -23 -139 q-63 -403 -106 -625q-29 2 -37 2q-41 2 -80 5.5t-86 7.5q-111 -14 -150.5 -48t-52.5 -83q-10 -14 -10 -37q0 -18 8 -19q10 0 23 23q37 68 68.5 87t131.5 21q39 -2 91 -6q66 -6 86 -6q-90 -451 -189 -782q-43 -74 -74.5 -108t-81.5 -34q-25 0 -51 9q-135 23 -135 139 q0 37 12 86q0 -2 2 -4v-2q-4 12 -49 6q-2 -14 -6 -37q-4 -43 -4 -59zM516 2144q4 -35 35 -39q16 2 24.5 9.5t10.5 27.5q-2 33 -35 37q-33 -2 -35 -35zM643 1034q29 150 59.5 335t63.5 417q41 -539 63 -748q-16 0 -41 -4q-41 -2 -57 -4q-14 2 -43 2q-31 0 -45 2zM924 2146 q3 -35 34 -39q33 4 37 37q-4 35 -37 37q-33 -4 -34 -35z" />
<glyph unicode="&#xc5;" horiz-adv-x="1871" d="M2 197q0 -20 5 -42t20 -55q51 -66 149 -86q33 -6 55 -6q53 0 104.5 39t102.5 143q61 203 107.5 389.5t87.5 401.5h37q25 -2 39 -2q12 0 39 2h45q8 2 22 2q16 2 21 2q37 -303 88 -493.5t139 -346.5q37 -45 60.5 -68.5t48 -35.5t55 -20.5t94.5 -20.5q6 0 16 -2h23 q43 0 89 14.5t85 48.5q25 -27 46.5 -37t59.5 -20l25 -8q49 8 86 37.5t72 89.5q0 6 24 51q31 57 49 96l-24 37q-25 -47 -57 -112q-14 -29 -17 -31q-31 -55 -58.5 -82t-60.5 -35q-33 0 -60.5 12.5t-49.5 40.5q25 43 41 104.5t16 125.5q0 47 -10 86q-16 63 -57 122.5t-99 82.5 q-31 4 -59 4q-76 0 -117 -35t-51 -117q0 -14 16 -14q27 0 31 39q20 47 52 63.5t69 16.5h20h9h4q51 -35 82.5 -72t44.5 -90q8 -37 8 -88q0 -94 -29 -162q-35 -49 -65.5 -77t-63.5 -32h-16q-10 -2 -17 -2q-74 0 -140.5 24.5t-107.5 72.5q-29 39 -64.5 116.5t-71.5 187 t-62.5 248t-34.5 287.5q86 14 123 23.5t65 19.5q29 16 50.5 31.5t48.5 40.5q31 27 49 41q47 68 47 90q0 10 -8 10q-12 0 -35 -19.5t-29 -33.5q-86 -68 -146 -95.5t-177 -41.5q-6 61 -21 237q-14 176 -25.5 303t-23.5 205q-2 59 -45 60q-41 0 -55 -62q-2 -6 -23 -139 q-63 -403 -106 -625q-29 2 -37 2q-41 2 -80 5.5t-86 7.5q-111 -14 -150.5 -48t-52.5 -83q-10 -14 -10 -37q0 -18 8 -19q10 0 23 23q37 68 68.5 87t131.5 21q39 -2 91 -6q66 -6 86 -6q-90 -451 -189 -782q-43 -74 -74.5 -108t-81.5 -34q-25 0 -51 9q-135 23 -135 139 q0 37 12 86q0 -2 2 -4v-2q-4 12 -49 6q-2 -14 -6 -37q-4 -43 -4 -59zM584 2193q8 -113 64 -165t134 -52q80 0 135.5 54.5t63.5 181.5q-2 68 -21.5 113t-49 70.5t-60.5 36.5t-68 15q-35 -4 -66.5 -16t-61 -39t-49 -76t-21.5 -123zM641 2202q8 94 43 129t98 39q63 -4 98 -38 t48 -120q-10 -88 -43 -123t-103 -47q-70 12 -101.5 46t-39.5 114zM643 1034q29 150 59.5 335t63.5 417q41 -539 63 -748q-16 0 -41 -4q-41 -2 -57 -4q-14 2 -43 2q-31 0 -45 2z" />
<glyph unicode="&#xc6;" horiz-adv-x="2781" d="M51 199q0 -20 6 -42t21 -57q47 -66 147 -86q33 -6 58 -6q53 0 104 39t102 143q61 203 107.5 389.5t87.5 401.5h37q25 -2 39 -2q12 0 39 2h45q10 2 22 2q10 0 21 2q37 -303 88 -493.5t139 -346.5q37 -45 60.5 -68.5t48 -35.5t55.5 -20.5t94 -20.5q6 0 17 -2h22 q43 0 89 14.5t85 48.5q25 -27 47.5 -38t59.5 -21l24 -6q59 8 99 25.5t79 62.5q113 -76 254 -76q123 0 246 58q18 -4 45 -23q29 -16 56.5 -27.5t80.5 -19.5q51 10 87 38.5t71 88.5q0 6 25 49q31 57 51 98l-27 37q-25 -47 -53 -106q-16 -35 -20 -37q-61 -106 -107 -107 q-18 -4 -43 -4q-33 0 -63.5 9.5t-51.5 33.5q25 4 51.5 32t48 73t34 97t12.5 103q0 94 -48.5 157t-154.5 67q-68 -14 -87.5 -53.5t-19.5 -98.5q0 -84 25 -84t25 74v12q-2 8 -2 12q0 88 71 88q57 0 119 -65q23 -68 23 -131q0 -113 -70 -190.5t-188 -100.5q-63 -20 -127 -20 q-86 0 -159 34.5t-127 95t-83 138.5t-29 162q0 106 50.5 206.5t152.5 178.5q27 14 59 41q31 25 52 32q61 -117 149 -116q61 0 102 65q12 23 13 58q0 49 -26.5 86.5t-78.5 37.5q-59 0 -141 -55q-33 37 -56.5 100.5t-33.5 120.5q43 -14 90 -14q39 0 102 14q16 4 21 4 q106 20 171.5 126t65.5 229t-63 203q-66 39 -131 38q-66 0 -123 -38.5t-99 -109.5t-65.5 -168t-23.5 -212q-90 16 -136.5 79.5t-46.5 158.5q0 115 66 233l8 12q10 16 10 25q0 6 -4 10q-18 0 -25.5 -5t-19.5 -23q-41 -51 -64.5 -119t-23.5 -137q0 -100 50 -177t151 -102 q12 -4 33 -10l12 -2q0 -2 -8 -4q16 -100 35.5 -154.5t58.5 -101.5q-18 -14 -66 -50q-70 -49 -111.5 -85.5t-79.5 -93t-59.5 -137.5t-21.5 -193q29 -201 156 -334q-23 -25 -58 -43.5t-71 -24.5q-33 0 -61 12.5t-50 40.5q25 45 40 106.5t15 125.5q0 45 -8 84q-16 63 -57 122.5 t-99 82.5q-31 4 -61 4q-74 0 -116 -36t-50 -116q0 -14 16 -14q27 0 31 39q20 47 52 63.5t69 16.5h21h8h4q51 -35 82.5 -72t42.5 -90q10 -39 10 -92q0 -92 -29 -158q-35 -49 -65.5 -77t-63.5 -32h-16q-10 -2 -16 -2q-74 0 -140.5 24.5t-107.5 72.5q-29 39 -66 115.5 t-71.5 187t-61.5 248t-35 288.5q86 14 123 23.5t66 19.5q29 16 50 31.5t48 40.5q31 27 49 41q47 68 47 90q0 10 -8 10q-14 0 -36.5 -19.5t-29.5 -33.5q-84 -68 -144 -95.5t-177 -41.5q-6 61 -21 237q-14 176 -25 303t-24 205q-2 59 -45 60q-41 0 -55 -62q-12 -70 -43 -260 q-51 -322 -86 -504q-12 0 -31 2q-39 2 -76.5 5.5t-95.5 7.5q-111 -14 -151.5 -48t-51.5 -83q-10 -16 -10 -37q0 -18 8 -19q8 0 23 23q37 68 68.5 87t132.5 21q33 -2 90 -6q59 -4 84 -6q-80 -416 -189 -782q-39 -72 -72.5 -107t-82.5 -35q-23 0 -50 9q-135 23 -135 139 q0 37 13 86q0 -2 2 -4v-2q-4 12 -52 6q0 -2 -4 -41q-6 -39 -6 -53zM692 1034q33 164 63.5 351.5t61.5 400.5l8 -119q35 -455 56 -629q-16 0 -41 -4q-41 -2 -58 -4q-16 2 -45 2q-29 2 -45 2zM1995 1303q0 145 29.5 244.5t72.5 153.5t89 76.5t83 22.5q2 0 12 -2h9 q61 -14 85.5 -63t24.5 -115q0 -27 -4 -57q-8 -49 -25.5 -93.5t-51 -84t-91 -65.5t-137.5 -26q-45 0 -96 9zM2114 991q4 2 36 21q10 6 33 14q6 0 15 2h12q37 0 55.5 -18.5t18.5 -46.5q0 -25 -15.5 -44.5t-42.5 -19.5q-23 0 -52.5 21.5t-59.5 70.5z" />
<glyph unicode="&#xc7;" horiz-adv-x="1406" d="M10 1475q0 -92 33 -207q14 -49 35.5 -85t85.5 -112q16 -25 35.5 -41t38.5 -26q4 -2 4 -3h-2q-4 2 -9 3q0 -6 -2 -21q-14 -131 -14 -217q0 -106 17.5 -223t58.5 -246q33 -78 84 -148.5t112 -101.5q49 -23 82 -31t78 -12q25 -2 37 -4l8 -154q16 14 47 15q35 0 62.5 -17.5 t27.5 -44.5q0 -12 -6 -24v-6q-6 -33 -22.5 -48.5t-71.5 -15.5q-20 6 -48 24.5t-38 30.5v-71q59 -35 115 -35h14q10 2 19 2q29 14 51 47t24 66q4 20 4 36q0 55 -35.5 78t-97.5 23l-8 92q115 10 167 29.5t112 60.5q31 -47 76.5 -69.5t117.5 -22.5q51 10 87 38.5t71 88.5 q0 8 26 53q33 61 50 94l-27 37q-25 -47 -57 -112q-14 -29 -17 -31q-57 -98 -108 -119q-35 -8 -62 -8q-39 0 -66.5 20.5t-58.5 65.5q47 74 61.5 121t16.5 112q-2 10 -4 35q-6 49 -15 86t-34 70q-4 4 -10 12q-18 20 -43 36.5t-82 29.5q-20 4 -37 4q-74 0 -119 -86 q6 -27 23 -27q16 0 34 31l5 2q14 12 29.5 19t39.5 7q33 0 74 -18q49 -47 67.5 -98t20.5 -148q-14 -96 -89 -167.5t-220 -84.5q-14 -6 -49 -6q-70 0 -149 26.5t-132 86.5q-63 92 -97 188.5t-52 249.5q-6 104 -7 195q0 111 11 178q92 -39 165.5 -56.5t141.5 -17.5q57 0 127 12 q70 20 127 62.5t99 94.5t69.5 103.5t42.5 94.5q41 129 41 213q0 88 -43 186q0 16 -34 62.5t-110 89.5l-30 8q-39 12 -68 18t-68 6q-33 0 -71 -6q-84 -18 -137.5 -51t-110.5 -115q-23 -29 -61.5 -111.5t-63.5 -158.5q-2 -14 -10 -47q-16 -59 -28.5 -121.5t-24.5 -169.5 q-53 51 -80 89t-70 116q-31 106 -31 186q0 53 11.5 99.5t33.5 115.5q10 37 17 56q14 14 14 51q0 29 -12 29q-20 0 -58 -82q-51 -145 -51 -258zM287 1044q8 53 14 107q12 78 21.5 125t35.5 139q12 47 28.5 85t49.5 104q8 14 17 30q25 39 48 64.5t58 52.5q61 29 96 40t76 11 q23 0 51 -4q76 -6 134.5 -49t91.5 -98q35 -109 34 -187q0 -78 -32 -178q-41 -102 -97.5 -167.5t-93.5 -88.5q-37 -31 -84 -46t-139 -23q-78 0 -162 22.5t-147 60.5z" />
<glyph unicode="&#xc8;" horiz-adv-x="1073" d="M-6 449q33 -209 154.5 -325t291.5 -116q121 1 244 58q18 -4 45 -23q29 -16 56.5 -27.5t80.5 -19.5q51 10 87 38.5t71 88.5q0 8 27 53q33 61 49 94l-27 37q-25 -47 -57 -112q-14 -29 -17 -31q-61 -106 -106 -107q-18 -4 -43 -4q-35 0 -65.5 9.5t-51.5 33.5q27 4 52.5 32 t47 73t35 97t13.5 103q0 94 -48.5 157t-154.5 67q-68 -14 -87.5 -53.5t-19.5 -98.5q0 -82 23 -82q25 0 24 72v12l-2 10q0 90 74 90q57 0 117 -65q25 -68 24 -131q0 -113 -69.5 -190.5t-188.5 -100.5q-63 -20 -127 -20q-86 0 -158.5 34.5t-127 95t-84 138.5t-29.5 162 q0 106 50 206.5t153 178.5q29 14 63 43q29 23 49 30q61 -117 150 -116q61 0 102 65q12 23 13 58q0 49 -27 86.5t-78 37.5q-59 0 -141 -55q-35 37 -58.5 102.5t-31.5 118.5q43 -14 90 -14q39 0 102 14q16 4 21 4q106 20 171.5 125t65.5 230q0 121 -65 203q-66 39 -131 38 q-66 0 -122 -38.5t-99 -110.5t-67 -168t-24 -211q-88 16 -134 79.5t-46 156.5q0 117 66 235q2 4 8 14q10 16 10 23q0 6 -4 10q-18 0 -26.5 -5t-20.5 -23q-41 -49 -64.5 -117t-23.5 -137q0 -102 51 -179t152 -102q12 -4 32 -10q12 -2 13 -2q0 -2 -8 -4q16 -100 35.5 -154.5 t58.5 -101.5q-18 -14 -66 -50q-70 -49 -111.5 -85.5t-79.5 -93t-59.5 -137.5t-21.5 -193zM283 1303q2 145 30.5 244.5t72.5 153.5t90 76.5t83 22.5q2 0 12 -2h9q61 -14 85.5 -63t24.5 -115q0 -27 -4 -57q-8 -47 -25.5 -92.5t-51.5 -85t-91 -65.5t-139 -26q-45 0 -96 9z M307 2277q0 -104 203 -202q219 -111 313 -129q12 -4 23 -4q16 0 16 10q-2 31 -172 102q-84 35 -115.5 51.5t-54.5 36.5q-82 37 -112.5 70t-30.5 69q0 14 6 41q6 37 6 58q-4 0 -12 2h-8q-35 0 -47.5 -26.5t-12.5 -57.5v-10q-2 -8 -2 -11zM403 991l41 23q9 6 27 12q6 0 14 2 h13q37 0 56 -18.5t19 -46.5q0 -25 -15 -44.5t-42 -19.5q-23 0 -52.5 21.5t-60.5 70.5z" />
<glyph unicode="&#xc9;" horiz-adv-x="1075" d="M-6 449q33 -209 154.5 -325t291.5 -116q121 1 244 58q18 -4 45 -23q29 -16 56.5 -27.5t80.5 -19.5q51 10 87 38.5t71 88.5q0 8 27 53q33 61 49 94l-27 37q-25 -47 -57 -112q-14 -29 -17 -31q-61 -106 -106 -107q-18 -4 -43 -4q-35 0 -65.5 9.5t-51.5 33.5q27 4 52.5 32 t47 73t35 97t13.5 103q0 94 -48.5 157t-154.5 67q-68 -14 -87.5 -53.5t-19.5 -98.5q0 -82 23 -82q25 0 24 72v12l-2 10q0 90 74 90q57 0 117 -65q25 -68 24 -131q0 -113 -69.5 -190.5t-188.5 -100.5q-63 -20 -127 -20q-86 0 -158.5 34.5t-127 95t-84 138.5t-29.5 162 q0 106 50 206.5t153 178.5q29 14 63 43q29 23 49 30q61 -117 150 -116q61 0 102 65q12 23 13 58q0 49 -27 86.5t-78 37.5q-59 0 -141 -55q-35 37 -58.5 102.5t-31.5 118.5q43 -14 90 -14q39 0 102 14q16 4 21 4q106 20 171.5 125t65.5 230q0 121 -65 203q-66 39 -131 38 q-66 0 -122 -38.5t-99 -110.5t-67 -168t-24 -211q-88 16 -134 79.5t-46 156.5q0 117 66 235q2 4 8 14q10 16 10 23q0 6 -4 10q-18 0 -26.5 -5t-20.5 -23q-41 -49 -64.5 -117t-23.5 -137q0 -102 51 -179t152 -102q12 -4 32 -10q12 -2 13 -2q0 -2 -8 -4q16 -100 35.5 -154.5 t58.5 -101.5q-18 -14 -66 -50q-70 -49 -111.5 -85.5t-79.5 -93t-59.5 -137.5t-21.5 -193zM135 1966q0 -10 17 -10q2 0 8 2q10 2 14 2q92 18 313 129q201 98 201 203v10q-2 8 -2 10q0 29 -12 56.5t-45 27.5h-8q-8 -2 -13 -2q0 -18 6 -51q4 -29 4 -43q0 -39 -29.5 -71.5 t-113.5 -71.5q-23 -20 -53.5 -37t-114.5 -52q-172 -74 -172 -102zM283 1303q2 145 30.5 244.5t72.5 153.5t90 76.5t83 22.5q2 0 12 -2h9q61 -14 85.5 -63t24.5 -115q0 -27 -4 -57q-8 -47 -25.5 -92.5t-51.5 -85t-91 -65.5t-139 -26q-45 0 -96 9zM403 991l41 23q9 6 27 12 q6 0 14 2h13q37 0 56 -18.5t19 -46.5q0 -25 -15 -44.5t-42 -19.5q-23 0 -52.5 21.5t-60.5 70.5z" />
<glyph unicode="&#xca;" horiz-adv-x="1071" d="M-6 449q33 -209 154.5 -325t291.5 -116q121 1 244 58q18 -4 45 -23q29 -16 56.5 -27.5t80.5 -19.5q51 10 87 38.5t71 88.5q0 8 27 53q33 61 49 94l-27 37q-25 -47 -57 -112q-14 -29 -17 -31q-61 -106 -106 -107q-18 -4 -43 -4q-35 0 -65.5 9.5t-51.5 33.5q27 4 52.5 32 t47 73t35 97t13.5 103q0 94 -48.5 157t-154.5 67q-68 -14 -87.5 -53.5t-19.5 -98.5q0 -82 23 -82q25 0 24 72v12l-2 10q0 90 74 90q57 0 117 -65q25 -68 24 -131q0 -113 -69.5 -190.5t-188.5 -100.5q-63 -20 -127 -20q-86 0 -158.5 34.5t-127 95t-84 138.5t-29.5 162 q0 106 50 206.5t153 178.5q29 14 63 43q29 23 49 30q61 -117 150 -116q61 0 102 65q12 23 13 58q0 49 -27 86.5t-78 37.5q-59 0 -141 -55q-35 37 -58.5 102.5t-31.5 118.5q43 -14 90 -14q39 0 102 14q16 4 21 4q106 20 171.5 125t65.5 230q0 121 -65 203q-66 39 -131 38 q-66 0 -122 -38.5t-99 -110.5t-67 -168t-24 -211q-88 16 -134 79.5t-46 156.5q0 117 66 235q2 4 8 14q10 16 10 23q0 6 -4 10q-18 0 -26.5 -5t-20.5 -23q-41 -49 -64.5 -117t-23.5 -137q0 -102 51 -179t152 -102q12 -4 32 -10q12 -2 13 -2q0 -2 -8 -4q16 -100 35.5 -154.5 t58.5 -101.5q-18 -14 -66 -50q-70 -49 -111.5 -85.5t-79.5 -93t-59.5 -137.5t-21.5 -193zM242 2071q0 -8 12 -9q18 0 59 21q74 23 125 60.5t62 66.5q10 -29 63 -66t127 -57q39 -18 58 -19q14 0 14 11q0 20 -47 45q-80 37 -115 72.5t-80 109.5q-18 29 -24 39l-21 -35 q-41 -78 -74.5 -115.5t-111.5 -74.5q-47 -27 -47 -49zM283 1303q2 145 30.5 244.5t72.5 153.5t90 76.5t83 22.5q2 0 12 -2h9q61 -14 85.5 -63t24.5 -115q0 -27 -4 -57q-8 -47 -25.5 -92.5t-51.5 -85t-91 -65.5t-139 -26q-45 0 -96 9zM403 991l41 23q9 6 27 12q6 0 14 2h13 q37 0 56 -18.5t19 -46.5q0 -25 -15 -44.5t-42 -19.5q-23 0 -52.5 21.5t-60.5 70.5z" />
<glyph unicode="&#xcb;" horiz-adv-x="1075" d="M-6 449q33 -209 154.5 -325t291.5 -116q121 1 244 58q18 -4 45 -23q29 -16 56.5 -27.5t80.5 -19.5q51 10 87 38.5t71 88.5q0 8 27 53q33 61 49 94l-27 37q-25 -47 -57 -112q-14 -29 -17 -31q-61 -106 -106 -107q-18 -4 -43 -4q-35 0 -65.5 9.5t-51.5 33.5q27 4 52.5 32 t47 73t35 97t13.5 103q0 94 -48.5 157t-154.5 67q-68 -14 -87.5 -53.5t-19.5 -98.5q0 -82 23 -82q25 0 24 72v12l-2 10q0 90 74 90q57 0 117 -65q25 -68 24 -131q0 -113 -69.5 -190.5t-188.5 -100.5q-63 -20 -127 -20q-86 0 -158.5 34.5t-127 95t-84 138.5t-29.5 162 q0 106 50 206.5t153 178.5q29 14 63 43q29 23 49 30q61 -117 150 -116q61 0 102 65q12 23 13 58q0 49 -27 86.5t-78 37.5q-59 0 -141 -55q-35 37 -58.5 102.5t-31.5 118.5q43 -14 90 -14q39 0 102 14q16 4 21 4q106 20 171.5 125t65.5 230q0 121 -65 203q-66 39 -131 38 q-66 0 -122 -38.5t-99 -110.5t-67 -168t-24 -211q-88 16 -134 79.5t-46 156.5q0 117 66 235q2 4 8 14q10 16 10 23q0 6 -4 10q-18 0 -26.5 -5t-20.5 -23q-41 -49 -64.5 -117t-23.5 -137q0 -102 51 -179t152 -102q12 -4 32 -10q12 -2 13 -2q0 -2 -8 -4q16 -100 35.5 -154.5 t58.5 -101.5q-18 -14 -66 -50q-70 -49 -111.5 -85.5t-79.5 -93t-59.5 -137.5t-21.5 -193zM283 1303q2 145 30.5 244.5t72.5 153.5t90 76.5t83 22.5q2 0 12 -2h9q61 -14 85.5 -63t24.5 -115q0 -27 -4 -57q-8 -47 -25.5 -92.5t-51.5 -85t-91 -65.5t-139 -26q-45 0 -96 9z M309 2173q4 -35 35 -39q33 4 37 37q-4 35 -37 37q-33 -4 -35 -35zM403 991l41 23q9 6 27 12q6 0 14 2h13q37 0 56 -18.5t19 -46.5q0 -25 -15 -44.5t-42 -19.5q-23 0 -52.5 21.5t-60.5 70.5zM717 2175q4 -35 35 -39q33 4 36 37q-6 35 -36 37q-33 -4 -35 -35z" />
<glyph unicode="&#xcc;" horiz-adv-x="952" d="M-4 1214q8 -4 16 -4q35 0 60.5 55.5t44 139.5t29 160.5t20.5 167.5q6 45 6 51q59 -39 107.5 -54.5t93.5 -15.5q39 0 112 19q70 16 113 20q-6 -195 -6 -371q0 -119 4 -297q2 -201 2 -323v-164q-2 -76 -2 -104q0 -18 2 -54v-57q0 -72 -16.5 -131t-55.5 -104.5t-103.5 -70 t-156.5 -24.5q-47 0 -104 6q-51 20 -73.5 54t-43.5 92q4 29 6 49q2 12 2 18v7q-2 8 -2 14q-6 8 -14 8q-25 0 -33 -51q0 -6 -2 -14v-17q0 -25 8 -63q20 -68 49 -93.5t68 -42.5q8 -2 16 -6q53 -14 125 -14q29 0 49 -2h17q68 8 119 30.5t92 55.5q29 -51 62.5 -64.5t115.5 -19.5 l18 -2q51 8 87 36.5t71 88.5q0 6 25 49q31 57 51 98l-27 37q-25 -47 -53 -106q-16 -35 -21 -37q-35 -59 -54 -84t-50 -41h-22q-20 -2 -33 -2q-45 0 -78 18.5t-49 69.5q14 16 24.5 39.5t30.5 75.5l6 18q6 94 8 313q0 119 2 197q-2 72 -2 143q0 29 2 72v90v189q-2 131 -2 196 q0 162 6.5 260.5t24.5 132.5q-8 12 -26 13q-18 0 -46 -11.5t-73 -33.5q-45 -23 -72 -33t-45 -10q-12 0 -18 4q-29 -10 -54 -11q-29 0 -53.5 11.5t-58.5 31.5q-37 23 -66 35.5t-65 12.5q0 -164 -21.5 -311.5t-93.5 -334.5zM117 2312q0 -104 202 -203q219 -111 314 -129 q4 0 14 -2q6 -2 8 -2q16 0 17 11q-2 31 -172 102q-84 35 -116 52.5t-52 35.5q-84 37 -115 70.5t-31 68.5q0 14 7 41q6 35 6 58q-4 0 -13 2h-8q-35 0 -47 -27t-12 -57v-11q-2 -8 -2 -10z" />
<glyph unicode="&#xcd;" horiz-adv-x="952" d="M-4 1214q8 -4 16 -4q35 0 60.5 55.5t44 139.5t29 160.5t20.5 167.5q6 45 6 51q59 -39 107.5 -54.5t93.5 -15.5q39 0 112 19q70 16 113 20q-6 -195 -6 -371q0 -119 4 -297q2 -201 2 -323v-164q-2 -76 -2 -104q0 -18 2 -54v-57q0 -72 -16.5 -131t-55.5 -104.5t-103.5 -70 t-156.5 -24.5q-47 0 -104 6q-51 20 -73.5 54t-43.5 92q4 29 6 49q2 12 2 18v7q-2 8 -2 14q-6 8 -14 8q-25 0 -33 -51q0 -6 -2 -14v-17q0 -25 8 -63q20 -68 49 -93.5t68 -42.5q8 -2 16 -6q53 -14 125 -14q29 0 49 -2h17q68 8 119 30.5t92 55.5q29 -51 62.5 -64.5t115.5 -19.5 l18 -2q51 8 87 36.5t71 88.5q0 6 25 49q31 57 51 98l-27 37q-25 -47 -53 -106q-16 -35 -21 -37q-35 -59 -54 -84t-50 -41h-22q-20 -2 -33 -2q-45 0 -78 18.5t-49 69.5q14 16 24.5 39.5t30.5 75.5l6 18q6 94 8 313q0 119 2 197q-2 72 -2 143q0 29 2 72v90v189q-2 131 -2 196 q0 162 6.5 260.5t24.5 132.5q-8 12 -26 13q-18 0 -46 -11.5t-73 -33.5q-45 -23 -72 -33t-45 -10q-12 0 -18 4q-29 -10 -54 -11q-29 0 -53.5 11.5t-58.5 31.5q-37 23 -66 35.5t-65 12.5q0 -164 -21.5 -311.5t-93.5 -334.5zM135 1966q0 -10 17 -10q2 0 8 2q10 2 14 2 q92 18 313 129q201 98 201 203v10q-2 8 -2 10q0 29 -12 56.5t-45 27.5h-8q-8 -2 -13 -2q0 -18 6 -51q4 -29 4 -43q0 -39 -29.5 -71.5t-113.5 -71.5q-23 -20 -53.5 -37t-114.5 -52q-172 -74 -172 -102z" />
<glyph unicode="&#xce;" horiz-adv-x="952" d="M-4 1214q8 -4 16 -4q35 0 60.5 55.5t44 139.5t29 160.5t20.5 167.5q6 45 6 51q59 -39 107.5 -54.5t93.5 -15.5q39 0 112 19q70 16 113 20q-6 -195 -6 -371q0 -119 4 -297q2 -201 2 -323v-164q-2 -76 -2 -104q0 -18 2 -54v-57q0 -72 -16.5 -131t-55.5 -104.5t-103.5 -70 t-156.5 -24.5q-47 0 -104 6q-51 20 -73.5 54t-43.5 92q4 29 6 49q2 12 2 18v7q-2 8 -2 14q-6 8 -14 8q-25 0 -33 -51q0 -6 -2 -14v-17q0 -25 8 -63q20 -68 49 -93.5t68 -42.5q8 -2 16 -6q53 -14 125 -14q29 0 49 -2h17q68 8 119 30.5t92 55.5q29 -51 62.5 -64.5t115.5 -19.5 l18 -2q51 8 87 36.5t71 88.5q0 6 25 49q31 57 51 98l-27 37q-25 -47 -53 -106q-16 -35 -21 -37q-35 -59 -54 -84t-50 -41h-22q-20 -2 -33 -2q-45 0 -78 18.5t-49 69.5q14 16 24.5 39.5t30.5 75.5l6 18q6 94 8 313q0 119 2 197q-2 72 -2 143q0 29 2 72v90v189q-2 131 -2 196 q0 162 6.5 260.5t24.5 132.5q-8 12 -26 13q-18 0 -46 -11.5t-73 -33.5q-45 -23 -72 -33t-45 -10q-12 0 -18 4q-29 -10 -54 -11q-29 0 -53.5 11.5t-58.5 31.5q-37 23 -66 35.5t-65 12.5q0 -164 -21.5 -311.5t-93.5 -334.5zM119 2089q0 -8 14 -8q18 0 60 20q74 23 124 61 t62 66q10 -29 63.5 -65.5t126.5 -57.5q39 -18 58 -18q14 0 14 10q0 20 -47 45q-80 37 -115 73t-80 109q-18 29 -24 39l-21 -34q-41 -78 -74.5 -116t-111.5 -75q-49 -27 -49 -49z" />
<glyph unicode="&#xcf;" horiz-adv-x="946" d="M-4 1214q8 -4 16 -4q35 0 60.5 55.5t44 139.5t29 160.5t20.5 167.5q6 45 6 51q59 -39 107.5 -54.5t93.5 -15.5q39 0 112 19q70 16 113 20q-6 -195 -6 -371q0 -119 4 -297q2 -201 2 -323v-164q-2 -76 -2 -104q0 -18 2 -54v-57q0 -72 -16.5 -131t-55.5 -104.5t-103.5 -70 t-156.5 -24.5q-47 0 -104 6q-51 20 -73.5 54t-43.5 92q4 29 6 49q2 12 2 18v7q-2 8 -2 14q-6 8 -14 8q-25 0 -33 -51q0 -6 -2 -14v-17q0 -25 8 -63q20 -68 49 -93.5t68 -42.5q8 -2 16 -6q53 -14 125 -14q29 0 49 -2h17q68 8 119 30.5t92 55.5q29 -51 62.5 -64.5t115.5 -19.5 l18 -2q51 8 87 36.5t71 88.5q0 6 25 49q31 57 51 98l-27 37q-25 -47 -53 -106q-16 -35 -21 -37q-35 -59 -54 -84t-50 -41h-22q-20 -2 -33 -2q-45 0 -78 18.5t-49 69.5q14 16 24.5 39.5t30.5 75.5l6 18q6 94 8 313q0 119 2 197q-2 72 -2 143q0 29 2 72v90v189q-2 131 -2 196 q0 162 6.5 260.5t24.5 132.5q-8 12 -26 13q-18 0 -46 -11.5t-73 -33.5q-45 -23 -72 -33t-45 -10q-12 0 -18 4q-29 -10 -54 -11q-29 0 -53.5 11.5t-58.5 31.5q-37 23 -66 35.5t-65 12.5q0 -164 -21.5 -311.5t-93.5 -334.5zM160 2179q2 -20 10.5 -28.5t22.5 -10.5q33 4 36 37 q-6 35 -36 37q-33 -4 -33 -35zM567 2181q2 -20 10.5 -28.5t24.5 -10.5q16 2 24.5 9.5t10.5 27.5q-2 33 -35 37q-33 -2 -35 -35z" />
<glyph unicode="&#xd0;" horiz-adv-x="1380" d="M0 209q0 -80 42 -139.5t142 -69.5q4 0 15 -2h16q33 0 64.5 10t70.5 29q33 16 43 18q43 27 82 60q14 10 21 14q14 -8 41 -31q51 -43 90 -55q49 -27 68.5 -33t54.5 -10q59 0 96 10t78 29q29 12 49 18t47 6v-2q-2 0 -2 -2q0 -12 38 -30.5t118 -32.5q49 8 85.5 37.5 t71.5 89.5q0 6 25 51q31 57 49 96l-25 37q-25 -47 -57 -112q-14 -29 -16 -31q-61 -106 -107 -107q-12 0 -32.5 1t-45 6.5t-45 14.5t-30.5 25q82 123 113.5 308.5t33.5 478.5q-6 139 -33.5 285.5t-66.5 287.5q-96 195 -228.5 292t-353.5 97q-12 0 -27 -2h-28q-63 -8 -140 -45 t-150 -103.5t-120 -168.5t-47 -236q0 -4 2 -26v-27q2 -86 67.5 -142t143.5 -56q57 0 99 35.5t50 105.5v20q-2 49 -2 103q-27 0 -40 -21.5t-13 -44.5q0 -12 4 -16v-10q2 -6 2 -11q0 -45 -27.5 -67.5t-70.5 -22.5q-45 0 -88 21.5t-61 56.5q-14 63 -15 125q0 154 96 276 q41 49 93.5 91.5t113.5 76.5q43 23 70 30t72 9h10q8 2 12 2q12 0 43 -4q10 0 25 -2q-12 -31 -17.5 -59.5t-5.5 -69.5q0 -61 -2 -143v-139q0 -123 2 -355q2 -221 2 -327q0 -203 -6 -359q0 -37 -16.5 -86t-34.5 -49q-18 6 -74 53q-66 57 -121 91t-118 34q-90 0 -175 -86 q-8 -12 -14 -38.5t-6 -57.5zM45 242q41 92 129 92q63 0 141 -45t154 -121q-31 -27 -61.5 -47.5t-51.5 -28.5q-70 -47 -147 -47q-72 0 -118 48.5t-46 148.5zM254 727q0 -14 10 -14q12 0 37 24l6 11q18 39 47 67.5t84 28.5q27 0 56 -8q31 -14 77 -15q84 0 162 43 q27 10 84.5 39t110.5 64q27 23 26 39q0 12 -14 12q-12 0 -27 -17q-20 -10 -73 -38q-74 -41 -95 -48q-47 -23 -97 -35t-93 -12q-37 0 -63 9q-27 10 -56 10q-59 0 -108 -39t-66 -92q-8 -14 -8 -29zM557 176q31 35 45 82t19 102v1317q4 41 8 65.5t12 49.5q4 -2 6 -2 q27 -6 45 -8q119 -33 199 -100.5t130 -175t79.5 -256t52.5 -369.5q0 -6 -2 -19q-16 -268 -32.5 -401t-57.5 -225.5t-122 -136.5t-224 -46l-27 15q-57 33 -88 55t-43 53z" />
<glyph unicode="&#xd1;" horiz-adv-x="1957" d="M2 197q0 -20 5 -42t20 -55q51 -66 149 -86q33 -6 55 -6q53 0 104.5 39t102.5 143q51 168 92 331t79 347.5t75 400.5t82 517q12 27 29 26q27 0 32 -81l125 -1604q10 -45 26.5 -78t51.5 -47q6 0 25 -2q10 -2 18 -2q29 0 49.5 12.5t40.5 42.5q20 53 27 92q6 31 12 72 q8 -8 31 -35q35 -39 54.5 -59.5t43 -37.5t58 -33.5t90.5 -37.5q94 -23 172 -22q51 0 100 10q47 4 82 32.5t72 88.5q0 6 24 51q31 57 49 96l-24 37q-25 -47 -58 -112q-14 -29 -16 -31q-29 -49 -54.5 -73.5t-51.5 -33.5q-59 -18 -123 -18q-82 0 -191 35q-41 18 -69.5 33.5 t-55 37t-55.5 50t-70 77.5q23 117 64 416q25 180 44 304t42.5 245t52.5 218t64 155q37 90 93 141t118 55q70 -2 122 -38.5t66 -75.5q29 -61 29 -150q0 -66 -17 -117q-25 -57 -49 -86.5t-76 -60.5q-4 0 -12 -2q-10 -2 -16 -2q-31 0 -62 14.5t-53 44.5q-14 82 -39 82 q-14 0 -22 -35q25 -86 59.5 -119.5t97.5 -33.5q29 0 68 6q57 23 98 82t57 123q12 53 13 112q0 61 -14.5 115.5t-43.5 87.5q-2 6 -9 18.5t-27 20.5q-39 35 -85.5 49t-89.5 14h-22q-10 -2 -16 -2q-53 -10 -103.5 -59t-89.5 -129q-43 -84 -73.5 -175t-55.5 -203.5t-44 -232.5 t-56 -366q-45 -309 -78 -514q-16 -125 -72 -125q-45 0 -63 86l-138 1608q-2 43 -11 66.5t-25 43.5q-16 16 -45 17q-25 0 -46.5 -16.5t-29.5 -53.5q-10 -63 -33 -203q-68 -428 -130.5 -742t-162.5 -654q-29 -63 -72 -102.5t-92 -39.5q-23 0 -43 9q-70 20 -99.5 56t-29.5 83 q0 20 4 43q10 12 11 35q0 43 -21 43q-16 0 -35 -35q-2 -14 -6 -37q-4 -43 -4 -59zM907 2075q0 -14 11 -15q8 0 26 11q8 16 25 51q25 51 46 75.5t66 24.5h4q2 2 5 2q14 0 36.5 -15.5t61.5 -45.5q59 -45 84 -58q35 -27 86 -26q41 0 76 18t45 49q37 72 53 114t16 60q0 12 -8 13 q-12 0 -31.5 -18.5t-29.5 -35.5q-20 -57 -46 -96t-73 -39q-39 0 -88 33l-4 4q-63 57 -103.5 85t-72.5 28l-7 -2h-6h-6q-4 2 -8 2q-29 0 -61.5 -22.5t-59.5 -69.5q-6 -20 -16 -56q-20 -57 -21 -71z" />
<glyph unicode="&#xd2;" horiz-adv-x="1316" d="M4 629q6 -55 13.5 -97.5t20.5 -84t34.5 -89t54.5 -108.5q4 -6 20 -31q37 -53 58.5 -77.5t79.5 -78.5q33 -33 68.5 -44t115.5 -23l37 -6q121 4 193.5 19.5t142.5 60.5q53 -49 105 -61.5t165 -12.5q51 10 87 38.5t71 88.5q0 8 26 53q33 61 50 94l-27 37q-25 -47 -57 -112 q-14 -29 -17 -31q-31 -55 -56.5 -81t-62.5 -38q-49 -12 -90 -12q-45 0 -82.5 15t-64.5 54q33 33 57.5 65t44 65.5t39 78.5t45.5 111q35 115 56.5 250t23.5 200q0 20 2 48v41q0 86 -9 158.5t-28 164.5q-14 80 -20 113q-84 260 -219 375q-35 18 -54.5 27t-48 19.5t-64.5 18.5 t-98 21q-113 -18 -179 -62.5t-122 -175.5q-27 -70 -43 -152t-16 -182q0 -45 4 -90q6 -70 28.5 -133.5t65.5 -108.5q33 -35 67 -55t77 -20q66 0 149 51q2 2 15 20q43 61 61 103.5t18 111.5q0 33 -4 70q-12 4 -20 4q-25 0 -25 -35q0 -10 2 -28q2 -20 2 -31q-10 -90 -51 -147.5 t-119 -71.5h-8h-8q-74 0 -133.5 78.5t-73.5 232.5q0 119 16.5 204t40.5 158l5 15q78 188 241 188q111 0 254 -86q72 -55 135.5 -202.5t96.5 -376.5q10 -92 10 -189q0 -154 -27.5 -311.5t-87.5 -304.5q-29 -55 -60.5 -101.5t-76.5 -85.5t-106.5 -64.5t-141.5 -31.5l-27 2 q-90 4 -131 9.5t-72.5 19.5t-63.5 44t-89 95q-59 82 -99 166t-57 193q-10 61 -10 135q0 78 9.5 156.5t27.5 183.5q20 115 21 147q0 27 -9 35q-12 -8 -26.5 -49t-25.5 -97.5t-18 -94.5t-14 -81v-8q-8 -78 -11 -133t-3 -143zM410 2273q0 -104 200 -202q221 -111 314 -129 q4 0 14 -3q6 -2 8 -2q16 0 17 11q0 29 -172 102q-84 35 -114.5 51.5t-53.5 36.5q-82 37 -113 71t-31 70q0 12 4 41q6 35 6 56q-4 0 -12 2h-8q-33 0 -45 -28t-12 -56v-10q-2 -8 -2 -11z" />
<glyph unicode="&#xd3;" horiz-adv-x="1316" d="M4 629q6 -55 13.5 -97.5t20.5 -84t34.5 -89t54.5 -108.5q4 -6 20 -31q37 -53 58.5 -77.5t79.5 -78.5q33 -33 68.5 -44t115.5 -23l37 -6q121 4 193.5 19.5t142.5 60.5q53 -49 105 -61.5t165 -12.5q51 10 87 38.5t71 88.5q0 8 26 53q33 61 50 94l-27 37q-25 -47 -57 -112 q-14 -29 -17 -31q-31 -55 -56.5 -81t-62.5 -38q-49 -12 -90 -12q-45 0 -82.5 15t-64.5 54q33 33 57.5 65t44 65.5t39 78.5t45.5 111q35 115 56.5 250t23.5 200q0 20 2 48v41q0 86 -9 158.5t-28 164.5q-14 80 -20 113q-84 260 -219 375q-35 18 -54.5 27t-48 19.5t-64.5 18.5 t-98 21q-113 -18 -179 -62.5t-122 -175.5q-27 -70 -43 -152t-16 -182q0 -45 4 -90q6 -70 28.5 -133.5t65.5 -108.5q33 -35 67 -55t77 -20q66 0 149 51q2 2 15 20q43 61 61 103.5t18 111.5q0 33 -4 70q-12 4 -20 4q-25 0 -25 -35q0 -10 2 -28q2 -20 2 -31q-10 -90 -51 -147.5 t-119 -71.5h-8h-8q-74 0 -133.5 78.5t-73.5 232.5q0 119 16.5 204t40.5 158l5 15q78 188 241 188q111 0 254 -86q72 -55 135.5 -202.5t96.5 -376.5q10 -92 10 -189q0 -154 -27.5 -311.5t-87.5 -304.5q-29 -55 -60.5 -101.5t-76.5 -85.5t-106.5 -64.5t-141.5 -31.5l-27 2 q-90 4 -131 9.5t-72.5 19.5t-63.5 44t-89 95q-59 82 -99 166t-57 193q-10 61 -10 135q0 78 9.5 156.5t27.5 183.5q20 115 21 147q0 27 -9 35q-12 -8 -26.5 -49t-25.5 -97.5t-18 -94.5t-14 -81v-8q-8 -78 -11 -133t-3 -143zM326 1976q0 -10 16 -10q10 0 23 4q96 18 313 129 q203 98 203 203v10q-2 8 -2 10q0 31 -12.5 57.5t-47.5 26.5h-8q-8 -2 -12 -2q0 -18 6 -51q6 -31 6 -45q0 -37 -30.5 -70.5t-112.5 -70.5q-23 -20 -54.5 -36.5t-115.5 -51.5q-168 -72 -172 -103z" />
<glyph unicode="&#xd4;" horiz-adv-x="1320" d="M4 629q6 -55 13.5 -97.5t20.5 -84t34.5 -89t54.5 -108.5q4 -6 20 -31q37 -53 58.5 -77.5t79.5 -78.5q33 -33 68.5 -44t115.5 -23l37 -6q121 4 193.5 19.5t142.5 60.5q53 -49 105 -61.5t165 -12.5q51 10 87 38.5t71 88.5q0 8 26 53q33 61 50 94l-27 37q-25 -47 -57 -112 q-14 -29 -17 -31q-31 -55 -56.5 -81t-62.5 -38q-49 -12 -90 -12q-45 0 -82.5 15t-64.5 54q33 33 57.5 65t44 65.5t39 78.5t45.5 111q35 115 56.5 250t23.5 200q0 20 2 48v41q0 86 -9 158.5t-28 164.5q-14 80 -20 113q-84 260 -219 375q-35 18 -54.5 27t-48 19.5t-64.5 18.5 t-98 21q-113 -18 -179 -62.5t-122 -175.5q-27 -70 -43 -152t-16 -182q0 -45 4 -90q6 -70 28.5 -133.5t65.5 -108.5q33 -35 67 -55t77 -20q66 0 149 51q2 2 15 20q43 61 61 103.5t18 111.5q0 33 -4 70q-12 4 -20 4q-25 0 -25 -35q0 -10 2 -28q2 -20 2 -31q-10 -90 -51 -147.5 t-119 -71.5h-8h-8q-74 0 -133.5 78.5t-73.5 232.5q0 119 16.5 204t40.5 158l5 15q78 188 241 188q111 0 254 -86q72 -55 135.5 -202.5t96.5 -376.5q10 -92 10 -189q0 -154 -27.5 -311.5t-87.5 -304.5q-29 -55 -60.5 -101.5t-76.5 -85.5t-106.5 -64.5t-141.5 -31.5l-27 2 q-90 4 -131 9.5t-72.5 19.5t-63.5 44t-89 95q-59 82 -99 166t-57 193q-10 61 -10 135q0 78 9.5 156.5t27.5 183.5q20 115 21 147q0 27 -9 35q-12 -8 -26.5 -49t-25.5 -97.5t-18 -94.5t-14 -81v-8q-8 -78 -11 -133t-3 -143zM406 2089q0 -8 12 -8q18 0 59 20q74 23 125 61 t62 66q10 -29 63 -65.5t127 -57.5q39 -18 57 -18q14 0 15 10q0 20 -47 45q-80 37 -115 73t-80 109q-19 29 -25 39l-20 -34q-41 -78 -75 -116t-111 -75q-47 -27 -47 -49z" />
<glyph unicode="&#xd5;" horiz-adv-x="1320" d="M4 629q6 -55 13.5 -97.5t20.5 -84t34.5 -89t54.5 -108.5q4 -6 20 -31q37 -53 58.5 -77.5t79.5 -78.5q33 -33 68.5 -44t115.5 -23l37 -6q121 4 193.5 19.5t142.5 60.5q53 -49 105 -61.5t165 -12.5q51 10 87 38.5t71 88.5q0 8 26 53q33 61 50 94l-27 37q-25 -47 -57 -112 q-14 -29 -17 -31q-31 -55 -56.5 -81t-62.5 -38q-49 -12 -90 -12q-45 0 -82.5 15t-64.5 54q33 33 57.5 65t44 65.5t39 78.5t45.5 111q35 115 56.5 250t23.5 200q0 20 2 48v41q0 86 -9 158.5t-28 164.5q-14 80 -20 113q-84 260 -219 375q-35 18 -54.5 27t-48 19.5t-64.5 18.5 t-98 21q-113 -18 -179 -62.5t-122 -175.5q-27 -70 -43 -152t-16 -182q0 -45 4 -90q6 -70 28.5 -133.5t65.5 -108.5q33 -35 67 -55t77 -20q66 0 149 51q2 2 15 20q43 61 61 103.5t18 111.5q0 33 -4 70q-12 4 -20 4q-25 0 -25 -35q0 -10 2 -28q2 -20 2 -31q-10 -90 -51 -147.5 t-119 -71.5h-8h-8q-74 0 -133.5 78.5t-73.5 232.5q0 119 16.5 204t40.5 158l5 15q78 188 241 188q111 0 254 -86q72 -55 135.5 -202.5t96.5 -376.5q10 -92 10 -189q0 -154 -27.5 -311.5t-87.5 -304.5q-29 -55 -60.5 -101.5t-76.5 -85.5t-106.5 -64.5t-141.5 -31.5l-27 2 q-90 4 -131 9.5t-72.5 19.5t-63.5 44t-89 95q-59 82 -99 166t-57 193q-10 61 -10 135q0 78 9.5 156.5t27.5 183.5q20 115 21 147q0 27 -9 35q-12 -8 -26.5 -49t-25.5 -97.5t-18 -94.5t-14 -81v-8q-8 -78 -11 -133t-3 -143zM295 2060q0 -14 10 -14q8 0 27 10q10 18 26 53 q25 51 46.5 75t66.5 24h4q2 2 4 2q14 0 37 -14.5t64 -47.5q55 -45 79 -57q35 -27 86 -27q43 0 77 18.5t44 49.5q37 72 53.5 115t16.5 59q0 12 -8 12q-12 0 -31.5 -18.5t-30.5 -34.5q-18 -57 -43.5 -96t-72.5 -39q-41 0 -91 33q-61 57 -103 86.5t-75 29.5l-6 -2h-6h-6 q-4 2 -8 2q-29 0 -63 -21.5t-60 -70.5q-6 -23 -19 -61q-18 -53 -18 -66z" />
<glyph unicode="&#xd6;" horiz-adv-x="1320" d="M4 629q6 -55 13.5 -97.5t20.5 -84t34.5 -89t54.5 -108.5q4 -6 20 -31q37 -53 58.5 -77.5t79.5 -78.5q33 -33 68.5 -44t115.5 -23l37 -6q121 4 193.5 19.5t142.5 60.5q53 -49 105 -61.5t165 -12.5q51 10 87 38.5t71 88.5q0 8 26 53q33 61 50 94l-27 37q-25 -47 -57 -112 q-14 -29 -17 -31q-31 -55 -56.5 -81t-62.5 -38q-49 -12 -90 -12q-45 0 -82.5 15t-64.5 54q33 33 57.5 65t44 65.5t39 78.5t45.5 111q35 115 56.5 250t23.5 200q0 20 2 48v41q0 86 -9 158.5t-28 164.5q-14 80 -20 113q-84 260 -219 375q-35 18 -54.5 27t-48 19.5t-64.5 18.5 t-98 21q-113 -18 -179 -62.5t-122 -175.5q-27 -70 -43 -152t-16 -182q0 -45 4 -90q6 -70 28.5 -133.5t65.5 -108.5q33 -35 67 -55t77 -20q66 0 149 51q2 2 15 20q43 61 61 103.5t18 111.5q0 33 -4 70q-12 4 -20 4q-25 0 -25 -35q0 -10 2 -28q2 -20 2 -31q-10 -90 -51 -147.5 t-119 -71.5h-8h-8q-74 0 -133.5 78.5t-73.5 232.5q0 119 16.5 204t40.5 158l5 15q78 188 241 188q111 0 254 -86q72 -55 135.5 -202.5t96.5 -376.5q10 -92 10 -189q0 -154 -27.5 -311.5t-87.5 -304.5q-29 -55 -60.5 -101.5t-76.5 -85.5t-106.5 -64.5t-141.5 -31.5l-27 2 q-90 4 -131 9.5t-72.5 19.5t-63.5 44t-89 95q-59 82 -99 166t-57 193q-10 61 -10 135q0 78 9.5 156.5t27.5 183.5q20 115 21 147q0 27 -9 35q-12 -8 -26.5 -49t-25.5 -97.5t-18 -94.5t-14 -81v-8q-8 -78 -11 -133t-3 -143zM428 2165q2 -20 10.5 -28.5t24.5 -10.5 q16 2 24.5 9t10.5 28q-2 33 -35 37q-33 -2 -35 -35zM836 2167q3 -35 34 -39q16 2 24.5 9t10.5 28q-2 33 -35 37q-33 -2 -34 -35z" />
<glyph unicode="&#xd7;" horiz-adv-x="983" d="M248 512l172 -215l-162 -201l33 -37l164 203l166 -209l38 37l-176 219l172 211l-28 41l-174 -217l-174 213z" />
<glyph unicode="&#xd8;" horiz-adv-x="1316" d="M4 629q6 -55 13.5 -97.5t20.5 -84t34.5 -89t54.5 -108.5q4 -6 20 -31q37 -53 58.5 -77.5t79.5 -78.5q29 -27 60.5 -40t84.5 -21l-115 -360q8 -31 27 -31q16 0 33 20l112 365q131 0 207 14.5t148 59.5q53 -49 105 -61.5t165 -12.5q51 10 87 38.5t71 88.5q0 8 26 53 q33 61 50 94l-27 37q-25 -47 -57 -112q-14 -29 -17 -31q-31 -55 -56.5 -81t-62.5 -38q-49 -12 -90 -12q-45 0 -83 15t-64 54q33 33 57.5 65t44 65.5t39 78.5t45.5 111q35 115 56.5 250t23.5 200q0 20 2 48v41q0 86 -9 158.5t-28 164.5q-14 80 -20 113q-47 147 -105 245 l144 469q-8 39 -27 39q-18 0 -43 -39l-123 -403q-35 39 -65 64q-35 18 -54.5 27t-48 19.5t-64.5 18.5t-98 21q-113 -18 -179 -62.5t-122 -175.5q-27 -70 -43 -152t-16 -182q0 -45 4 -90q6 -70 28.5 -133.5t65.5 -108.5q33 -35 67 -55t77 -20q66 0 149 51q2 2 15 20 q43 61 61 103.5t18 111.5q0 33 -4 70q-12 4 -20 4q-25 0 -25 -35q0 -10 2 -28q2 -20 2 -31q-10 -90 -51 -147.5t-119 -71.5h-8h-8q-74 0 -133.5 78.5t-73.5 232.5q0 119 16.5 204t40.5 158l5 15q78 188 241 188q111 0 254 -86q37 -27 68 -71l-482 -1584q-66 8 -107.5 39 t-119.5 119q-59 82 -99 166t-57 193q-10 61 -10 135q0 78 9.5 156.5t27.5 183.5q20 115 21 147q0 27 -9 35q-12 -8 -26.5 -49t-25.5 -97.5t-18 -94.5t-14 -81v-8q-8 -78 -11 -133t-3 -143zM506 55l467 1518q78 -168 119 -436q10 -92 10 -189q0 -154 -27.5 -311.5 t-87.5 -304.5q-29 -55 -60.5 -101.5t-76.5 -85.5t-106.5 -64.5t-141.5 -31.5q-59 4 -96 6z" />
<glyph unicode="&#xd9;" horiz-adv-x="2207" d="M8 1264q6 -55 15.5 -103.5t27 -93.5t48 -78t75.5 -47h6l10 2q2 0 29 -2q25 -2 43 -2q39 0 73 8t63.5 32t48 70t18.5 119h-47q-10 -100 -42 -137t-85 -37q-23 0 -70 9q-18 2 -31 4q-37 8 -59 34.5t-34.5 61.5t-17.5 68.5t-9 78.5q0 117 30.5 218.5t59.5 146.5 q59 88 182 139q51 23 102.5 33t92.5 10q154 -10 220 -97t66 -257v-1165q10 -123 85 -186.5t184 -82.5q125 -23 245 0q49 8 114 49t120 97q29 -66 55.5 -91.5t81.5 -46.5q55 -10 115.5 -13t177.5 -3q8 0 30.5 5t56.5 29.5t73.5 82t70.5 151.5l-24 37q-37 -88 -72 -141 t-64.5 -78t-53 -31t-50.5 -6h-37q-20 -2 -30 -2q-172 0 -230.5 56.5t-68.5 195.5l-7 1548l-53 13v-1565q-10 -63 -41 -110.5t-70.5 -76t-77.5 -41t-65 -12.5q-12 0 -35 -2h-30q-100 0 -167 21.5t-102.5 54.5t-50 61.5t-22.5 61.5q-2 2 -2 4v1202q0 137 -39 221t-96.5 122 t-108.5 47.5t-98 9.5q-125 0 -221.5 -41t-186.5 -150q-4 -6 -16 -29q-41 -70 -68 -150.5t-37 -225.5zM895 2327q0 -102 201 -201q217 -109 313 -129q31 0 39 6q-2 31 -172 102q-84 35 -115 51.5t-53 36.5q-84 37 -114.5 71t-30.5 69q0 14 6 41q6 35 6 57q-4 0 -12 2h-9 q-33 0 -45 -27.5t-12 -56.5q0 -4 -2 -10v-12z" />
<glyph unicode="&#xda;" horiz-adv-x="2207" d="M8 1264q6 -55 15.5 -103.5t27 -93.5t48 -78t75.5 -47h6l10 2q2 0 29 -2q25 -2 43 -2q39 0 73 8t63.5 32t48 70t18.5 119h-47q-10 -100 -42 -137t-85 -37q-23 0 -70 9q-18 2 -31 4q-37 8 -59 34.5t-34.5 61.5t-17.5 68.5t-9 78.5q0 117 30.5 218.5t59.5 146.5 q59 88 182 139q51 23 102.5 33t92.5 10q154 -10 220 -97t66 -257v-1165q10 -123 85 -186.5t184 -82.5q125 -23 245 0q49 8 114 49t120 97q29 -66 55.5 -91.5t81.5 -46.5q55 -10 115.5 -13t177.5 -3q8 0 30.5 5t56.5 29.5t73.5 82t70.5 151.5l-24 37q-37 -88 -72 -141 t-64.5 -78t-53 -31t-50.5 -6h-37q-20 -2 -30 -2q-172 0 -230.5 56.5t-68.5 195.5l-7 1548l-53 13v-1565q-10 -63 -41 -110.5t-70.5 -76t-77.5 -41t-65 -12.5q-12 0 -35 -2h-30q-100 0 -167 21.5t-102.5 54.5t-50 61.5t-22.5 61.5q-2 2 -2 4v1202q0 137 -39 221t-96.5 122 t-108.5 47.5t-98 9.5q-125 0 -221.5 -41t-186.5 -150q-4 -6 -16 -29q-41 -70 -68 -150.5t-37 -225.5zM870 1976q0 -10 17 -10q2 0 8 2q10 2 14 2q98 20 314 129q201 98 200 201v12q-2 6 -2 10q0 29 -12 56.5t-45 27.5h-8q-8 -2 -13 -2q0 -18 7 -51q6 -29 6 -45 q0 -37 -31 -70.5t-115 -70.5q-23 -20 -53.5 -36.5t-114.5 -51.5q-168 -72 -172 -103z" />
<glyph unicode="&#xdb;" horiz-adv-x="2207" d="M8 1264q6 -55 15.5 -103.5t27 -93.5t48 -78t75.5 -47h6l10 2q2 0 29 -2q25 -2 43 -2q39 0 73 8t63.5 32t48 70t18.5 119h-47q-10 -100 -42 -137t-85 -37q-23 0 -70 9q-18 2 -31 4q-37 8 -59 34.5t-34.5 61.5t-17.5 68.5t-9 78.5q0 117 30.5 218.5t59.5 146.5 q59 88 182 139q51 23 102.5 33t92.5 10q154 -10 220 -97t66 -257v-1165q10 -123 85 -186.5t184 -82.5q125 -23 245 0q49 8 114 49t120 97q29 -66 55.5 -91.5t81.5 -46.5q55 -10 115.5 -13t177.5 -3q8 0 30.5 5t56.5 29.5t73.5 82t70.5 151.5l-24 37q-37 -88 -72 -141 t-64.5 -78t-53 -31t-50.5 -6h-37q-20 -2 -30 -2q-172 0 -230.5 56.5t-68.5 195.5l-7 1548l-53 13v-1565q-10 -63 -41 -110.5t-70.5 -76t-77.5 -41t-65 -12.5q-12 0 -35 -2h-30q-100 0 -167 21.5t-102.5 54.5t-50 61.5t-22.5 61.5q-2 2 -2 4v1202q0 137 -39 221t-96.5 122 t-108.5 47.5t-98 9.5q-125 0 -221.5 -41t-186.5 -150q-4 -6 -16 -29q-41 -70 -68 -150.5t-37 -225.5zM946 2071q0 -8 15 -9q18 0 59 21q74 23 124 60.5t62 66.5q10 -29 63.5 -66t127.5 -57q39 -18 57 -19q14 0 14 11q0 20 -47 45q-80 37 -114.5 72.5t-79.5 109.5 q-19 29 -25 39l-20 -35q-41 -78 -75 -115.5t-112 -74.5q-49 -27 -49 -49z" />
<glyph unicode="&#xdc;" horiz-adv-x="2207" d="M8 1264q6 -55 15.5 -103.5t27 -93.5t48 -78t75.5 -47h6l10 2q2 0 29 -2q25 -2 43 -2q39 0 73 8t63.5 32t48 70t18.5 119h-47q-10 -100 -42 -137t-85 -37q-23 0 -70 9q-18 2 -31 4q-37 8 -59 34.5t-34.5 61.5t-17.5 68.5t-9 78.5q0 117 30.5 218.5t59.5 146.5 q59 88 182 139q51 23 102.5 33t92.5 10q154 -10 220 -97t66 -257v-1165q10 -123 85 -186.5t184 -82.5q125 -23 245 0q49 8 114 49t120 97q29 -66 55.5 -91.5t81.5 -46.5q55 -10 115.5 -13t177.5 -3q8 0 30.5 5t56.5 29.5t73.5 82t70.5 151.5l-24 37q-37 -88 -72 -141 t-64.5 -78t-53 -31t-50.5 -6h-37q-20 -2 -30 -2q-172 0 -230.5 56.5t-68.5 195.5l-7 1548l-53 13v-1565q-10 -63 -41 -110.5t-70.5 -76t-77.5 -41t-65 -12.5q-12 0 -35 -2h-30q-100 0 -167 21.5t-102.5 54.5t-50 61.5t-22.5 61.5q-2 2 -2 4v1202q0 137 -39 221t-96.5 122 t-108.5 47.5t-98 9.5q-125 0 -221.5 -41t-186.5 -150q-4 -6 -16 -29q-41 -70 -68 -150.5t-37 -225.5zM969 2142q2 -20 10.5 -28.5t24.5 -10.5q16 2 24 9.5t10 27.5q-2 33 -34 37q-33 -2 -35 -35zM1376 2144q4 -35 35 -39q16 2 24.5 9.5t10.5 27.5q-2 33 -35 37 q-33 -2 -35 -35z" />
<glyph unicode="&#xdd;" horiz-adv-x="1949" d="M8 1264q6 -55 15.5 -103.5t27 -93.5t48 -78t75.5 -47l8 -2q53 -8 88 -8q37 0 71 9t61.5 34.5t45 74t17.5 119.5l-37 -2q-8 -115 -58.5 -147.5t-166.5 -32.5q-74 29 -105.5 101.5t-40.5 160.5q0 137 35 233.5t82 176.5q0 2 2 4q41 47 91 76.5t104 48.5q80 27 168 27 q154 -37 221 -113t67 -197q0 -29 -4 -61v-1165q10 -123 85 -186.5t184 -82.5q125 -23 245 0q43 6 95.5 38t101.5 81v-68q-47 -29 -88 -87t-73 -124.5t-49 -115.5t-38 -109l-6 -18q-76 -264 -76 -469q0 -184 57.5 -284.5t137.5 -100.5q78 0 137 98t59 266q0 12 -2 27v27v964 q20 -49 82 -91t97 -42q16 0 36.5 7t48 33t60.5 82t63 146l-26 37q-35 -84 -64.5 -136t-53.5 -75.5t-37 -30t-23 -8.5h-2q-86 27 -133.5 93.5t-47.5 156.5v1555h-57l-2 -1565q-14 -68 -37.5 -113t-52.5 -71.5t-57.5 -38t-59.5 -15.5q-55 -6 -106 -6q-102 0 -169 22.5 t-103 56.5t-49 71t-17 78l-4 1167q0 133 -40 218t-98.5 126t-112 54.5t-91.5 13.5q-141 0 -231.5 -33t-176.5 -158q-4 -6 -16 -29q-41 -70 -68 -150.5t-37 -225.5zM895 1931q0 -10 16 -10q2 0 9 2q10 2 14 2q98 20 313 129q201 98 201 201v12q-2 6 -2 10q0 29 -12.5 56.5 t-44.5 27.5h-9q-8 -2 -12 -2q0 -18 6 -51q6 -29 6 -45q0 -37 -30.5 -70.5t-114.5 -70.5q-23 -20 -53.5 -37t-114.5 -51q-168 -72 -172 -103zM1245 -860q0 156 47 356q41 156 76 225q6 12 16 43q14 39 28.5 71t41.5 73q8 10 16 22q35 45 66 76v-833q-2 -27 -2 -54 q-4 -90 -8 -137t-15.5 -83t-35 -62.5t-64.5 -50.5q-72 14 -119 103t-47 251z" />
<glyph unicode="&#xde;" horiz-adv-x="1611" d="M283 1243q0 -49 6 -83t14 -56q27 -72 61.5 -113t79.5 -51q37 -4 70 -4q74 0 112 21.5t72 66.5q27 109 27 197q0 61 -14 163q-2 0 -9 2q-12 6 -20 7q-12 0 -23 -11q18 -109 19 -168q0 -53 -10 -118q-14 -51 -33 -74t-66 -39q-61 0 -89.5 5t-67.5 26v2q-27 35 -40.5 58.5 t-27.5 70.5q-12 68 -12 123q0 66 16 121q41 174 123 262q2 2 29 28q37 37 60.5 55.5t66.5 37.5l4 2q33 14 66.5 22t105.5 12q25 4 55 4h29q16 -2 22 -2t13 2h10q0 2 2 3q2 0 2 -66v-1380q0 -137 -14.5 -196.5t-63.5 -86.5q-14 -16 -75.5 -30.5t-135.5 -14.5q-80 0 -141 18 q-39 25 -53.5 50.5t-22.5 70.5q-4 20 -6 29v12q2 6 2 12q0 41 -18 43q-16 8 -23 9q-14 0 -16 -27q0 -49 12 -100.5t33 -85.5q39 -37 65.5 -49.5t87.5 -24.5l15 -2q37 -4 69 -4q47 0 101 8q12 2 16 2q66 8 96.5 23.5t75.5 58.5q76 -45 123 -60.5t137 -19.5q78 -6 209 -6 q53 8 86 35.5t68 89.5q0 6 24 49q31 57 51 98l-26 37q-25 -47 -53 -106q-16 -35 -21 -37q-59 -102 -108 -113q-68 -8 -105 -8q-35 0 -125 8q-78 8 -125 20.5t-108 53.5q18 37 23 86t5 162v1368q0 6 2 24q0 18 1 30.5t6 12.5q63 0 99 -4t71 -14q123 -47 176 -88 q41 -31 69.5 -75t42.5 -107q6 -37 6 -60q0 -33 -9 -61.5t-32 -67.5q-12 -16 -39.5 -27.5t-58.5 -11.5q-55 0 -96 35q-6 20 -27 21q-31 0 -30 -27q0 -29 49 -55q61 -29 114 -29h17q10 2 16 2q41 10 61.5 26.5t39.5 39.5q8 12 14 18q18 33 24.5 57.5t6.5 59.5q0 8 -2 28v41 q-18 74 -45 125.5t-54.5 81t-52.5 45t-51 27.5q-8 2 -10 4q-72 33 -125.5 49.5t-139.5 22.5h-43v270q-4 39 -30 39q-29 0 -29 -43v-266q-80 0 -129 -2q-78 -4 -137.5 -23.5t-65.5 -26.5q-55 -23 -94 -56.5t-98 -102.5q-35 -45 -67 -112.5t-50 -154.5q-12 -80 -12 -143z" />
<glyph unicode="&#xdf;" horiz-adv-x="1261" d="M-92 117l16 -15l72 140l186 331v-1089q0 -66 21 -66q23 0 33 70l2 573v920h12q6 -2 14 -2q29 0 94 6q90 10 142 10q76 0 143.5 -15t132 -55t121.5 -116t98 -191q12 -53 13 -108q0 -111 -39 -215.5t-84 -169.5l-6 -2q-55 -33 -113.5 -55.5t-122.5 -22.5q-70 0 -131 38 t-109 128q0 23 -17 43t-32 20q-10 0 -10 -14q0 -10 4 -24q33 -123 112 -179.5t181 -56.5q53 0 107.5 14.5t99.5 36.5q45 -33 92 -42t121 -9q47 10 82 39t69 88q0 8 27 53q33 61 49 94l-26 37q-25 -47 -58 -112q-14 -29 -16 -31q-55 -96 -103 -113q-25 -16 -65 -16 q-63 0 -133 35q45 31 59 59q55 102 78 190.5t23 161.5q0 47 -9 111q-2 12 -4 20q-29 106 -69.5 180t-97 121.5t-132.5 75t-182 45.5q98 41 159.5 93.5t90 104.5t38 97t13.5 105q2 27 2 30v15q2 8 2 12q0 86 -33.5 146.5t-87.5 113.5q-41 43 -98 61.5t-117 18.5h-24 q-14 -2 -21 -2q-111 -20 -157 -55t-84 -101v107q-8 59 -29 59q-10 0 -18.5 -16.5t-8.5 -38.5l-2 -1153q-39 -45 -67.5 -93t-63.5 -120q-27 -59 -47 -96zM238 1020v579q25 82 105.5 139.5t178.5 57.5q119 0 213 -90q41 -51 60.5 -115.5t19.5 -134.5q0 -86 -29 -164 q-35 -74 -93 -125t-132 -80.5t-153.5 -45t-169.5 -21.5z" />
<glyph unicode="&#xe0;" horiz-adv-x="884" d="M-66 160l21 -13l51 113q6 -37 6 -70q14 -100 85 -146t171 -46q55 0 100.5 31.5t69.5 89.5q35 -76 79 -95.5t130 -25.5q20 -2 31 -2q51 10 87 38.5t71 88.5q0 8 26 53q33 61 49 94l-26 37q-25 -47 -58 -112q-14 -29 -16 -31q-61 -106 -106 -107q-16 -4 -39 -4 q-68 0 -129.5 43t-67.5 133v349v6q2 2 2 4q0 18 -11 31.5t-24 13.5q-29 0 -28 -53v-45q-35 45 -69 60t-77 23q-8 0 -14 3q-82 -6 -122 -32t-73 -65l-8 -10q-39 -84 -43 -180zM35 1073q0 -104 203 -203q219 -111 313 -129q4 0 14 -2q6 -2 8 -2q16 0 17 11q-2 31 -172 102 q-84 35 -116 52.5t-52 35.5q-84 37 -115 70.5t-31 68.5q0 14 7 41q6 35 6 58q-4 0 -13 2h-8q-35 0 -47 -27t-12 -57v-11q-2 -8 -2 -10zM66 315q0 43 10 88q14 70 53 107t129 45q61 -20 94 -55t49 -92v-185q0 -53 -37.5 -106.5t-95.5 -53.5h-10q-6 -2 -10 -2q-53 0 -104.5 30 t-65.5 91q0 20 -6 60q-6 45 -6 73z" />
<glyph unicode="&#xe1;" horiz-adv-x="884" d="M-66 160l21 -13l51 113q6 -37 6 -70q14 -100 85 -146t171 -46q55 0 100.5 31.5t69.5 89.5q35 -76 79 -95.5t130 -25.5q20 -2 31 -2q51 10 87 38.5t71 88.5q0 8 26 53q33 61 49 94l-26 37q-25 -47 -58 -112q-14 -29 -16 -31q-61 -106 -106 -107q-16 -4 -39 -4 q-68 0 -129.5 43t-67.5 133v349v6q2 2 2 4q0 18 -11 31.5t-24 13.5q-29 0 -28 -53v-45q-35 45 -69 60t-77 23q-8 0 -14 3q-82 -6 -122 -32t-73 -65l-8 -10q-39 -84 -43 -180zM-57 731q0 -10 16 -10q2 0 8 2q10 2 15 2q96 18 313 129q203 98 203 203v10q-2 8 -2 10 q0 31 -12.5 57.5t-47.5 26.5h-8q-8 -2 -12 -2q0 -18 6 -51q6 -29 6 -45q0 -37 -30.5 -70.5t-114.5 -70.5q-18 -18 -51 -36t-117 -52q-170 -72 -172 -103zM66 315q0 43 10 88q14 70 53 107t129 45q61 -20 94 -55t49 -92v-185q0 -53 -37.5 -106.5t-95.5 -53.5h-10 q-6 -2 -10 -2q-53 0 -104.5 30t-65.5 91q0 20 -6 60q-6 45 -6 73z" />
<glyph unicode="&#xe2;" horiz-adv-x="880" d="M-66 160l21 -13l51 113q6 -37 6 -70q14 -100 85 -146t171 -46q55 0 100.5 31.5t69.5 89.5q35 -76 79 -95.5t130 -25.5q20 -2 31 -2q51 10 87 38.5t71 88.5q0 8 26 53q33 61 49 94l-26 37q-25 -47 -58 -112q-14 -29 -16 -31q-61 -106 -106 -107q-16 -4 -39 -4 q-68 0 -129.5 43t-67.5 133v349v6q2 2 2 4q0 18 -11 31.5t-24 13.5q-29 0 -28 -53v-45q-35 45 -69 60t-77 23q-8 0 -14 3q-82 -6 -122 -32t-73 -65l-8 -10q-39 -84 -43 -180zM-16 850q0 -8 12 -8q20 0 59 20q74 23 125 61t62 66q12 -31 64 -66.5t126 -56.5q39 -18 57 -18 q14 0 15 10q0 20 -47 45q-80 37 -115 73t-80 111q-6 12 -22 37q-2 -4 -21 -39q-43 -76 -76.5 -112.5t-111.5 -73.5q-47 -27 -47 -49zM66 315q0 43 10 88q14 70 53 107t129 45q61 -20 94 -55t49 -92v-185q0 -53 -37.5 -106.5t-95.5 -53.5h-10q-6 -2 -10 -2q-53 0 -104.5 30 t-65.5 91q0 20 -6 60q-6 45 -6 73z" />
<glyph unicode="&#xe3;" horiz-adv-x="884" d="M-66 160l21 -13l51 113q6 -37 6 -70q14 -100 85 -146t171 -46q55 0 100.5 31.5t69.5 89.5q35 -76 79 -95.5t130 -25.5q20 -2 31 -2q51 10 87 38.5t71 88.5q0 8 26 53q33 61 49 94l-26 37q-25 -47 -58 -112q-14 -29 -16 -31q-61 -106 -106 -107q-16 -4 -39 -4 q-68 0 -129.5 43t-67.5 133v349v6q2 2 2 4q0 18 -11 31.5t-24 13.5q-29 0 -28 -53v-45q-35 45 -69 60t-77 23q-8 0 -14 3q-82 -6 -122 -32t-73 -65l-8 -10q-39 -84 -43 -180zM-59 856q0 -14 12 -14q8 0 27 10q10 18 24 51q23 53 45.5 77t67.5 24h4q2 2 4 2q14 0 36.5 -15.5 t61.5 -46.5q59 -45 84 -57q35 -27 86 -27q41 0 75 18.5t44 49.5q37 72 53.5 114.5t16.5 59.5q0 12 -9 12q-10 0 -30.5 -18.5t-30.5 -34.5q-18 -59 -44 -97t-73 -38q-39 0 -88 32l-4 5q-63 57 -103 84.5t-73 27.5l-6 -2h-6h-6q-4 2 -9 2q-29 0 -61.5 -22.5t-58.5 -69.5 q-4 -18 -19 -57q-20 -55 -20 -70zM66 315q0 43 10 88q14 70 53 107t129 45q61 -20 94 -55t49 -92v-185q0 -53 -37.5 -106.5t-95.5 -53.5h-10q-6 -2 -10 -2q-53 0 -104.5 30t-65.5 91q0 20 -6 60q-6 45 -6 73z" />
<glyph unicode="&#xe4;" horiz-adv-x="884" d="M-66 160l21 -13l51 113q6 -37 6 -70q14 -100 85 -146t171 -46q55 0 100.5 31.5t69.5 89.5q35 -76 79 -95.5t130 -25.5q20 -2 31 -2q51 10 87 38.5t71 88.5q0 8 26 53q33 61 49 94l-26 37q-25 -47 -58 -112q-14 -29 -16 -31q-61 -106 -106 -107q-16 -4 -39 -4 q-68 0 -129.5 43t-67.5 133v349v6q2 2 2 4q0 18 -11 31.5t-24 13.5q-29 0 -28 -53v-45q-35 45 -69 60t-77 23q-8 0 -14 3q-82 -6 -122 -32t-73 -65l-8 -10q-39 -84 -43 -180zM66 315q0 43 10 88q14 70 53 107t129 45q61 -20 94 -55t49 -92v-185q0 -53 -37.5 -106.5 t-95.5 -53.5h-10q-6 -2 -10 -2q-53 0 -104.5 30t-65.5 91q0 20 -6 60q-6 45 -6 73zM70 928q2 -20 10 -28.5t22 -10.5q33 4 37 37q-6 35 -37 37q-33 -4 -32 -35zM340 930q4 -35 35 -39q33 4 37 37q-6 35 -37 37q-33 -4 -35 -35z" />
<glyph unicode="&#xe5;" horiz-adv-x="884" d="M-66 160l21 -13l51 113q6 -37 6 -70q14 -100 85 -146t171 -46q55 0 100.5 31.5t69.5 89.5q35 -76 79 -95.5t130 -25.5q20 -2 31 -2q51 10 87 38.5t71 88.5q0 8 26 53q33 61 49 94l-26 37q-25 -47 -58 -112q-14 -29 -16 -31q-61 -106 -106 -107q-16 -4 -39 -4 q-68 0 -129.5 43t-67.5 133v349v6q2 2 2 4q0 18 -11 31.5t-24 13.5q-29 0 -28 -53v-45q-35 45 -69 60t-77 23q-8 0 -14 3q-82 -6 -122 -32t-73 -65l-8 -10q-39 -84 -43 -180zM66 315q0 43 10 88q14 70 53 107t129 45q61 -20 94 -55t49 -92v-185q0 -53 -37.5 -106.5 t-95.5 -53.5h-10q-6 -2 -10 -2q-53 0 -104.5 30t-65.5 91q0 20 -6 60q-6 45 -6 73zM68 965q8 -113 64 -165t134 -52q80 0 135.5 54t63.5 181q-2 68 -21.5 113t-49 70.5t-60.5 36.5t-68 16q-35 -4 -66.5 -16.5t-61 -39t-49 -76t-21.5 -122.5zM125 973q8 94 43 129t98 39 q63 -4 98 -38t48 -120q-10 -88 -43 -123t-103 -47q-70 12 -101.5 46t-39.5 114z" />
<glyph unicode="&#xe6;" horiz-adv-x="1003" d="M-63 160l20 -13l51 113q2 -12 2 -18q6 -33 10 -45q14 -98 83 -148.5t167 -50.5q80 0 138 41v-21q0 -8 10 -15t20 -7q29 0 31 39v211q18 -86 58 -144.5t91 -81.5q16 -4 29 -8q51 -12 70 -12h90q47 10 82 39t69 88q0 8 27 53q33 61 49 94l-26 37q-25 -47 -58 -112 q-14 -29 -16 -31q-61 -106 -107 -107q-4 -2 -34.5 -6t-65.5 -6q-76 6 -124 39t-81 148q0 43 1 62t5 32q31 -25 88.5 -32t163.5 -7q23 4 45.5 13t61.5 36q25 29 36 58.5t11 74.5q0 63 -56.5 107.5t-136.5 44.5q-78 0 -132 -29t-81 -70q-20 -25 -32.5 -68.5t-26.5 -127.5v248 q0 2 2 6v6q0 18 -10 30.5t-23 12.5q-29 0 -28 -53v-45q-37 45 -70 60t-76 23l-14 3q-76 0 -116 -23t-71 -59q-10 -10 -16 -17q-39 -96 -43 -188zM70 317q0 43 10 91q4 68 45 103.5t133 43.5q63 -18 96 -53t49 -94v-185q0 -59 -30.5 -109.5t-102.5 -50.5q-66 2 -112.5 25 t-71.5 94q-2 16 -6 39q-10 57 -10 96zM522 379q20 98 58 138t88 46q20 10 47 10q20 0 47 -6q53 0 88 -27.5t35 -72.5v-10q2 -4 2 -8q0 -23 -9.5 -41.5t-29.5 -47.5q-27 -16 -49.5 -21t-61.5 -5q-70 0 -116 7t-99 38z" />
<glyph unicode="&#xe7;" horiz-adv-x="528" d="M-102 111l24 -15l78 152q14 -88 52 -146.5t87 -81.5q37 -14 88 -18l21 -156q16 14 47 15q35 0 62.5 -17.5t27.5 -44.5q0 -12 -6 -24v-6q-6 -33 -22.5 -48.5t-71.5 -15.5q-20 6 -48 24.5t-36 30.5v-71q57 -35 112 -35h17q10 2 18 2q29 14 51.5 47t22.5 66q4 20 4 36 q0 57 -39 81t-100 24l-15 90h41q57 6 94 34.5t72 88.5q0 4 19 39q35 61 57 108l-27 37q-18 -35 -45 -92q-25 -49 -28 -51q-27 -47 -58.5 -80t-44.5 -35q-4 0 -12 -2q-23 -4 -41 -4h-16q-14 2 -25 2q-76 0 -140.5 54.5t-66.5 154.5q0 14 -2 33v30q0 106 33.5 171t101.5 75 q20 6 35 6q25 0 36 -13t19 -44q8 -20 23 -20q20 0 20 20l-2 4v2q-12 57 -36.5 85t-77.5 28q-37 -4 -83 -36t-67 -69q-45 -53 -47 -196z" />
<glyph unicode="&#xe8;" horiz-adv-x="528" d="M-92 117l16 -15l72 140q14 -80 54 -139.5t89 -82.5q12 -2 35 -8q47 -12 64 -12h90q47 10 81.5 39t69.5 88q0 4 19 39q35 61 57 108l-27 37q-18 -35 -45 -92q-25 -49 -28 -51q-61 -106 -107 -107q-6 -2 -34.5 -6t-63.5 -6q-76 6 -124 39t-81 148q0 49 1 66t3 28 q33 -25 90.5 -32t161.5 -7q23 4 45.5 13t61.5 36q25 29 37 55.5t12 59.5q0 2 -2 8v10q0 63 -56.5 107.5t-136.5 44.5q-78 0 -132 -29t-79 -70q-41 -49 -53 -198zM35 1073q0 -104 203 -203q219 -111 313 -129q4 0 14 -2q6 -2 8 -2q16 0 17 11q-2 31 -172 102 q-84 35 -116 52.5t-52 35.5q-84 37 -115 70.5t-31 68.5q0 14 7 41q6 35 6 58q-4 0 -13 2h-8q-35 0 -47 -27t-12 -57v-11q-2 -8 -2 -10zM45 379q18 98 56 138t87 46q20 10 50 10q20 0 45 -6q53 0 88 -27.5t35 -72.5v-10q2 -4 2 -8q0 -23 -9.5 -41.5t-29.5 -47.5 q-27 -16 -48.5 -21t-62.5 -5q-70 0 -115 7t-98 38z" />
<glyph unicode="&#xe9;" horiz-adv-x="528" d="M-92 117l16 -15l72 140q14 -80 54 -139.5t89 -82.5q12 -2 35 -8q47 -12 64 -12h90q47 10 81.5 39t69.5 88q0 4 19 39q35 61 57 108l-27 37q-18 -35 -45 -92q-25 -49 -28 -51q-61 -106 -107 -107q-6 -2 -34.5 -6t-63.5 -6q-76 6 -124 39t-81 148q0 49 1 66t3 28 q33 -25 90.5 -32t161.5 -7q23 4 45.5 13t61.5 36q25 29 37 55.5t12 59.5q0 2 -2 8v10q0 63 -56.5 107.5t-136.5 44.5q-78 0 -132 -29t-79 -70q-41 -49 -53 -198zM-57 731q0 -10 16 -10q2 0 8 2q10 2 15 2q96 18 313 129q203 98 203 203v10q-2 8 -2 10q0 31 -12.5 57.5 t-47.5 26.5h-8q-8 -2 -12 -2q0 -18 6 -51q6 -29 6 -45q0 -37 -30.5 -70.5t-114.5 -70.5q-18 -18 -51 -36t-117 -52q-170 -72 -172 -103zM45 379q18 98 56 138t87 46q20 10 50 10q20 0 45 -6q53 0 88 -27.5t35 -72.5v-10q2 -4 2 -8q0 -23 -9.5 -41.5t-29.5 -47.5 q-27 -16 -48.5 -21t-62.5 -5q-70 0 -115 7t-98 38z" />
<glyph unicode="&#xea;" horiz-adv-x="528" d="M-92 117l16 -15l72 140q14 -80 54 -139.5t89 -82.5q12 -2 35 -8q47 -12 64 -12h90q47 10 81.5 39t69.5 88q0 4 19 39q35 61 57 108l-27 37q-18 -35 -45 -92q-25 -49 -28 -51q-61 -106 -107 -107q-6 -2 -34.5 -6t-63.5 -6q-76 6 -124 39t-81 148q0 49 1 66t3 28 q33 -25 90.5 -32t161.5 -7q23 4 45.5 13t61.5 36q25 29 37 55.5t12 59.5q0 2 -2 8v10q0 63 -56.5 107.5t-136.5 44.5q-78 0 -132 -29t-79 -70q-41 -49 -53 -198zM-16 850q0 -8 12 -8q20 0 59 20q74 23 125 61t62 66q12 -31 64 -66.5t126 -56.5q39 -18 57 -18q14 0 15 10 q0 20 -47 45q-80 37 -115 73t-80 111q-6 12 -22 37q-2 -4 -21 -39q-43 -76 -76.5 -112.5t-111.5 -73.5q-47 -27 -47 -49zM45 379q18 98 56 138t87 46q20 10 50 10q20 0 45 -6q53 0 88 -27.5t35 -72.5v-10q2 -4 2 -8q0 -23 -9.5 -41.5t-29.5 -47.5q-27 -16 -48.5 -21 t-62.5 -5q-70 0 -115 7t-98 38z" />
<glyph unicode="&#xeb;" horiz-adv-x="528" d="M-92 117l16 -15l72 140q14 -80 54 -139.5t89 -82.5q12 -2 35 -8q47 -12 64 -12h90q47 10 81.5 39t69.5 88q0 4 19 39q35 61 57 108l-27 37q-18 -35 -45 -92q-25 -49 -28 -51q-61 -106 -107 -107q-6 -2 -34.5 -6t-63.5 -6q-76 6 -124 39t-81 148q0 49 1 66t3 28 q33 -25 90.5 -32t161.5 -7q23 4 45.5 13t61.5 36q25 29 37 55.5t12 59.5q0 2 -2 8v10q0 63 -56.5 107.5t-136.5 44.5q-78 0 -132 -29t-79 -70q-41 -49 -53 -198zM45 379q18 98 56 138t87 46q20 10 50 10q20 0 45 -6q53 0 88 -27.5t35 -72.5v-10q2 -4 2 -8q0 -23 -9.5 -41.5 t-29.5 -47.5q-27 -16 -48.5 -21t-62.5 -5q-70 0 -115 7t-98 38zM70 928q2 -20 10 -28.5t22 -10.5q33 4 37 37q-6 35 -37 37q-33 -4 -32 -35zM340 930q4 -35 35 -39q33 4 37 37q-6 35 -37 37q-33 -4 -35 -35z" />
<glyph unicode="&#xec;" horiz-adv-x="536" d="M-104 102l36 -4l129 248l-2 -199q0 -76 70 -111.5t180 -35.5q66 6 105 33.5t73 89.5q0 4 19 39q35 61 57 108l-26 37q-18 -35 -45 -92q-25 -49 -29 -51q-33 -57 -61.5 -83t-71.5 -30q-35 0 -68 3t-63.5 11.5t-52 27t-27.5 48.5v432q0 23 -11.5 41.5t-25.5 18.5 q-23 0 -23 -58l2 -149zM-43 1028q0 -104 203 -203q217 -111 311 -129h4q4 -2 8 -2q18 0 29 8q-2 31 -172 103q-84 35 -115.5 51t-54.5 37q-82 37 -112.5 70.5t-30.5 68.5q0 14 4 41q6 35 6 57q-4 0 -12 3h-9q-33 0 -45 -28t-12 -56q0 -2 -2 -11v-10z" />
<glyph unicode="&#xed;" horiz-adv-x="536" d="M-330 748q0 -10 17 -11q10 0 22 4q94 18 314 129q203 98 202 203v10q-2 8 -2 11q0 31 -12 57.5t-47 26.5h-8q-8 -2 -13 -2q0 -18 7 -52q6 -31 6 -45q0 -37 -31 -70.5t-113 -70.5q-23 -20 -54.5 -36.5t-115.5 -51.5q-170 -72 -172 -102zM-104 102l36 -4l129 248l-2 -199 q0 -76 70 -111.5t180 -35.5q66 6 105 33.5t73 89.5q0 4 19 39q35 61 57 108l-26 37q-18 -35 -45 -92q-25 -49 -29 -51q-33 -57 -61.5 -83t-71.5 -30q-35 0 -68 3t-63.5 11.5t-52 27t-27.5 48.5v432q0 23 -11.5 41.5t-25.5 18.5q-23 0 -23 -58l2 -149z" />
<glyph unicode="&#xee;" horiz-adv-x="530" d="M-164 852q0 -8 12 -8q18 0 60 20q74 23 125 61t61 66q12 -31 64.5 -66.5t126.5 -56.5q39 -18 57 -18q14 0 14 10q0 20 -47 45q-80 37 -114.5 73t-79.5 112q-7 11 -23 36q-2 -4 -20 -39q-43 -76 -77 -112.5t-112 -73.5q-47 -27 -47 -49zM-104 102l36 -4l129 248l-2 -199 q0 -76 70 -111.5t180 -35.5q66 6 105 33.5t73 89.5q0 4 19 39q35 61 57 108l-26 37q-18 -35 -45 -92q-25 -49 -29 -51q-33 -57 -61.5 -83t-71.5 -30q-35 0 -68 3t-63.5 11.5t-52 27t-27.5 48.5v432q0 23 -11.5 41.5t-25.5 18.5q-23 0 -23 -58l2 -149z" />
<glyph unicode="&#xef;" horiz-adv-x="536" d="M-104 102l36 -4l129 248l-2 -199q0 -76 70 -111.5t180 -35.5q66 6 105 33.5t73 89.5q0 4 19 39q35 61 57 108l-26 37q-18 -35 -45 -92q-25 -49 -29 -51q-33 -57 -61.5 -83t-71.5 -30q-35 0 -68 3t-63.5 11.5t-52 27t-27.5 48.5v432q0 23 -11.5 41.5t-25.5 18.5 q-23 0 -23 -58l2 -149zM-86 934q4 -35 35 -39q33 4 37 37q-6 35 -37 37q-33 -4 -35 -35zM186 936q4 -35 35 -39q33 4 37 37q-4 35 -37 37q-33 -4 -35 -35z" />
<glyph unicode="&#xf0;" d="M-96 117l22 -15l86 154q6 -37 15 -57q12 -98 80.5 -148.5t166.5 -50.5q61 4 104.5 25.5t72.5 66.5q43 -25 96 -53q41 -20 61 -35q57 4 94 33t72 88q0 4 19 39q35 61 57 108l-27 37q-18 -35 -45 -92q-25 -49 -28 -51q-61 -106 -107 -107q0 -4 -10 -4q-25 0 -39 15 q-8 8 -35 26q-31 18 -51.5 37t-28.5 43v258q0 88 -16.5 147.5t-67.5 186.5q-47 111 -73 182l135 78q39 29 39 45q0 10 -19 10q-18 0 -35 -10l-143 -74q-12 37 -41 119q-18 47 -25 68q-14 43 -38 43q-16 0 -17 -33v-12q2 -12 2 -19l72 -194l-125 -70q-66 -53 -66 -67 q0 -4 9 -5q18 0 73 29l127 70l144 -391q-35 45 -69 60t-77 24q-8 0 -14 2q-78 0 -117 -22.5t-69 -59.5q-10 -12 -15 -17q-39 -88 -43 -190zM66 293q0 37 10 94q16 80 47 123t100 43q20 0 41 -4q117 -25 144 -139q2 -23 4 -95q0 -74 2 -86q-6 -70 -32 -111.5t-108 -51.5h-6 q-57 2 -94 18t-82 82q-2 6 -8 27q-10 37 -14 56t-4 44z" />
<glyph unicode="&#xf1;" horiz-adv-x="1087" d="M-18 260l22 -16l53 110q6 10 21 45q16 45 33 82q6 10 12 27q8 18 18 37q18 31 72 30q37 -2 58.5 -7t43.5 -21q37 -43 37 -78q0 -2 -2 -6v-8v-408q0 -51 29 -51q23 0 29 51v420q23 25 44 44t52 40q18 6 30.5 9t38.5 5q12 4 27 4q14 0 45 -4l14 -2q29 -16 41.5 -33.5 t12.5 -60.5v-309q8 -68 56 -110t138 -42q45 16 80 48t68 89q0 6 24 50q31 57 51 98l-26 37q-25 -47 -53 -107q-16 -35 -21 -37q-59 -102 -104 -112q-31 -8 -49 -8q-16 0 -35 6q-29 12 -49 41q-2 0 -5 4q-6 12 -12 30q-4 20 -10 27v285v14q2 6 2 14q0 37 -18 80 q-39 37 -60.5 46.5t-60.5 13.5q-2 0 -17 2q-25 -2 -43 -5t-65 -14q-47 -27 -84 -63q-6 -8 -8 -10q-47 47 -72 60t-61 19q-18 2 -25 5q-8 0 -25 2q-16 2 -24 2q-18 0 -45 -7q-16 -2 -24.5 -8t-20.5 -22q-10 -14 -21 -25q-4 -12 -12 -31q-8 -16 -10 -24q-8 -18 -23 -59 q-16 -49 -29 -82zM133 848q0 -14 10 -14q8 0 27 10q10 16 27 53q25 51 46 74.5t64 23.5h4l4 2q16 0 39 -15t64 -48q55 -43 80 -55q35 -27 86 -27q43 0 77 18.5t44 49.5q37 72 53 113.5t16 60.5q0 12 -8 12q-12 0 -31.5 -18.5t-29.5 -34.5q-18 -57 -45 -96t-74 -39 q-39 0 -88 32q-61 57 -103.5 87t-75.5 30l-6 -2h-6h-6q-4 2 -8 2q-29 0 -62.5 -21.5t-60.5 -70.5q-6 -23 -18 -62q-18 -53 -19 -65z" />
<glyph unicode="&#xf2;" horiz-adv-x="503" d="M-100 135l34 -20l70 131q20 -98 81.5 -171t152.5 -75q117 2 187.5 86t78.5 188q23 12 30 18l7 5l-4 27l2 2q-2 0 -37 -21q0 129 -68.5 225.5t-179.5 96.5q-109 0 -181.5 -86t-72.5 -215zM27 1036q0 -102 200 -200q218 -109 314 -129q2 0 8 -2h6q6 0 18 6q2 0 7 2 q-2 31 -172 102q-84 35 -115 51.5t-53 36.5q-84 37 -115 71t-31 68q0 14 6 41q6 35 6 58q-4 0 -12 2h-8q-33 0 -45 -28t-12 -56q0 -4 -2 -10v-13zM55 326q4 123 66.5 183t132.5 60h14v2h-2q-16 -41 -16 -94q0 -27 4 -49q6 -43 47 -102q35 -33 65.5 -46.5t59.5 -13.5 q8 0 18 2q9 2 13 2q-8 -41 -19.5 -72.5t-35 -63.5t-65.5 -53.5t-104 -29.5q-70 16 -124 85t-54 190zM299 467q0 31 7 61.5t13 30.5q37 -18 64 -51t43 -69t24.5 -68.5t8.5 -55.5h-21q-31 2 -50 7.5t-34 23.5q-29 23 -42 58.5t-13 62.5z" />
<glyph unicode="&#xf3;" horiz-adv-x="503" d="M-100 135l34 -20l70 131q20 -98 81.5 -171t152.5 -75q117 2 187.5 86t78.5 188q23 12 30 18l7 5l-4 27l2 2q-2 0 -37 -21q0 129 -68.5 225.5t-179.5 96.5q-109 0 -181.5 -86t-72.5 -215zM-57 731q0 -10 16 -10q2 0 8 2q10 2 15 2q96 18 313 129q203 98 203 203v10 q-2 8 -2 10q0 31 -12.5 57.5t-47.5 26.5h-8q-8 -2 -12 -2q0 -18 6 -51q6 -29 6 -45q0 -37 -30.5 -70.5t-114.5 -70.5q-18 -18 -51 -36t-117 -52q-170 -72 -172 -103zM55 326q4 123 66.5 183t132.5 60h14v2h-2q-16 -41 -16 -94q0 -27 4 -49q6 -43 47 -102q35 -33 65.5 -46.5 t59.5 -13.5q8 0 18 2q9 2 13 2q-8 -41 -19.5 -72.5t-35 -63.5t-65.5 -53.5t-104 -29.5q-70 16 -124 85t-54 190zM299 467q0 31 7 61.5t13 30.5q37 -18 64 -51t43 -69t24.5 -68.5t8.5 -55.5h-21q-31 2 -50 7.5t-34 23.5q-29 23 -42 58.5t-13 62.5z" />
<glyph unicode="&#xf4;" horiz-adv-x="503" d="M-100 135l34 -20l70 131q20 -98 81.5 -171t152.5 -75q117 2 187.5 86t78.5 188q23 12 30 18l7 5l-4 27l2 2q-2 0 -37 -21q0 129 -68.5 225.5t-179.5 96.5q-109 0 -181.5 -86t-72.5 -215zM-16 850q0 -8 12 -8q20 0 59 20q74 23 125 61t62 66q12 -31 64 -66.5t126 -56.5 q39 -18 57 -18q14 0 15 10q0 20 -47 45q-80 37 -115 73t-80 111q-6 12 -22 37q-2 -4 -21 -39q-43 -76 -76.5 -112.5t-111.5 -73.5q-47 -27 -47 -49zM55 326q4 123 66.5 183t132.5 60h14v2h-2q-16 -41 -16 -94q0 -27 4 -49q6 -43 47 -102q35 -33 65.5 -46.5t59.5 -13.5 q8 0 18 2q9 2 13 2q-8 -41 -19.5 -72.5t-35 -63.5t-65.5 -53.5t-104 -29.5q-70 16 -124 85t-54 190zM299 467q0 31 7 61.5t13 30.5q37 -18 64 -51t43 -69t24.5 -68.5t8.5 -55.5h-21q-31 2 -50 7.5t-34 23.5q-29 23 -42 58.5t-13 62.5z" />
<glyph unicode="&#xf5;" horiz-adv-x="503" d="M-100 135l34 -20l70 131q20 -98 81.5 -171t152.5 -75q117 2 187.5 86t78.5 188q23 12 30 18l7 5l-4 27l2 2q-2 0 -37 -21q0 129 -68.5 225.5t-179.5 96.5q-109 0 -181.5 -86t-72.5 -215zM-59 856q0 -14 12 -14q8 0 27 10q10 18 24 51q23 53 45.5 77t67.5 24h4q2 2 4 2 q14 0 36.5 -15.5t61.5 -46.5q59 -45 84 -57q35 -27 86 -27q41 0 75 18.5t44 49.5q37 72 53.5 114.5t16.5 59.5q0 12 -9 12q-10 0 -30.5 -18.5t-30.5 -34.5q-18 -59 -44 -97t-73 -38q-39 0 -88 32l-4 5q-63 57 -103 84.5t-73 27.5l-6 -2h-6h-6q-4 2 -9 2q-29 0 -61.5 -22.5 t-58.5 -69.5q-4 -18 -19 -57q-20 -55 -20 -70zM55 326q4 123 66.5 183t132.5 60h14v2h-2q-16 -41 -16 -94q0 -27 4 -49q6 -43 47 -102q35 -33 65.5 -46.5t59.5 -13.5q8 0 18 2q9 2 13 2q-8 -41 -19.5 -72.5t-35 -63.5t-65.5 -53.5t-104 -29.5q-70 16 -124 85t-54 190z M299 467q0 31 7 61.5t13 30.5q37 -18 64 -51t43 -69t24.5 -68.5t8.5 -55.5h-21q-31 2 -50 7.5t-34 23.5q-29 23 -42 58.5t-13 62.5z" />
<glyph unicode="&#xf6;" horiz-adv-x="503" d="M-100 135l34 -20l70 131q20 -98 81.5 -171t152.5 -75q117 2 187.5 86t78.5 188q23 12 30 18l7 5l-4 27l2 2q-2 0 -37 -21q0 129 -68.5 225.5t-179.5 96.5q-109 0 -181.5 -86t-72.5 -215zM55 326q4 123 66.5 183t132.5 60h14v2h-2q-16 -41 -16 -94q0 -27 4 -49 q6 -43 47 -102q35 -33 65.5 -46.5t59.5 -13.5q8 0 18 2q9 2 13 2q-8 -41 -19.5 -72.5t-35 -63.5t-65.5 -53.5t-104 -29.5q-70 16 -124 85t-54 190zM70 928q2 -20 10 -28.5t22 -10.5q33 4 37 37q-6 35 -37 37q-33 -4 -32 -35zM299 467q0 31 7 61.5t13 30.5q37 -18 64 -51 t43 -69t24.5 -68.5t8.5 -55.5h-21q-31 2 -50 7.5t-34 23.5q-29 23 -42 58.5t-13 62.5zM340 930q4 -35 35 -39q33 4 37 37q-6 35 -37 37q-33 -4 -35 -35z" />
<glyph unicode="&#xf7;" d="M16 297l789 2v68h-782zM358 545q2 -31 35 -35q33 4 37 37q-4 33 -37 37q-31 -4 -35 -39zM362 74q2 -33 35 -35q33 4 35 37q-2 20 -10.5 27.5t-24.5 9.5q-16 -2 -24 -10.5t-11 -28.5z" />
<glyph unicode="&#xf8;" horiz-adv-x="503" d="M-100 135l34 -20l70 131q12 -59 41 -111.5t70 -87.5l-111 -391v-4l-2 -4q0 -31 29 -31q20 0 24 27l109 372q37 -16 74 -16q117 2 187.5 86t78.5 188q23 12 30 18l7 5l-4 27l2 2q-2 0 -37 -21q0 102 -45 187.5t-121 117.5l104 359q12 16 13 28q0 16 -17 17q-23 0 -51 -27 l-104 -362q-4 0 -19 2h-18q-113 0 -178.5 -87t-65.5 -214zM55 326q0 70 19.5 119t50.5 75.5t66.5 37.5t72.5 11l-131 -460q-35 37 -56.5 90t-21.5 127zM176 76l94 305l49 178q39 -18 67 -51t43 -72t22.5 -75.5t9.5 -73.5q-10 -47 -22.5 -83t-36 -68t-64.5 -54.5t-105 -30.5 q-23 6 -57 25z" />
<glyph unicode="&#xf9;" horiz-adv-x="1024" d="M-92 123l18 -12l144 223l2 -182q0 -78 68.5 -115t178.5 -37q66 6 105 33.5t74 89.5q0 4 16 31q20 39 33 63l2 -65q0 -78 68.5 -115t179.5 -37q66 6 104.5 33.5t73.5 89.5q0 8 26 53q33 61 50 94l-27 37q-25 -47 -57 -112q-14 -29 -17 -31q-33 -55 -62.5 -82t-72.5 -31 q-80 0 -136 17.5t-77 74.5v394q0 92 -29 92q-25 0 -26 -92v-230q-25 -47 -53 -106q-16 -35 -21 -37q-33 -55 -62.5 -82t-70.5 -31q-76 0 -137.5 19.5t-75.5 70.5v404q0 88 -27 88q-31 0 -30 -86v-133zM57 1098q0 -104 201 -203q221 -111 313 -129q4 0 15 -2q6 -2 8 -2 q16 0 16 10q0 29 -172 102q-84 35 -114.5 52t-53.5 37q-82 37 -112.5 70.5t-30.5 70.5q0 12 4 41q6 35 6 55q-4 0 -12 2h-8q-33 0 -45.5 -27.5t-12.5 -56.5v-10q-2 -8 -2 -10z" />
<glyph unicode="&#xfa;" horiz-adv-x="1024" d="M-92 123l18 -12l144 223l2 -182q0 -78 68.5 -115t178.5 -37q66 6 105 33.5t74 89.5q0 4 16 31q20 39 33 63l2 -65q0 -78 68.5 -115t179.5 -37q66 6 104.5 33.5t73.5 89.5q0 8 26 53q33 61 50 94l-27 37q-25 -47 -57 -112q-14 -29 -17 -31q-33 -55 -62.5 -82t-72.5 -31 q-80 0 -136 17.5t-77 74.5v394q0 92 -29 92q-25 0 -26 -92v-230q-25 -47 -53 -106q-16 -35 -21 -37q-33 -55 -62.5 -82t-70.5 -31q-76 0 -137.5 19.5t-75.5 70.5v404q0 88 -27 88q-31 0 -30 -86v-133zM41 721q0 -10 16 -10q2 0 9 2q10 2 14 2q96 18 313 129q203 98 203 203 v10q-2 8 -2 10q0 31 -12.5 57.5t-46.5 26.5h-9q-8 -2 -12 -2q0 -18 6 -51q6 -29 6 -45q0 -37 -30.5 -71t-114.5 -71q-18 -18 -51 -35.5t-117 -52.5q-168 -72 -172 -102z" />
<glyph unicode="&#xfb;" horiz-adv-x="1019" d="M-92 123l18 -12l144 223l2 -182q0 -78 68.5 -115t178.5 -37q66 6 105 33.5t74 89.5q0 4 16 31q20 39 33 63l2 -65q0 -78 68.5 -115t179.5 -37q66 6 104.5 33.5t73.5 89.5q0 8 26 53q33 61 50 94l-27 37q-25 -47 -57 -112q-14 -29 -17 -31q-33 -55 -62.5 -82t-72.5 -31 q-80 0 -136 17.5t-77 74.5v394q0 92 -29 92q-25 0 -26 -92v-230q-25 -47 -53 -106q-16 -35 -21 -37q-33 -55 -62.5 -82t-70.5 -31q-76 0 -137.5 19.5t-75.5 70.5v404q0 88 -27 88q-31 0 -30 -86v-133zM59 809q0 -8 13 -8q20 0 59 20q74 23 125 61t61 66q12 -31 64.5 -66.5 t126.5 -56.5q39 -18 57 -18q14 0 15 10q0 20 -48 45q-80 37 -114.5 73t-79.5 112q-7 11 -23 36q-2 -4 -20 -39q-43 -76 -77 -112.5t-112 -73.5q-47 -27 -47 -49z" />
<glyph unicode="&#xfc;" horiz-adv-x="1019" d="M-92 123l18 -12l144 223l2 -182q0 -78 68.5 -115t178.5 -37q66 6 105 33.5t74 89.5q0 4 16 31q20 39 33 63l2 -65q0 -78 68.5 -115t179.5 -37q66 6 104.5 33.5t73.5 89.5q0 8 26 53q33 61 50 94l-27 37q-25 -47 -57 -112q-14 -29 -17 -31q-33 -55 -62.5 -82t-72.5 -31 q-80 0 -136 17.5t-77 74.5v394q0 92 -29 92q-25 0 -26 -92v-230q-25 -47 -53 -106q-16 -35 -21 -37q-33 -55 -62.5 -82t-70.5 -31q-76 0 -137.5 19.5t-75.5 70.5v404q0 88 -27 88q-31 0 -30 -86v-133zM98 926q4 -35 35 -39q16 2 24.5 9t10.5 28q-2 33 -35 37q-33 -2 -35 -35 zM530 932q4 -35 35 -39q33 4 37 37q-4 35 -37 37q-33 -4 -35 -35z" />
<glyph unicode="&#xfd;" horiz-adv-x="1030" d="M-25 260l31 -35l45 129q6 10 21 45q16 45 32 82l11 19q14 27 22 43q10 14 25.5 20t48.5 10q10 -2 35 -2q33 0 49 -6q41 -20 41 -76l-2 -8v-10v-291q6 -80 50 -128t99 -50q16 0 43 6q14 2 21 2q47 27 86 70t100 145v-131q-61 -53 -103 -103t-68.5 -95.5t-45 -90.5 t-47.5 -120q-20 -55 -29 -78q-76 -260 -75 -459q0 -188 61 -288.5t147 -100.5q88 0 153 98.5t65 263.5v902q86 20 129 49.5t77 91.5q0 4 15 29q33 66 53 118l-18 37q-18 -35 -46 -92q-25 -49 -28 -51q-33 -59 -70 -85t-117 -34l-2 502v6l2 6q0 37 -28 37q-27 0 -31 -51v-260 q-70 -137 -105.5 -187.5t-60.5 -58.5q-45 -16 -88 -17q-33 8 -53.5 32t-28.5 71v309q0 96 -28.5 123t-90.5 33h-10q-68 0 -90 -2q-25 -8 -41 -21.5t-43 -44.5q-4 -12 -12 -31q-8 -16 -10 -24q-8 -18 -23 -59q-16 -49 -29 -82zM256 756q0 -10 16 -11q2 0 9 3q10 2 14 2 q96 18 313 129q203 98 203 202v11q-2 8 -2 10q0 31 -12.5 57.5t-46.5 26.5h-9q-8 -2 -12 -2q0 -18 6 -51q6 -29 6 -46q0 -37 -30.5 -70.5t-114.5 -70.5q-18 -18 -51 -35.5t-117 -52.5q-168 -72 -172 -102zM418 -854q0 154 47 354q20 63 34.5 103.5t24.5 66.5q12 35 19 51 l2 5q14 43 29.5 79.5t46.5 96.5q2 2 16 20q25 35 47 60.5t51 31.5v-882q0 -150 -32.5 -215.5t-106.5 -100.5q-82 0 -130 85t-48 245z" />
<glyph unicode="&#xfe;" horiz-adv-x="845" d="M-49 197l20 -19l37 64q14 27 43 77q31 57 53.5 98.5t40.5 69.5l2 -1622q0 -76 25 -75q10 0 19.5 19.5t9.5 47.5v1487q20 27 53 74q35 53 58.5 81.5t47.5 45.5q35 20 70 20q29 0 59 -14q10 -2 24.5 -32t14.5 -81q0 -29 -6 -63v-307q2 -18 16.5 -41t24.5 -29q8 0 29 -2h18 q39 0 60 10q43 20 75.5 52t65.5 87q0 6 25 52q31 57 47 90l-23 43q-25 -47 -55 -111q-16 -33 -19 -33q-51 -90 -106 -127q-47 -16 -66 -16q-31 0 -36 53v346q0 84 -35 119q-16 31 -48 45.5t-69 14.5q-4 0 -14 -3h-13q-25 -4 -40 -11t-33 -19l-21 -15q-10 -12 -35 -49 q-35 -51 -67 -94v756q-4 47 -29 47t-29 -47v-598q-14 -23 -34.5 -63t-47.5 -95q-37 -78 -53 -106z" />
<glyph unicode="&#xff;" horiz-adv-x="1030" d="M-25 260l31 -35l45 129q6 10 21 45q16 45 32 82l11 19q14 27 22 43q10 14 25.5 20t48.5 10q10 -2 35 -2q33 0 49 -6q41 -20 41 -76l-2 -8v-10v-291q6 -80 50 -128t99 -50q16 0 43 6q14 2 21 2q47 27 86 70t100 145v-131q-61 -53 -103 -103t-68.5 -95.5t-45 -90.5 t-47.5 -120q-20 -55 -29 -78q-76 -260 -75 -459q0 -188 61 -288.5t147 -100.5q88 0 153 98.5t65 263.5v902q86 20 129 49.5t77 91.5q0 4 15 29q33 66 53 118l-18 37q-18 -35 -46 -92q-25 -49 -28 -51q-33 -59 -70 -85t-117 -34l-2 502v6l2 6q0 37 -28 37q-27 0 -31 -51v-260 q-70 -137 -105.5 -187.5t-60.5 -58.5q-45 -16 -88 -17q-33 8 -53.5 32t-28.5 71v309q0 96 -28.5 123t-90.5 33h-10q-68 0 -90 -2q-25 -8 -41 -21.5t-43 -44.5q-4 -12 -12 -31q-8 -16 -10 -24q-8 -18 -23 -59q-16 -49 -29 -82zM367 922q2 -20 10 -28.5t22 -10.5q33 4 37 37 q-6 35 -37 36q-33 -4 -32 -34zM418 -854q0 154 47 354q20 63 34.5 103.5t24.5 66.5q12 35 19 51l2 5q14 43 29.5 79.5t46.5 96.5q2 2 16 20q25 35 47 60.5t51 31.5v-882q0 -150 -32.5 -215.5t-106.5 -100.5q-82 0 -130 85t-48 245zM637 924q4 -35 35 -39q33 4 37 37 q-6 35 -37 36q-33 -4 -35 -34z" />
<glyph unicode="&#x152;" horiz-adv-x="2252" d="M29 629q4 -57 12 -99.5t20.5 -82t35 -88t55.5 -109.5q12 -18 12 -19q27 -39 37 -53t22.5 -29.5t29.5 -34t54 -51.5q33 -33 69 -44t116 -23l36 -6q121 4 194 19.5t142 60.5q53 -49 105.5 -61.5t165.5 -12.5q53 10 90 42.5t82 108.5q115 -125 311 -124q115 0 246 43 q20 -6 47 -23q29 -16 57.5 -27.5t79.5 -19.5q51 8 86 37.5t72 89.5q0 8 26 53q33 61 49 94l-26 37q-25 -47 -57 -112q-14 -29 -17 -31q-61 -106 -106 -107q-18 -4 -43 -4q-35 0 -66 9.5t-51 33.5q27 4 52.5 32t47 73t34.5 97t13 103q0 94 -48 157t-154 67q-68 -14 -87.5 -52 t-19.5 -100q0 -80 25 -80q10 0 19 21.5t9 56.5q0 45 21.5 71.5t56.5 26.5q51 0 105 -59q25 -68 24 -131q0 -113 -69.5 -190.5t-188.5 -100.5q-53 -12 -108 -12q-86 0 -162 31.5t-132.5 89t-87 132t-30.5 156.5q0 100 50 200.5t153 186.5q18 14 43 39q37 35 63 45 q61 -117 148 -116q63 0 104 65q12 23 12 58q0 49 -26.5 86.5t-79.5 37.5q-59 0 -141 -55q-33 37 -56.5 102.5t-34.5 120.5q55 -8 107 -8q59 0 106 10q106 20 172 125t66 230q0 121 -63 203q-66 39 -132 38q-66 0 -122 -38.5t-99 -110.5t-66.5 -168t-23.5 -211 q-90 16 -135 80.5t-45 157.5q0 115 63 233q4 6 9 12q12 18 12 25q0 6 -4 10q-18 0 -26.5 -5t-20.5 -23q-41 -51 -64.5 -119t-23.5 -137q0 -100 50 -177t150 -102q27 -6 31 -6l14 -2h-6q14 -102 34 -159.5t58 -104.5q-23 -23 -79 -68q-55 -45 -96.5 -83t-78 -94t-59 -134 t-22.5 -180q25 -164 102 -269q-39 -66 -65.5 -94.5t-63.5 -40.5q-49 -12 -90 -12q-45 0 -82 15t-64 54q63 63 98.5 127t80.5 195q35 139 51 230t31 184q2 23 4 34q0 20 2 48v43q0 88 -9.5 162.5t-29.5 172.5q-12 61 -19 99q-82 262 -225 370q-31 20 -51.5 30.5t-46 20 t-61.5 18.5t-99 22q-113 -18 -179.5 -62.5t-121.5 -175.5q-27 -70 -43 -152t-16 -182q0 -45 4 -90q6 -70 28.5 -133.5t65.5 -108.5q33 -35 66.5 -55t76.5 -20q66 0 150 51q2 2 14 20q43 61 61.5 103.5t18.5 111.5q0 33 -4 70q-12 4 -21 4q-25 0 -24 -35q0 -10 2 -28 q2 -20 2 -31q-8 -90 -49 -147.5t-121 -71.5h-8h-9q-74 0 -132 78.5t-68 236.5q0 139 20.5 233.5t44.5 139.5q37 88 97.5 136t144.5 48q109 0 244 -82q72 -55 135 -202.5t96 -376.5q10 -80 10 -154q0 -125 -27.5 -265t-90.5 -372q-14 -27 -29 -51q-33 -59 -55.5 -91 t-56.5 -59.5t-91 -51t-149 -44.5l-27 2q-90 4 -131 9.5t-73 19.5t-63.5 44t-88.5 95q-59 82 -99.5 166t-56.5 193q-10 61 -10 135q0 78 9 156.5t28 183.5q20 115 20 147q0 27 -8 35q-12 -8 -26.5 -49t-26 -97.5t-18.5 -94.5t-13 -81l-2 -12q-6 -70 -8 -113t-2 -98v-28v-33z M1464 1303q2 158 36 261t83 156.5t97 72.5t85 19q57 -20 84 -71t27 -113q0 -37 -8 -65q-8 -49 -25.5 -93.5t-52.5 -85.5t-92.5 -65.5t-136.5 -24.5q-45 0 -97 9zM1585 991l41 23q9 6 27 12q6 0 14 2h12q37 0 55.5 -19.5t18.5 -45.5q0 -25 -15.5 -44.5t-39.5 -19.5 q-25 0 -53.5 21.5t-59.5 70.5z" />
<glyph unicode="&#x153;" horiz-adv-x="1001" d="M-86 135l33 -20l71 131q18 -98 80 -171t152 -75q86 2 145.5 49t91.5 119q20 -53 54 -92t71 -56q12 -2 35 -8q47 -12 64 -12h90q47 10 83 39t70 88q0 6 25 51q31 57 49 96l-24 37q-25 -47 -58 -112q-14 -29 -16 -31q-61 -106 -107 -107q-8 -2 -36.5 -6t-63.5 -6 q-76 6 -124 39t-81 148q-6 37 -6 57q86 -18 154 -19q63 0 108 17q23 4 45.5 13t61.5 36q25 29 37 57.5t12 75.5q0 63 -57.5 107.5t-137.5 44.5q-78 0 -132 -29t-79 -70q-25 -31 -35 -73q-29 78 -87 126t-136 48q-109 0 -181.5 -87t-72.5 -214zM70 326q4 123 65.5 183 t130.5 60q16 0 17 2h-2q-18 -43 -19 -100q0 -23 4 -43q8 -43 49 -102q74 -39 127 -39q17 0 33 4q-12 -53 -23.5 -87t-36 -67t-65.5 -55.5t-102 -30.5q-70 16 -124 85t-54 190zM313 467q0 31 6.5 61.5t12.5 30.5q37 -18 63.5 -50t43 -66.5t24.5 -64.5t8 -42q-16 -8 -35 -8 q-20 0 -55 14q-12 4 -14 4q-29 23 -41.5 58.5t-12.5 62.5zM516 334q8 123 49 173t97 56q20 10 49 10q20 0 47 -6q53 0 88 -27.5t35 -72.5q0 -33 -8.5 -55.5t-30.5 -51.5q-25 -16 -43.5 -21t-42.5 -7q-14 -2 -23 -4q-45 -8 -92 -9q-64 1 -125 15z" />
<glyph unicode="&#x178;" horiz-adv-x="1953" d="M8 1264q6 -55 15.5 -103.5t27 -93.5t48 -78t75.5 -47h6l10 2q2 0 29 -2q25 -2 43 -2q39 0 73 8t63.5 32t48 70t18.5 119l-37 -2q-2 -66 -17.5 -103.5t-40 -55t-50 -21.5t-70.5 -6q-37 0 -51 -2q-72 33 -107 107.5t-35 162.5q0 145 38 252t81 162q70 96 160 125t201 29 q156 -27 223 -106t67 -204q0 -29 -4 -63v-1165q10 -123 85 -186.5t184 -82.5q125 -23 245 0q43 6 95.5 38t101.5 81v-68q-47 -29 -88 -87t-73 -124.5t-49 -115.5t-38 -109l-6 -18q-76 -264 -76 -469q0 -184 57.5 -284.5t137.5 -100.5q78 0 137 98t59 266q0 12 -2 27v27v964 q18 -16 35 -33q61 -55 91 -77.5t53 -22.5q16 0 36.5 7t48 33t60.5 82t63 146l-26 37q-35 -84 -64.5 -136t-53.5 -75.5t-37 -30t-23 -8.5h-2q-86 27 -133.5 93.5t-47.5 156.5v1555h-57l-2 -1565q-12 -66 -35.5 -111t-52.5 -72.5t-54.5 -42t-66.5 -32.5l-6 -2h-37 q-27 -2 -31 -2q-115 0 -189.5 23.5t-111.5 57.5t-51 66.5t-20 69.5v1196q0 133 -40 218t-98.5 126t-112 54.5t-91.5 13.5q-125 0 -221.5 -41t-186.5 -150q-4 -6 -16 -29q-41 -70 -68 -150.5t-37 -225.5zM971 2187q4 -35 35 -39q33 4 36 37q-6 35 -36 37q-33 -4 -35 -35z M1245 -860q0 156 47 356q41 156 76 225q6 12 16 43q14 39 28.5 71t41.5 73q8 10 16 22q35 45 66 76v-833q-2 -27 -2 -54q-4 -90 -8 -137t-15.5 -83t-35 -62.5t-64.5 -50.5q-72 14 -119 103t-47 251zM1380 2189q2 -20 10.5 -28.5t22.5 -10.5q33 4 37 37q-6 35 -37 37 q-33 -4 -33 -35z" />
<glyph unicode="&#x2c6;" horiz-adv-x="595" d="M35 846q0 -8 12 -8q20 0 59 20q74 23 125.5 60.5t61.5 66.5q12 -31 64.5 -66.5t125.5 -56.5q39 -18 58 -18q14 0 14 10q0 20 -47 45q-80 37 -115 73t-80 111q-6 12 -22 37q-2 -4 -21 -39q-43 -76 -76.5 -112.5t-111.5 -73.5q-47 -27 -47 -49z" />
<glyph unicode="&#x2dc;" horiz-adv-x="841" d="M84 823q0 -14 10 -14q8 0 27 10q10 16 26 53q25 51 46.5 75t64.5 24h4l4 2q16 0 39 -15.5t64 -48.5q55 -43 80 -55q35 -27 86 -27q43 0 76.5 18.5t43.5 49.5q37 72 53.5 114t16.5 60q0 12 -8 12q-12 0 -31.5 -18.5t-30.5 -34.5q-18 -57 -44.5 -96t-73.5 -39q-39 0 -88 33 q-61 57 -103.5 86.5t-75.5 29.5l-6 -2h-6h-6q-4 2 -8 2q-29 0 -63 -21.5t-60 -70.5q-6 -23 -19 -61q-18 -53 -18 -66z" />
<glyph unicode="&#x2000;" horiz-adv-x="1223" />
<glyph unicode="&#x2001;" horiz-adv-x="2447" />
<glyph unicode="&#x2002;" horiz-adv-x="1223" />
<glyph unicode="&#x2003;" horiz-adv-x="2447" />
<glyph unicode="&#x2004;" horiz-adv-x="815" />
<glyph unicode="&#x2005;" horiz-adv-x="611" />
<glyph unicode="&#x2006;" horiz-adv-x="407" />
<glyph unicode="&#x2007;" horiz-adv-x="407" />
<glyph unicode="&#x2008;" horiz-adv-x="305" />
<glyph unicode="&#x2009;" horiz-adv-x="489" />
<glyph unicode="&#x200a;" horiz-adv-x="135" />
<glyph unicode="&#x2010;" horiz-adv-x="763" d="M219 248h268v74h-268v-74z" />
<glyph unicode="&#x2011;" horiz-adv-x="763" d="M219 248h268v74h-268v-74z" />
<glyph unicode="&#x2012;" horiz-adv-x="763" d="M219 248h268v74h-268v-74z" />
<glyph unicode="&#x2013;" horiz-adv-x="1544" d="M287 502l2 -68h903v68h-905z" />
<glyph unicode="&#x2014;" horiz-adv-x="1638" d="M0 459h1638v63h-1638v-63z" />
<glyph unicode="&#x2018;" horiz-adv-x="501" d="M238 1382q0 -6 4 -6q18 0 73 68q49 57 63.5 95t14.5 81q0 4 -2 20q0 23 -10 39.5t-49 32.5q-20 -2 -35.5 -14t-15.5 -35q0 -12 4 -27q27 20 43 21q12 0 18 -12.5t6 -32.5q0 -23 -6 -45q-10 -39 -67 -105q-41 -59 -41 -80z" />
<glyph unicode="&#x2019;" horiz-adv-x="354" d="M92 1630q0 -43 13.5 -81t62.5 -95q55 -68 74 -68q6 0 6 7q0 20 -41 80q-61 72 -68 104q-6 25 -6 47q0 18 6 30.5t19 12.5q16 0 43 -20q4 12 4 24q0 25 -15.5 37t-37.5 14q-37 -16 -46.5 -31.5t-11.5 -39.5q0 -12 -2 -21z" />
<glyph unicode="&#x201a;" horiz-adv-x="911" d="M147 -203q0 -6 5 -6q18 0 73 68q49 57 62.5 95t13.5 81q-2 8 -2 20q0 25 -10 40.5t-47 31.5q-23 -2 -38.5 -14.5t-15.5 -36.5q0 -12 5 -25q27 20 43 21q12 0 18 -12.5t6 -30.5q0 -23 -6 -47q-6 -35 -68 -105q-39 -59 -39 -80z" />
<glyph unicode="&#x201c;" horiz-adv-x="892" d="M238 1382q0 -6 4 -6q18 0 73 68q49 57 63.5 95t14.5 81q0 4 -2 20q0 23 -10 39.5t-49 32.5q-20 -2 -35.5 -14t-15.5 -35q0 -12 4 -27q27 20 43 21q12 0 18 -12.5t6 -32.5q0 -23 -6 -45q-10 -39 -67 -105q-41 -59 -41 -80zM504 1368q0 -6 4 -6q19 0 74 68q51 59 64 97 t13 79q-2 8 -2 20q-2 25 -12 40t-47 32q-20 -2 -35.5 -14.5t-15.5 -34.5q0 -12 4 -27q27 20 41 20t19 -12t5 -31q0 -23 -6 -47q-6 -37 -65 -104q-41 -59 -41 -80z" />
<glyph unicode="&#x201d;" horiz-adv-x="907" d="M92 1630q0 -43 13.5 -81t62.5 -95q55 -68 74 -68q6 0 6 7q0 20 -41 80q-61 72 -68 104q-6 25 -6 47q0 18 6 30.5t19 12.5q16 0 43 -20q4 12 4 24q0 25 -15.5 37t-37.5 14q-37 -16 -46.5 -31.5t-11.5 -39.5q0 -12 -2 -21zM418 1632q0 -43 14.5 -81t63.5 -95q55 -68 73 -67 q4 0 4 6q0 20 -41 80q-57 66 -67 104q-6 23 -6 45q0 20 6 32.5t18 12.5q18 0 43 -20q6 14 6 26q0 23 -16 35t-37 14q-39 -16 -48 -32.5t-11 -38.5q-2 -16 -2 -21z" />
<glyph unicode="&#x201e;" horiz-adv-x="1314" d="M147 -203q0 -6 5 -6q18 0 73 68q49 57 62.5 95t13.5 81q-2 8 -2 20q0 25 -10 40.5t-47 31.5q-23 -2 -38.5 -14.5t-15.5 -36.5q0 -12 5 -25q27 20 43 21q12 0 18 -12.5t6 -30.5q0 -23 -6 -47q-6 -35 -68 -105q-39 -59 -39 -80zM451 -203q0 -6 4 -6q18 0 73 68 q49 57 62.5 95t13.5 81q-2 8 -2 20q0 25 -10 40.5t-47 31.5q-23 -2 -38 -14.5t-15 -36.5q0 -12 4 -25q27 20 43 21q12 0 18 -12.5t6 -30.5q0 -23 -6 -47q-6 -35 -68 -105q-39 -59 -38 -80z" />
<glyph unicode="&#x2022;" horiz-adv-x="579" d="M63 262q10 -135 77 -195.5t159 -60.5q94 0 160.5 63.5t77.5 213.5q-4 80 -28 132t-58.5 81.5t-72.5 43t-79 19.5q-43 -6 -80 -19.5t-70.5 -45t-57 -89t-28.5 -143.5z" />
<glyph unicode="&#x2026;" horiz-adv-x="1071" d="M143 61q2 -31 35 -34q31 2 37 36q-4 33 -37 37q-31 -4 -35 -39zM307 61q2 -31 35 -34q31 2 37 36q-4 33 -37 37q-31 -4 -35 -39zM485 61q2 -33 35 -34q33 4 35 36q-2 20 -10.5 27.5t-24.5 9.5q-16 -2 -24.5 -10t-10.5 -29z" />
<glyph unicode="&#x202f;" horiz-adv-x="489" />
<glyph unicode="&#x2039;" horiz-adv-x="548" d="M72 621l282 -576l37 31l-264 540l272 564l-45 16z" />
<glyph unicode="&#x203a;" horiz-adv-x="579" d="M147 1184l273 -563l-264 -541l37 -31l282 576l-282 575z" />
<glyph unicode="&#x205f;" horiz-adv-x="611" />
<glyph unicode="&#x2122;" horiz-adv-x="1667" d="M395 1249h158v-338h68v338h155v70h-381v-70zM791 915h61l-2 334l90 -223h98l76 217l-2 -332h62l-3 408h-94l-96 -209l-92 209h-96z" />
<glyph unicode="&#x25fc;" horiz-adv-x="624" d="M0 0v625h625v-625h-625z" />
</font>
</defs>
</svg>
